<?xml version="1.0" encoding="UTF-8" standalone="no"?>
<!DOCTYPE svg PUBLIC "-//W3C//DTD SVG 1.1//EN" "http://www.w3.org/Graphics/SVG/1.1/DTD/svg11.dtd">
<svg width="100%" height="100%" viewBox="0 0 167 60" version="1.1" xmlns="http://www.w3.org/2000/svg" xmlns:xlink="http://www.w3.org/1999/xlink" xml:space="preserve" xmlns:serif="http://www.serif.com/" style="fill-rule:evenodd;clip-rule:evenodd;stroke-linejoin:round;stroke-miterlimit:2;">
    <g transform="matrix(1,0,0,1,-4756.85,-3338.65)">
        <g transform="matrix(0.373628,0,0,0.373628,3894.39,3471.97)">
            <g transform="matrix(1.27715,0,0,1.27715,2342.04,-351.975)">
                <path d="M0,117.376L13.353,71.153L69.433,71.148C71.739,71.12 73.708,69.574 74.36,67.472L80.786,46.226L22.315,46.313C22.315,46.313 21.185,46.175 20.685,47.074C20.528,47.362 19.763,48.732 19.763,48.732C19.763,48.732 26.146,26.754 35.333,26.754L82.753,26.754C85.067,26.754 87.024,25.235 87.7,23.148L95.626,-3.706L37.733,-3.795C18.96,-2.432 5.255,13.157 -3.385,42.964L-26.385,121.171L-5.012,121.171C-2.633,121.171 -0.617,119.559 0,117.376" />
            </g>
        </g>
        <g transform="matrix(0.373628,0,0,0.373628,3894.39,3471.97)">
            <g transform="matrix(1.27715,0,0,1.27715,2517.58,-294.868)">
                <path d="M0,28.035L-20.056,28.035C-20.056,28.035 -20.936,28.07 -21.165,28.07C-22.056,28.07 -23.056,29.68 -23.056,29.68L-5.72,-9.962L2.748,25.795C2.768,25.889 3.187,28.035 0,28.035M36.773,73.434L7.647,-48.421C6.703,-48.411 -7.748,-48.421 -9.586,-48.421C-13.234,-48.421 -14.533,-46.692 -15.318,-45.121L-68.78,76.456L-47.821,76.456C-43.665,76.456 -42.949,74.633 -42.312,73.223L-30.082,45.598L2.933,45.455C6.871,45.455 7.963,48.184 7.963,48.184L14.642,76.456L32.273,76.456C32.273,76.456 37.501,76.456 36.773,73.434"/>
            </g>
        </g>
        <g transform="matrix(0.373628,0,0,0.373628,3894.39,3471.97)">
            <g transform="matrix(1.27715,0,0,1.27715,2725.11,-197.222)">
                <path d="M0,-124.877C-5.266,-124.877 -8.051,-124.877 -11.184,-119.077L-51.64,-44.433C-51.64,-44.433 -52.172,-43.488 -52.323,-43.184C-53.132,-41.564 -53.035,-39.334 -53.035,-39.334L-67.016,-124.877L-87.344,-124.877C-92.836,-124.877 -96.846,-124.877 -97.914,-118.404L-120.419,0C-117.789,-0.092 -106.592,0 -106.592,0C-97.118,0 -97.118,0 -95.945,-6.388L-82.649,-76.666L-70.47,-1.695C-62.729,-1.681 -69.767,-1.681 -62.729,-1.681L-58.862,-1.681C-51.289,-1.695 -51.289,-1.695 -48.501,-6.726L-10.987,-76.162L-25.456,0L-10.926,0C-2.293,0 -2.293,0 -0.943,-6.473L21.574,-124.877L0,-124.877Z"/>
            </g>
        </g>
    </g>
</svg>
