<?xml version="1.0" encoding="UTF-8" standalone="no"?>
<!DOCTYPE svg PUBLIC "-//W3C//DTD SVG 1.1//EN" "http://www.w3.org/Graphics/SVG/1.1/DTD/svg11.dtd">
<svg width="100%" height="100%" viewBox="0 0 50 50" version="1.1" xmlns="http://www.w3.org/2000/svg" xmlns:xlink="http://www.w3.org/1999/xlink" xml:space="preserve" xmlns:serif="http://www.serif.com/" style="fill-rule:evenodd;clip-rule:evenodd;stroke-linejoin:round;stroke-miterlimit:2;">
    <g transform="matrix(1,0,0,1,-265.5,-482.014)">
        <g transform="matrix(1,0,0,2.3871,25,-303.774)">
            <g transform="matrix(1.06383,0,0,0.445658,184.117,289.072)">
                <path d="M53.001,113.704C53,113.636 53,113.568 53,113.5C53,100.521 63.521,90 76.5,90C89.479,90 100,100.521 100,113.5C100,126.479 89.479,137 76.5,137C71.919,137 67.644,135.689 64.03,133.422C64.029,133.422 64.022,133.417 64.019,133.415C64.745,132.691 65.37,132.065 65.904,131.531L66.812,130.617L66.813,130.619C68.074,129.353 68.574,128.843 68.574,128.843C68.99,128.405 69.148,127.779 68.99,127.196L70.594,125.592C72.477,126.589 74.576,127.11 76.707,127.11C83.874,127.11 89.773,121.212 89.773,114.044C89.773,113.144 89.679,112.246 89.495,111.364C89.388,110.863 89.251,110.368 89.087,109.882L93.214,105.703L93.214,107.957C93.214,108.433 93.606,108.824 94.081,108.824C94.557,108.824 94.948,108.433 94.948,107.957L94.948,103.622C94.967,103.519 94.967,103.413 94.948,103.31L94.948,103.223C94.916,103.158 94.875,103.096 94.827,103.041L94.766,102.972C94.697,102.907 94.618,102.855 94.532,102.816C94.435,102.777 94.333,102.757 94.229,102.755L89.746,102.755C89.271,102.755 88.879,103.146 88.879,103.622C88.879,104.098 89.271,104.489 89.746,104.489L92,104.489L88.359,108.139C88.272,107.974 88.194,107.81 88.108,107.654C85.819,103.478 81.42,100.873 76.658,100.873C69.495,100.873 63.601,106.767 63.601,113.93C63.601,114.557 63.646,115.183 63.736,115.803C63.777,116.127 63.832,116.451 63.901,116.774C63.901,116.957 63.988,117.13 64.04,117.312L60.988,119.913L53.001,113.704ZM62.55,132.414C61.612,131.72 60.727,130.959 59.902,130.137L62.566,127.473L65.037,129.927L62.55,132.414ZM58.723,128.87C55.672,125.345 53.653,120.904 53.133,116.015L60.442,121.699C60.76,121.961 61.224,121.961 61.543,121.699L64.612,119.098C64.681,119.271 64.751,119.445 64.837,119.618C65.283,120.564 65.842,121.452 66.502,122.263L65.305,123.511C64.707,123.347 64.064,123.516 63.623,123.953L58.734,128.852L58.741,128.852L58.723,128.87ZM79.862,124.933C74.82,126.393 69.392,124.146 66.857,119.549L72.406,114.798L78.571,119.592C79.607,120.412 81.112,120.318 82.039,119.375L88.012,113.41C88.329,118.665 84.924,123.476 79.862,124.924L79.862,124.933ZM66.068,117.85L65.982,117.589C65.921,117.407 65.86,117.234 65.808,117.052C65.756,116.87 65.748,116.809 65.713,116.688C65.678,116.566 65.635,116.341 65.6,116.168L65.6,115.994L71.799,110.766C72.118,110.504 72.582,110.504 72.9,110.766L79.516,115.925C79.86,116.197 80.359,116.167 80.669,115.855L87.059,109.474L87.163,109.717C87.232,109.882 87.301,110.055 87.362,110.229C87.423,110.402 87.44,110.471 87.483,110.593C87.527,110.714 87.587,110.94 87.639,111.113L87.683,111.295L80.807,118.17C80.499,118.477 80.006,118.507 79.663,118.24L72.944,113.038C72.625,112.776 72.161,112.776 71.843,113.038L66.068,117.85ZM67.932,125.8L66.71,124.577L67.759,123.528C68.182,123.928 68.631,124.298 69.103,124.638L67.932,125.8ZM64.846,125.141L67.308,127.603L66.259,128.652L63.797,126.19L64.846,125.141ZM73.533,103.111C78.32,101.719 83.488,103.662 86.174,107.862L79.984,114.043L73.967,109.379C72.997,108.622 71.617,108.651 70.681,109.448L65.418,113.905C65.43,108.919 68.747,104.506 73.533,103.111Z" style="fill:rgb(93,55,141);"/>
            </g>
        </g>
    </g>
</svg>
