<?xml version="1.0" encoding="UTF-8" standalone="no"?>
<!DOCTYPE svg PUBLIC "-//W3C//DTD SVG 1.1//EN" "http://www.w3.org/Graphics/SVG/1.1/DTD/svg11.dtd">
<svg width="100%" height="100%" viewBox="0 0 50 50" version="1.1" xmlns="http://www.w3.org/2000/svg" xmlns:xlink="http://www.w3.org/1999/xlink" xml:space="preserve" xmlns:serif="http://www.serif.com/" style="fill-rule:evenodd;clip-rule:evenodd;stroke-linejoin:round;stroke-miterlimit:2;">
    <g transform="matrix(1,0,0,1,-18.5,-358.5)">
        <g transform="matrix(1,0,0,1.63871,25,-139.877)">
            <g transform="matrix(1.06383,0,0,0.649187,-62.8829,245.701)">
                <path d="M69.996,136.088C60.181,133.267 53,124.222 53,113.5C53,100.521 63.521,90 76.5,90C89.479,90 100,100.521 100,113.5C100,124.222 92.819,133.267 83.004,136.088L83.004,127.106C83.034,125.586 83.738,124.156 84.923,123.204C87.831,120.733 89.51,117.105 89.51,113.289C89.51,106.153 83.638,100.281 76.501,100.281C69.365,100.281 63.493,106.153 63.493,113.289C63.493,117.158 65.219,120.831 68.196,123.301C69.381,124.322 70.042,125.825 69.996,127.388L69.996,136.088ZM80.836,136.601C79.431,136.863 77.981,137 76.5,137C75.019,137 73.569,136.863 72.164,136.601L72.164,129.556L80.836,129.556L80.836,136.601ZM75.232,115.952L74.148,114.38L78.766,114.38L77.682,115.952C77.593,116.137 77.559,116.344 77.584,116.548L77.584,127.388L75.416,127.388L75.416,116.548C75.414,116.335 75.35,116.128 75.232,115.952ZM65.79,111.561C66.588,106.8 70.451,103.106 75.242,102.521C75.676,102.477 76.095,102.456 76.5,102.456C79.161,102.444 81.733,103.426 83.709,105.209C86.006,107.264 87.32,110.205 87.32,113.287C87.32,116.465 85.923,119.487 83.503,121.545C81.842,122.917 80.867,124.952 80.836,127.106L80.836,127.388L79.752,127.388L79.752,116.873L81.736,113.892C81.946,113.567 81.967,113.153 81.79,112.808C81.608,112.447 81.24,112.217 80.836,112.212L72.164,112.212C71.765,112.213 71.397,112.434 71.21,112.786C71.033,113.131 71.054,113.545 71.264,113.87L73.248,116.873L73.248,127.388L72.164,127.388C72.198,125.199 71.251,123.105 69.584,121.686C66.61,119.231 65.162,115.366 65.79,111.561Z" style="fill:rgb(229,56,136);"/>
            </g>
        </g>
        <g transform="matrix(1,0,0,1.63871,25,-139.877)">
            <g transform="matrix(1.15321,0,0,1.15321,-76.0628,-48.0083)">
                <g transform="matrix(1,0,0,0.610236,50,303.213)">
                    <path d="M32.001,7C32.553,7 33,7.447 33,7.999C33,8.61 33,9.39 33,10.001C33,10.553 32.553,11 32.001,11C32,11 32,11 31.999,11C31.447,11 31,10.553 31,10.001C31,9.39 31,8.61 31,7.999C31,7.447 31.447,7 31.999,7C32,7 32,7 32.001,7Z" style="fill:white;"/>
                </g>
                <g transform="matrix(1,0,0,0.610236,50,303.213)">
                    <path d="M17.001,24C17.553,24 18,24.447 18,24.999C18,25 18,25 18,25.001C18,25.553 17.553,26 17.001,26C16.39,26 15.61,26 14.999,26C14.447,26 14,25.553 14,25.001C14,25 14,25 14,24.999C14,24.447 14.447,24 14.999,24C15.61,24 16.39,24 17.001,24Z" style="fill:white;"/>
                </g>
                <g transform="matrix(1,0,0,0.610236,50,303.213)">
                    <path d="M49.001,23C49.553,23 50,23.447 50,23.999C50,24 50,24 50,24.001C50,24.553 49.553,25 49.001,25C48.39,25 47.61,25 46.999,25C46.447,25 46,24.553 46,24.001C46,24 46,24 46,23.999C46,23.447 46.447,23 46.999,23C47.61,23 48.39,23 49.001,23Z" style="fill:white;"/>
                </g>
                <g transform="matrix(0.707107,-0.431502,0.707107,0.431502,46.46,314.471)">
                    <path d="M20.501,11.38C20.766,11.38 21.02,11.485 21.207,11.673C21.395,11.86 21.5,12.114 21.5,12.379C21.5,13.055 21.5,13.945 21.5,14.621C21.5,14.886 21.395,15.14 21.207,15.327C21.02,15.515 20.766,15.62 20.501,15.62C20.5,15.62 20.5,15.62 20.499,15.62C20.234,15.62 19.98,15.515 19.793,15.327C19.605,15.14 19.5,14.886 19.5,14.621C19.5,13.945 19.5,13.055 19.5,12.379C19.5,12.114 19.605,11.86 19.793,11.673C19.98,11.485 20.234,11.38 20.499,11.38C20.5,11.38 20.5,11.38 20.501,11.38Z" style="fill:white;"/>
                </g>
                <g transform="matrix(0.707107,-0.431502,0.707107,0.431502,53.19,324.394)">
                    <path d="M44.621,12.5C44.886,12.5 45.14,12.605 45.327,12.793C45.515,12.98 45.62,13.234 45.62,13.499C45.62,13.5 45.62,13.5 45.62,13.501C45.62,13.766 45.515,14.02 45.327,14.207C45.14,14.395 44.886,14.5 44.621,14.5C43.945,14.5 43.055,14.5 42.379,14.5C42.114,14.5 41.86,14.395 41.673,14.207C41.485,14.02 41.38,13.766 41.38,13.501C41.38,13.5 41.38,13.5 41.38,13.499C41.38,13.234 41.485,12.98 41.673,12.793C41.86,12.605 42.114,12.5 42.379,12.5C43.055,12.5 43.945,12.5 44.621,12.5Z" style="fill:white;"/>
                </g>
                <g transform="matrix(0.707107,-0.431502,0.707107,0.431502,30.61,317.974)">
                    <path d="M20.621,34.5C20.886,34.5 21.14,34.605 21.327,34.793C21.515,34.98 21.62,35.234 21.62,35.499C21.62,35.5 21.62,35.5 21.62,35.501C21.62,35.766 21.515,36.02 21.327,36.207C21.14,36.395 20.886,36.5 20.621,36.5C19.945,36.5 19.055,36.5 18.379,36.5C18.114,36.5 17.86,36.395 17.673,36.207C17.485,36.02 17.38,35.766 17.38,35.501C17.38,35.5 17.38,35.5 17.38,35.499C17.38,35.234 17.485,34.98 17.673,34.793C17.86,34.605 18.114,34.5 18.379,34.5C19.055,34.5 19.945,34.5 20.621,34.5Z" style="fill:white;"/>
                </g>
                <g transform="matrix(0.707107,-0.431502,0.707107,0.431502,37.93,328.757)">
                    <path d="M44.501,33.38C44.766,33.38 45.02,33.485 45.207,33.673C45.395,33.86 45.5,34.114 45.5,34.379C45.5,35.055 45.5,35.945 45.5,36.621C45.5,36.886 45.395,37.14 45.207,37.327C45.02,37.515 44.766,37.62 44.501,37.62C44.5,37.62 44.5,37.62 44.499,37.62C44.234,37.62 43.98,37.515 43.793,37.327C43.605,37.14 43.5,36.886 43.5,36.621C43.5,35.945 43.5,35.055 43.5,34.379C43.5,34.114 43.605,33.86 43.793,33.673C43.98,33.485 44.234,33.38 44.499,33.38C44.5,33.38 44.5,33.38 44.501,33.38Z" style="fill:white;"/>
                </g>
            </g>
        </g>
    </g>
</svg>
