<?xml version="1.0" encoding="UTF-8" standalone="no"?>
<!DOCTYPE svg PUBLIC "-//W3C//DTD SVG 1.1//EN" "http://www.w3.org/Graphics/SVG/1.1/DTD/svg11.dtd">
<svg width="100%" height="100%" viewBox="0 0 50 50" version="1.1" xmlns="http://www.w3.org/2000/svg" xmlns:xlink="http://www.w3.org/1999/xlink" xml:space="preserve" xmlns:serif="http://www.serif.com/" style="fill-rule:evenodd;clip-rule:evenodd;stroke-linejoin:round;stroke-miterlimit:2;">
    <g transform="matrix(1,0,0,1,-234.75,-378.993)">
        <g transform="matrix(1,0,0,2.3871,25,-303.774)">
            <g transform="matrix(1.06383,0,0,0.445658,153.367,245.915)">
                <path d="M98.817,106.117C99.584,108.439 100,110.921 100,113.5C100,126.479 89.479,137 76.5,137C63.521,137 53,126.479 53,113.5C53,110.921 53.415,108.439 54.183,106.117L98.817,106.117ZM55.018,103.959C58.676,95.734 66.918,90 76.5,90C86.082,90 94.324,95.734 97.982,103.959L88.373,103.959L88.373,102.878C88.373,101.103 86.91,99.64 85.135,99.64L81.446,99.64C80.888,97.257 79.044,95.326 76.497,95.326C73.95,95.326 72.112,97.257 71.554,99.64L67.865,99.64C66.09,99.64 64.626,101.103 64.626,102.878L64.626,103.959L55.018,103.959ZM76.497,97.481C78.298,97.481 79.736,98.918 79.736,100.72C79.736,101.312 80.224,101.799 80.816,101.799L85.135,101.799C85.752,101.799 86.214,102.262 86.214,102.878L86.214,103.959L66.785,103.959L66.785,102.878C66.785,102.262 67.248,101.799 67.865,101.799L72.184,101.799C72.776,101.799 73.263,101.312 73.264,100.72C73.264,98.918 74.696,97.481 76.497,97.481Z" style="fill:rgb(93,55,141);"/>
            </g>
        </g>
        <g transform="matrix(1,0,0,2.3871,25,-303.774)">
            <g transform="matrix(0.574114,0,0,0.240507,207.192,285.511)">
                <path d="M76,48C77.097,48 78,48.903 78,50C78,51.097 77.097,52 76,52C74.903,52 74,51.097 74,50C74,48.903 74.903,48 76,48ZM31.898,40C32.114,39.983 32.381,40.018 32.635,40.105L44.631,44.1C46.453,44.708 46.453,47.286 44.631,47.895L41.918,48.799C41.968,49.195 42.004,49.596 42.004,49.998C42.006,53.035 40.628,55.763 38.473,57.602C42.936,59.947 45.996,64.628 45.996,70.002C45.999,70.045 46,70.087 46,70.13C46,71.227 45.097,72.13 44,72.13C42.903,72.13 42,71.227 42,70.13C42,70.087 42.001,70.045 42.004,70.002C42.004,64.455 37.547,60 32,60C26.453,60 21.998,64.455 21.998,70.002C21.998,71.1 21.095,72.003 19.997,72.003C18.899,72.003 17.996,71.1 17.996,70.002C17.996,64.628 21.062,59.947 25.527,57.602C23.372,55.763 21.997,53.035 21.998,49.998C21.998,49.595 22.033,49.195 22.082,48.799L19.369,47.895C17.547,47.286 17.547,44.708 19.369,44.1L31.365,40.105C31.52,40.051 31.683,40.017 31.898,40ZM32,44.113L26.324,45.996L32,47.895L37.678,45.996L32,44.113ZM26.004,50.107C26.06,53.392 28.7,55.998 32,55.998C35.303,55.998 37.944,53.395 37.996,50.107L32.635,51.895C32.223,52.032 31.777,52.032 31.365,51.895L26.004,50.107ZM53.998,47.996L70.002,47.996C71.1,47.996 72.003,48.899 72.003,49.997C72.003,51.095 71.1,51.998 70.002,51.998L53.998,51.998C52.9,51.998 51.997,51.095 51.997,49.997C51.997,48.899 52.9,47.996 53.998,47.996ZM53.998,64.002L68.002,64.002C68.017,64.002 68.032,64.001 68.046,64.001C69.144,64.001 70.047,64.905 70.047,66.002C70.047,67.099 69.144,68.002 68.046,68.002C68.032,68.002 68.017,68.002 68.002,68.002L53.998,68.002C53.983,68.002 53.968,68.002 53.954,68.002C52.856,68.002 51.953,67.099 51.953,66.002C51.953,64.905 52.856,64.001 53.954,64.001C53.968,64.001 53.983,64.002 53.998,64.002ZM53.998,55.998L75.996,55.998C77.094,55.998 77.997,56.901 77.997,57.999C77.997,59.097 77.094,60 75.996,60L53.998,60C52.9,60 51.997,59.097 51.997,57.999C51.997,56.901 52.9,55.998 53.998,55.998Z" style="fill:white;"/>
            </g>
        </g>
    </g>
</svg>
