<?xml version="1.0" encoding="UTF-8" standalone="no"?>
<!DOCTYPE svg PUBLIC "-//W3C//DTD SVG 1.1//EN" "http://www.w3.org/Graphics/SVG/1.1/DTD/svg11.dtd">
<svg width="100%" height="100%" viewBox="0 0 50 50" version="1.1" xmlns="http://www.w3.org/2000/svg" xmlns:xlink="http://www.w3.org/1999/xlink" xml:space="preserve" xmlns:serif="http://www.serif.com/" style="fill-rule:evenodd;clip-rule:evenodd;stroke-linejoin:round;stroke-miterlimit:2;">
    <g transform="matrix(1,0,0,1,-153.831,-512.739)">
        <g transform="matrix(1,0,0,2.3871,25,-303.774)">
            <g transform="matrix(1.06383,0,0,0.445658,72.4481,301.943)">
                <path d="M99.911,111.439C99.97,112.118 100,112.805 100,113.5C100,122.16 95.315,129.727 88.342,133.803L80.755,125.056C80.52,124.786 80.168,124.657 79.816,124.704C76.53,125.162 70.663,125.396 68.938,124.094C66.368,122.146 62.8,118.262 64.22,116.173C65.934,113.638 74.089,104.896 80.825,105.506C81.177,105.541 81.553,105.377 81.776,105.083C82.538,104.051 85.144,101.234 87.068,101.821C87.197,101.856 87.303,101.927 87.397,102.138C88.03,103.487 86.916,107.348 85.93,109.66C85.707,110.2 85.953,110.822 86.481,111.045C87.021,111.279 87.643,111.021 87.866,110.493C88.054,110.035 88.558,108.803 88.993,107.325C91.135,108.469 95.729,110.729 99.911,111.439ZM75.932,110.376L75.204,110.892C74.723,111.232 74.617,111.89 74.958,112.371C75.169,112.664 75.486,112.817 75.814,112.817C76.026,112.817 76.237,112.758 76.425,112.617L77.152,112.101C77.633,111.76 77.739,111.103 77.399,110.622C77.058,110.153 76.401,110.035 75.932,110.376ZM86.43,134.805C83.414,136.213 80.049,137 76.5,137C63.521,137 53,126.479 53,113.5C53,100.521 63.521,90 76.5,90C88.01,90 97.587,98.275 99.607,109.2C95.599,108.362 91.118,106.046 89.486,105.154C89.732,103.699 89.779,102.243 89.298,101.211C88.957,100.495 88.394,99.99 87.667,99.767C84.51,98.805 81.482,102.044 80.414,103.335C72.892,103.112 64.655,111.702 62.46,114.952C59.48,119.341 66.802,125.091 67.647,125.737C70.299,127.743 77.328,127.086 79.511,126.828L86.43,134.805Z" style="fill:rgb(93,55,141);"/>
            </g>
        </g>
    </g>
</svg>
