<?xml version="1.0" encoding="UTF-8" standalone="no"?>
<!DOCTYPE svg PUBLIC "-//W3C//DTD SVG 1.1//EN" "http://www.w3.org/Graphics/SVG/1.1/DTD/svg11.dtd">
<svg width="100%" height="100%" viewBox="0 0 50 50" version="1.1" xmlns="http://www.w3.org/2000/svg" xmlns:xlink="http://www.w3.org/1999/xlink" xml:space="preserve" xmlns:serif="http://www.serif.com/" style="fill-rule:evenodd;clip-rule:evenodd;stroke-linejoin:round;stroke-miterlimit:2;">
    <g transform="matrix(1,0,0,1,-149.5,-236)">
        <g transform="matrix(1,0,0,1,25,0)">
            <g transform="matrix(1.06383,0,0,1.06383,68.1171,140.255)">
                <path d="M76.5,90C89.479,90 100,100.521 100,113.5L100,113.5C100,126.479 89.479,137 76.5,137L76.5,137C63.521,137 53,126.479 53,113.5L53,113.5C53,100.521 63.521,90 76.5,90L76.5,90Z" style="fill:rgb(93,55,141);"/>
            </g>
        </g>
        <g transform="matrix(1,0,0,1,25,0)">
            <g transform="matrix(0.621966,0,0,0.621966,118.407,230.033)">
                <g>
                    <g>
                        <g transform="matrix(1,0,0,1,1.6078,0)">
                            <path d="M8.368,53.609C8.249,52.352 8.188,51.078 8.188,49.789C8.188,49.768 8.188,49.747 8.188,49.726L11.8,52C12.5,52.5 13.5,52.3 13.9,51.6L27.7,30.1C27.9,29.7 28,29.3 27.9,28.9C27.8,28.5 27.6,28.1 27.2,27.9L18.78,22.599C19.506,21.809 20.263,21.049 21.049,20.32L28.8,25.2C29.9,25.9 30.6,27 30.9,28.2C31,29 31,29.7 30.8,30.4L33.2,31.4C34.2,31.8 35.5,31.8 36.5,31.2L37.9,30.4C40,29.3 42.3,28.9 44.6,29.2L48.1,29.7C50,27.9 52.9,27.2 55.6,28.1L59.8,29.5C62.8,30.5 65.9,30.7 69,30.2C68.9,29.5 68.9,28.9 69,28.2C69.3,26.9 70,25.9 71.1,25.2L76.953,21.515C77.726,22.296 78.467,23.108 79.174,23.95L72.9,27.9C72.5,28.1 72.3,28.5 72.2,28.9C72.1,29.3 72.2,29.7 72.4,30.1L86,51.5C86.5,52.2 87.5,52.5 88.2,52L88.53,51.792C88.472,52.956 88.366,54.107 88.212,55.242C87.945,55.282 87.672,55.3 87.4,55.3C85.9,55.3 84.5,54.6 83.6,53.4L76.4,57.8C76.2,59 75.7,60 74.9,60.9C73.8,62.1 72.3,62.8 70.7,62.8C70.2,62.8 69.8,62.8 69.3,62.7C69.2,64.2 68.6,65.5 67.6,66.5C66.2,67.9 64.1,68.5 62.2,68.1C62.1,69.5 61.5,70.8 60.5,71.8L60.4,71.9C59,73.2 57,73.8 55.1,73.4C55,74.8 54.4,76.1 53.4,77.1C52.3,78.3 50.8,78.9 49.2,78.9C47.6,78.9 46.1,78.2 45,77.1L44.9,77L42.6,74.2L41.1,75.7C40.1,76.6 38.9,77.1 37.6,77.1C36.3,77.1 35.1,76.7 34.1,75.7C33.2,74.8 32.7,73.6 32.7,72.4C31.5,72.4 30.3,71.9 29.4,71C28.5,70.1 28,68.9 28,67.7C26.8,67.7 25.6,67.2 24.7,66.3C23.8,65.4 23.3,64.2 23.3,63C22,63 20.9,62.5 20,61.6C18.2,59.8 18.1,56.9 19.7,55L16.7,53L16.6,53.2C15.7,54.6 14.2,55.4 12.6,55.4C11.8,55.4 10.9,55.2 10.1,54.7L8.368,53.609ZM72.6,58.8C73,58.3 73.3,57.6 73.7,56.8C73.7,56 73.4,55.3 72.9,54.8L72.8,54.7L68.6,49.5C65.5,45.7 61.4,42.7 56.8,40.8L54.9,40L53.6,42.1C52.4,44 50.1,44.9 47.9,44.3L47.8,44.3C45.2,43.4 43.7,40.8 44.3,38.2C44.8,36.2 45.5,34.3 46.5,32.5L44.7,32.2C43.1,32 41.4,32.3 40,33.1L38.6,33.9C36.7,34.9 34.5,35 32.5,34.2L29.8,33.1L18.8,50.3L22.4,52.7L24.4,50.7C26.3,48.8 29.4,48.8 31.3,50.7C32,51.4 32.4,52.3 32.6,53.2C32.8,53.1 33.1,53.1 33.3,53.1C34.6,53.1 35.9,53.6 36.8,54.5C37.7,55.5 38.2,56.7 38.2,58C38.2,58.2 38.1,58.5 38.1,58.7C39,58.8 39.9,59.3 40.6,60C41.5,61 42,62.2 42,63.5C42,63.7 41.9,64 41.9,64.2C42.8,64.4 43.7,64.8 44.4,65.5C46.1,67.2 46.2,69.9 44.9,71.8L47.4,74.8C48.4,75.8 50.3,75.8 51.3,74.7C51.8,74.2 52.1,73.4 52.1,72.7C52.1,72 51.9,71.3 51.4,70.8L49.4,68.8C48.8,68.2 48.8,67.2 49.4,66.6C50,66 51,66 51.6,66.6L54.4,69.4C55.5,70.5 57.3,70.5 58.4,69.4C58.4,69.3 58.5,69.3 58.5,69.3C59.5,68.2 59.5,66.5 58.4,65.4L55.4,62.4C54.8,61.8 54.8,60.8 55.4,60.2C56,59.6 57,59.6 57.6,60.2L61.5,64.1C62.6,65.2 64.4,65.2 65.5,64.1C66,63.6 66.3,62.9 66.3,62.1C66.3,61.4 66.1,60.7 65.6,60.2L61.6,56.2C61,55.6 61,54.6 61.6,54C62.2,53.4 63.2,53.4 63.8,54L67.8,58L68.4,58.7C69,59.3 69.8,59.6 70.6,59.6L70.7,59.6C71.4,59.6 72.1,59.3 72.6,58.8ZM31.6,66.4C30.9,67.1 30.9,68.2 31.6,68.8C32.2,69.5 33.3,69.5 34,68.8L38,64.8C38.3,64.5 38.5,64.1 38.5,63.6C38.5,63.2 38.3,62.7 38,62.4C37.7,62.1 37.2,61.9 36.8,61.9C36.4,61.9 35.9,62.1 35.6,62.4L31.6,66.4ZM26.9,61.7C26.3,62.4 26.3,63.5 26.9,64.1C27.5,64.8 28.6,64.8 29.3,64.1L34.1,59.3C34.4,59 34.6,58.5 34.6,58.1C34.6,57.7 34.4,57.2 34.1,56.9C33.8,56.6 33.4,56.4 32.9,56.4C32.5,56.4 32,56.6 31.7,56.9L26.9,61.7ZM54.7,36.8L57.5,38C62.6,40.1 67.1,43.4 70.6,47.7L74.8,52.8C75.2,53.3 75.6,53.9 75.9,54.5L81.9,50.9L70.6,33.2C66.7,34 62.6,33.8 58.8,32.5L54.6,31.1C52.7,30.5 50.7,31.2 49.6,32.8L49.4,33.1C48.2,34.9 47.4,36.9 46.9,39C46.7,40 47.3,41.1 48.3,41.4C49.1,41.7 49.9,41.3 50.4,40.6L52.3,37.6C52.8,36.8 53.8,36.4 54.7,36.8ZM38.8,73.5L42,70.3C42.7,69.7 42.7,68.6 42,67.9C41.7,67.6 41.3,67.4 40.8,67.4C40.4,67.4 39.9,67.6 39.6,67.9L36.4,71.1C36.1,71.4 35.9,71.8 35.9,72.3C35.9,72.7 36.1,73.2 36.4,73.5C37,74.1 38.2,74.1 38.8,73.5ZM22.2,57C21.6,57.7 21.6,58.8 22.2,59.4C22.8,60 24,60 24.6,59.4L28.6,55.4C29.3,54.8 29.3,53.7 28.6,53C28.3,52.7 27.8,52.5 27.4,52.5C27,52.5 26.5,52.7 26.2,53L22.2,57Z" style="fill:white;fill-rule:nonzero;"/>
                        </g>
                        <g transform="matrix(0.8427,-0.5383,0.5383,0.8427,-76.495,38.6654)">
                            <circle cx="88.2" cy="46.1" r="2.4" style="fill:white;"/>
                        </g>
                    </g>
                </g>
            </g>
        </g>
    </g>
</svg>
