<?xml version="1.0" encoding="UTF-8" standalone="no"?>
<!DOCTYPE svg PUBLIC "-//W3C//DTD SVG 1.1//EN" "http://www.w3.org/Graphics/SVG/1.1/DTD/svg11.dtd">
<svg width="100%" height="100%" viewBox="0 0 50 50" version="1.1" xmlns="http://www.w3.org/2000/svg" xmlns:xlink="http://www.w3.org/1999/xlink" xml:space="preserve" xmlns:serif="http://www.serif.com/" style="fill-rule:evenodd;clip-rule:evenodd;stroke-linejoin:round;stroke-miterlimit:2;">
    <g transform="matrix(1,0,0,1,-149.5,-358.5)">
        <g transform="matrix(1,0,0,1.63871,25,-139.877)">
            <g transform="matrix(1.06383,0,0,0.649187,68.1171,245.701)">
                <path d="M76.5,90C89.479,90 100,100.521 100,113.5L100,113.5C100,126.479 89.479,137 76.5,137L76.5,137C63.521,137 53,126.479 53,113.5L53,113.5C53,100.521 63.521,90 76.5,90L76.5,90Z" style="fill:rgb(93,55,141);"/>
            </g>
        </g>
        <g transform="matrix(1,0,0,1.63871,25,-139.877)">
            <g transform="matrix(0.571887,0,0,0.348986,116.191,309.847)">
                <path d="M53.976,60.23C33.626,60.524 17.996,40.008 23.812,20.377C23.993,19.727 24.542,19.245 25.21,19.149C32.064,18.167 39.002,19.438 44.971,22.733C47.268,16.314 51.599,10.782 57.386,7.025C57.951,6.659 58.677,6.66 59.239,7.025C64.995,10.757 69.317,16.257 71.629,22.649C77.583,19.371 84.488,18.1 91.303,19.059C91.97,19.154 92.52,19.633 92.703,20.281C95.611,30.548 93.164,41.466 86.157,49.487C80.153,56.373 71.571,60.215 62.565,60.215C62.55,60.215 62.535,60.215 62.521,60.214C59.441,59.993 57.083,60.022 54.009,60.229C53.998,60.23 53.987,60.23 53.976,60.23ZM47.601,25.765C44.469,36.064 48.246,48.047 56.616,54.861C56.612,47.96 56.607,41.059 56.603,34.157C56.602,33.533 56.747,32.782 57.073,32.286C57.373,31.829 57.808,31.552 58.384,31.576C58.928,31.598 59.329,31.883 59.602,32.326C59.898,32.808 60.02,33.513 60.02,34.106C60.016,41.022 60.013,47.938 60.009,54.855C73.935,43.449 73.322,21.126 58.45,10.608C58.428,10.593 58.407,10.576 58.388,10.558C58.333,10.509 58.264,10.523 58.21,10.571C58.193,10.585 58.176,10.599 58.158,10.612C52.954,14.349 49.304,19.768 47.604,25.754C47.603,25.758 47.602,25.762 47.601,25.765ZM26.592,23.367C23.123,40.51 36.46,56.688 53.719,56.836C50.824,53.984 48.269,50.798 45.727,47.623C45.721,47.616 45.716,47.609 45.71,47.601C43.825,45.025 41.434,42.712 39.84,39.969C39.811,39.919 39.789,39.865 39.775,39.808C39.605,39.134 39.843,38.335 40.443,37.981C40.859,37.736 41.303,37.733 41.737,37.9C42.208,38.081 42.67,38.494 43.007,38.896C43.264,39.204 43.522,39.511 43.779,39.818C42.838,35.347 42.881,30.668 43.923,26.219C43.929,26.196 43.935,26.173 43.944,26.15C43.959,26.108 43.975,26.059 43.932,26.041C43.909,26.031 43.886,26.02 43.864,26.007C39.627,23.564 34.746,22.263 29.857,22.233C29.051,22.228 27.957,22.088 27.183,22.33C26.981,22.394 26.853,22.423 26.782,22.506C26.728,22.569 26.726,22.656 26.703,22.771C26.67,22.932 26.639,23.126 26.592,23.364L26.592,23.367ZM68.584,50.252C68.576,50.261 68.571,50.268 68.566,50.274C66.865,52.555 65.131,54.909 62.968,56.831C80.461,56.795 94.125,39.445 89.719,22.295C83.766,21.695 77.79,22.982 72.663,25.975C73.74,30.482 73.812,35.188 72.884,39.718C73.236,39.292 73.589,38.866 73.943,38.44C74.544,37.718 75.616,37.618 76.338,38.216C77.063,38.815 77.163,39.887 76.564,40.612C76.564,40.612 70.084,48.44 68.788,50.006C68.686,50.128 68.616,50.212 68.584,50.252Z" style="fill:white;"/>
            </g>
        </g>
    </g>
</svg>
