<?xml version="1.0" encoding="UTF-8" standalone="no"?>
<!DOCTYPE svg PUBLIC "-//W3C//DTD SVG 1.1//EN" "http://www.w3.org/Graphics/SVG/1.1/DTD/svg11.dtd">
<svg width="100%" height="100%" viewBox="0 0 50 50" version="1.1" xmlns="http://www.w3.org/2000/svg" xmlns:xlink="http://www.w3.org/1999/xlink" xml:space="preserve" xmlns:serif="http://www.serif.com/" style="fill-rule:evenodd;clip-rule:evenodd;stroke-linejoin:round;stroke-miterlimit:2;">
    <g transform="matrix(1,0,0,1,-234.75,-510.484)">
        <g transform="matrix(1,0,0,2.3871,25,-303.774)">
            <g transform="matrix(1.06383,0,0,0.445658,153.367,300.999)">
                <path d="M83.724,135.869C81.449,136.603 79.022,137 76.502,137L76.498,137C66.028,137 57.158,130.153 54.12,120.692C57.877,120.362 61.644,120.457 61.706,120.46C61.747,120.459 61.794,120.459 61.84,120.454C61.996,120.438 63.393,120.285 64.437,119.807C65.867,119.149 67.032,117.504 67.032,116.138C67.032,115.268 67.102,110.574 67.102,110.573C67.104,110.453 67.071,110.295 67.033,110.181C66.393,108.323 65.746,105.725 66.028,104.518C66.397,102.94 66.99,102.403 67.108,102.392C67.396,102.394 68.535,102.768 69.454,103.902C70.643,105.371 71.886,106.761 71.938,106.819C72.265,107.186 72.801,107.272 73.228,107.032C73.246,107.022 75.01,106.039 76.951,105.95C79.38,105.836 80.893,106.81 80.902,106.815C81.283,107.076 81.793,107.054 82.151,106.759C82.787,106.237 84.637,104.768 85.56,104.247C85.886,104.062 86.213,103.843 86.535,103.626C86.932,103.359 87.686,102.866 87.888,102.89C89.926,104.023 88.127,109.717 87.537,111.587L87.398,112.027C87.369,112.122 87.353,112.219 87.351,112.317C87.338,113.043 87.236,115.127 86.935,116.034C86.8,116.437 86.699,116.868 86.596,117.326C86.376,118.296 86.147,119.296 85.438,120.392C85.175,120.8 84.906,121.244 84.627,121.706C83.728,123.197 82.708,124.886 81.454,125.884C79.734,127.253 81.151,129.648 82.088,131.234C82.29,131.577 82.48,131.895 82.616,132.167C82.857,132.648 83.07,133.46 83.295,134.32C83.431,134.838 83.569,135.363 83.724,135.869ZM81.973,123.26C82.124,122.918 81.969,122.517 81.626,122.366C81.287,122.216 80.884,122.369 80.732,122.712C80.539,123.147 80.054,123.439 79.524,123.439C78.812,123.439 78.235,122.933 78.232,122.31L79.141,121.223C79.45,120.696 79.079,120.026 78.478,120.026L76.736,120.026C76.145,120.026 75.772,120.677 76.061,121.204L76.855,122.2C76.767,122.81 76.18,123.286 75.463,123.286C74.907,123.286 74.398,122.996 74.17,122.546C74.002,122.212 73.594,122.077 73.259,122.249C72.925,122.418 72.792,122.827 72.962,123.16C73.419,124.06 74.401,124.643 75.463,124.643C76.245,124.643 76.95,124.333 77.454,123.841C77.94,124.418 78.683,124.796 79.525,124.796C80.598,124.797 81.56,124.194 81.973,123.26ZM85.013,108.849C85.218,109.034 85.677,109.651 85.677,109.651C85.844,109.802 86.112,109.711 86.152,109.49L86.597,107.07C86.658,106.735 86.3,106.48 86.004,106.648L84.204,107.669C83.989,107.792 83.955,108.09 84.139,108.257C84.14,108.256 84.834,108.685 85.013,108.849ZM68.875,106.082C68.608,105.871 68.216,106.068 68.225,106.408L68.297,108.869C68.303,109.094 68.555,109.224 68.743,109.1C68.743,109.1 69.289,108.56 69.52,108.407C69.722,108.274 70.474,107.955 70.474,107.955C70.681,107.817 70.694,107.517 70.499,107.363L68.875,106.082ZM75.403,116.92C75.403,116.92 75.763,115.205 74.744,114.344C73.742,113.499 71.631,113.971 71.631,113.971C71.631,113.971 71.754,116.1 72.849,116.625C73.945,117.152 75.403,116.92 75.403,116.92ZM82.801,117.023C83.898,116.497 84.02,114.369 84.02,114.369C84.02,114.369 81.907,113.896 80.907,114.741C79.887,115.602 80.247,117.317 80.247,117.317C80.247,117.317 81.705,117.55 82.801,117.023ZM53.566,118.651C53.195,116.994 53,115.271 53,113.502L53,113.5C53,100.521 63.521,90 76.5,90C89.479,90 100,100.521 100,113.5L100,113.502C100,123.222 94.099,131.563 85.684,135.138C85.55,134.695 85.428,134.231 85.312,133.79C85.059,132.822 84.818,131.907 84.481,131.233C84.328,130.925 84.114,130.562 83.883,130.171C83.521,129.559 82.559,127.933 82.751,127.516C84.299,126.284 85.422,124.425 86.412,122.785C86.68,122.342 86.937,121.916 87.189,121.526C88.098,120.12 88.393,118.829 88.63,117.793C88.719,117.405 88.801,117.038 88.914,116.696C89.326,115.462 89.417,113.168 89.435,112.511L89.527,112.219C90.468,109.237 92.429,103.03 88.902,101.068C87.64,100.37 86.381,101.217 85.369,101.898C85.092,102.085 84.814,102.274 84.533,102.432C83.623,102.947 82.163,104.08 81.373,104.71C80.525,104.314 78.947,103.779 76.856,103.868C75.275,103.94 73.823,104.467 72.973,104.841C72.5,104.299 71.77,103.451 71.077,102.592C69.62,100.795 67.753,100.236 66.945,100.314C65.598,100.43 64.524,101.791 63.997,104.045C63.545,105.974 64.507,109.224 65.013,110.725C65,111.598 64.946,115.367 64.946,116.139C64.946,116.531 64.408,117.524 63.567,117.911C62.985,118.178 62.069,118.327 61.691,118.372C61.074,118.355 57.32,118.285 53.566,118.651Z" style="fill:rgb(93,55,141);"/>
            </g>
        </g>
    </g>
</svg>
