<?xml version="1.0" encoding="UTF-8" standalone="no"?>
<!DOCTYPE svg PUBLIC "-//W3C//DTD SVG 1.1//EN" "http://www.w3.org/Graphics/SVG/1.1/DTD/svg11.dtd">
<svg width="100%" height="100%" viewBox="0 0 1155 470" version="1.1" xmlns="http://www.w3.org/2000/svg" xmlns:xlink="http://www.w3.org/1999/xlink" xml:space="preserve" xmlns:serif="http://www.serif.com/" style="fill-rule:evenodd;clip-rule:evenodd;stroke-linejoin:round;stroke-miterlimit:2;">
    <g transform="matrix(1,0,0,1,-6443.15,-924.58)">
        <g transform="matrix(1,0,0,1,5648,5057.61)">
            <path d="M799.79,-3874.64L851.07,-3874.64L857,-3801.71L857.52,-3801.71L863.7,-3874.64L919.36,-3874.64L919.36,-3696.83L884.06,-3696.83L884.06,-3844.49L883.54,-3844.49L870.4,-3696.83L843.6,-3696.83L830.46,-3844.49L829.94,-3844.49L829.94,-3696.83L799.79,-3696.83L799.79,-3874.64Z" style="fill:rgb(252,227,0);fill-rule:nonzero;"/>
            <path d="M928.64,-3874.64L997.7,-3874.64L997.7,-3845.26L964.46,-3845.26L964.46,-3807.12L993.06,-3807.12L993.06,-3777.74L964.46,-3777.74L964.46,-3726.2L997.7,-3726.2L997.7,-3696.82L928.64,-3696.82L928.64,-3874.64Z" style="fill:rgb(252,227,0);fill-rule:nonzero;"/>
            <path d="M1003.37,-3874.64L1043.57,-3874.64C1070.11,-3874.64 1083.51,-3860.98 1083.51,-3834.44L1083.51,-3737.03C1083.51,-3710.49 1070.11,-3696.83 1043.57,-3696.83L1003.37,-3696.83L1003.37,-3874.64ZM1040.48,-3726.21C1046.41,-3726.21 1047.7,-3728.27 1047.7,-3736.78L1047.7,-3834.7C1047.7,-3843.2 1046.41,-3845.27 1040.48,-3845.27L1039.19,-3845.27L1039.19,-3726.21L1040.48,-3726.21Z" style="fill:rgb(252,227,0);fill-rule:nonzero;"/>
            <rect x="1091.24" y="-3874.64" width="35.82" height="177.81" style="fill:rgb(252,227,0);fill-rule:nonzero;"/>
            <path d="M1135.05,-3733.94L1135.05,-3837.53C1135.05,-3862.01 1149.74,-3877.22 1173.7,-3877.22C1198.44,-3877.22 1213.39,-3862.02 1213.39,-3837.53L1213.39,-3807.64L1178.34,-3807.64L1178.34,-3840.63C1178.34,-3845.53 1177.31,-3847.33 1174.73,-3847.33C1171.64,-3847.33 1170.86,-3845.53 1170.86,-3840.63L1170.86,-3730.85C1170.86,-3725.95 1171.63,-3724.15 1174.73,-3724.15C1177.31,-3724.15 1178.34,-3725.95 1178.34,-3730.85L1178.34,-3771.31L1213.39,-3771.31L1213.39,-3733.94C1213.39,-3709.46 1198.44,-3694.25 1173.7,-3694.25C1149.74,-3694.25 1135.05,-3709.45 1135.05,-3733.94Z" style="fill:rgb(252,227,0);fill-rule:nonzero;"/>
            <rect x="1219.83" y="-3874.64" width="35.82" height="177.81" style="fill:rgb(252,227,0);fill-rule:nonzero;"/>
            <path d="M1264.92,-3874.64L1308.21,-3874.64L1320.58,-3780.07L1321.1,-3780.07L1321.1,-3874.64L1350.99,-3874.64L1350.99,-3696.83L1309.76,-3696.83L1295.33,-3807.12L1294.81,-3807.12L1294.81,-3696.83L1264.92,-3696.83L1264.92,-3874.64Z" style="fill:rgb(252,227,0);fill-rule:nonzero;"/>
            <path d="M1372.9,-3874.64L1423.41,-3874.64L1440.93,-3696.83L1404.59,-3696.83L1402.79,-3729.3L1391.45,-3729.3L1389.65,-3696.83L1355.38,-3696.83L1372.9,-3874.64ZM1401.76,-3758.67L1397.38,-3845.26L1396.86,-3845.26L1392.48,-3758.67L1401.76,-3758.67Z" style="fill:rgb(252,227,0);fill-rule:nonzero;"/>
            <path d="M1480.86,-3874.64L1549.92,-3874.64L1549.92,-3845.26L1516.68,-3845.26L1516.68,-3807.12L1545.28,-3807.12L1545.28,-3777.74L1516.68,-3777.74L1516.68,-3726.2L1549.92,-3726.2L1549.92,-3696.82L1480.86,-3696.82L1480.86,-3874.64Z" style="fill:rgb(252,227,0);fill-rule:nonzero;"/>
            <path d="M1582.39,-3695.28L1582.39,-3695.54C1565.12,-3700.18 1554.3,-3714.09 1554.3,-3735.48L1554.3,-3835.98C1554.3,-3861.49 1570.02,-3877.21 1594.5,-3877.21C1619.24,-3877.21 1634.44,-3861.49 1634.44,-3835.98L1634.44,-3735.48C1634.44,-3718.73 1628,-3706.1 1616.4,-3699.4L1616.4,-3693.22C1616.4,-3690.64 1618.2,-3689.1 1620.78,-3689.1L1634.44,-3689.1L1634.44,-3663.85L1615.11,-3663.85C1593.22,-3663.84 1582.39,-3673.89 1582.39,-3695.28ZM1598.63,-3731.62L1598.63,-3839.85C1598.63,-3845.26 1597.6,-3847.32 1594.51,-3847.32C1591.16,-3847.32 1590.13,-3845.26 1590.13,-3839.85L1590.13,-3731.62C1590.13,-3726.21 1591.16,-3724.15 1594.51,-3724.15C1597.6,-3724.14 1598.63,-3726.21 1598.63,-3731.62Z" style="fill:rgb(252,227,0);fill-rule:nonzero;"/>
            <path d="M1641.66,-3733.94L1641.66,-3874.64L1677.48,-3874.64L1677.48,-3731.1C1677.48,-3725.95 1678.51,-3724.14 1681.6,-3724.14C1684.43,-3724.14 1685.21,-3725.94 1685.21,-3731.1L1685.21,-3874.64L1720.51,-3874.64L1720.51,-3733.94C1720.51,-3709.72 1704.79,-3694.25 1681.08,-3694.25C1657.37,-3694.25 1641.66,-3709.71 1641.66,-3733.94Z" style="fill:rgb(252,227,0);fill-rule:nonzero;"/>
            <rect x="1729.02" y="-3874.64" width="35.82" height="177.81" style="fill:rgb(252,227,0);fill-rule:nonzero;"/>
            <path d="M1774.11,-3874.64L1817.4,-3874.64L1829.77,-3780.07L1830.29,-3780.07L1830.29,-3874.64L1860.18,-3874.64L1860.18,-3696.83L1818.95,-3696.83L1804.52,-3807.12L1804,-3807.12L1804,-3696.83L1774.11,-3696.83L1774.11,-3874.64Z" style="fill:rgb(252,227,0);fill-rule:nonzero;"/>
            <path d="M1882.09,-3874.64L1932.6,-3874.64L1950.12,-3696.83L1913.78,-3696.83L1911.98,-3729.3L1900.64,-3729.3L1898.84,-3696.83L1864.57,-3696.83L1882.09,-3874.64ZM1910.95,-3758.67L1906.57,-3845.26L1906.05,-3845.26L1901.67,-3758.67L1910.95,-3758.67Z" style="fill:rgb(252,227,0);fill-rule:nonzero;"/>
        </g>
        <g transform="matrix(1,0,0,1,5648,5057.61)">
            <path d="M799.79,-3874.64L851.07,-3874.64L857,-3801.71L857.52,-3801.71L863.7,-3874.64L919.36,-3874.64L919.36,-3696.83L884.06,-3696.83L884.06,-3844.49L883.54,-3844.49L870.4,-3696.83L843.6,-3696.83L830.46,-3844.49L829.94,-3844.49L829.94,-3696.83L799.79,-3696.83L799.79,-3874.64Z" style="fill:rgb(252,227,0);fill-rule:nonzero;"/>
            <path d="M928.64,-3874.64L997.7,-3874.64L997.7,-3845.26L964.46,-3845.26L964.46,-3807.12L993.06,-3807.12L993.06,-3777.74L964.46,-3777.74L964.46,-3726.2L997.7,-3726.2L997.7,-3696.82L928.64,-3696.82L928.64,-3874.64Z" style="fill:rgb(252,227,0);fill-rule:nonzero;"/>
            <path d="M1003.37,-3874.64L1043.57,-3874.64C1070.11,-3874.64 1083.51,-3860.98 1083.51,-3834.44L1083.51,-3737.03C1083.51,-3710.49 1070.11,-3696.83 1043.57,-3696.83L1003.37,-3696.83L1003.37,-3874.64ZM1040.48,-3726.21C1046.41,-3726.21 1047.7,-3728.27 1047.7,-3736.78L1047.7,-3834.7C1047.7,-3843.2 1046.41,-3845.27 1040.48,-3845.27L1039.19,-3845.27L1039.19,-3726.21L1040.48,-3726.21Z" style="fill:rgb(252,227,0);fill-rule:nonzero;"/>
            <rect x="1091.24" y="-3874.64" width="35.82" height="177.81" style="fill:rgb(252,227,0);fill-rule:nonzero;"/>
            <path d="M1135.05,-3733.94L1135.05,-3837.53C1135.05,-3862.01 1149.74,-3877.22 1173.7,-3877.22C1198.44,-3877.22 1213.39,-3862.02 1213.39,-3837.53L1213.39,-3807.64L1178.34,-3807.64L1178.34,-3840.63C1178.34,-3845.53 1177.31,-3847.33 1174.73,-3847.33C1171.64,-3847.33 1170.86,-3845.53 1170.86,-3840.63L1170.86,-3730.85C1170.86,-3725.95 1171.63,-3724.15 1174.73,-3724.15C1177.31,-3724.15 1178.34,-3725.95 1178.34,-3730.85L1178.34,-3771.31L1213.39,-3771.31L1213.39,-3733.94C1213.39,-3709.46 1198.44,-3694.25 1173.7,-3694.25C1149.74,-3694.25 1135.05,-3709.45 1135.05,-3733.94Z" style="fill:rgb(252,227,0);fill-rule:nonzero;"/>
            <rect x="1219.83" y="-3874.64" width="35.82" height="177.81" style="fill:rgb(252,227,0);fill-rule:nonzero;"/>
            <path d="M1264.92,-3874.64L1308.21,-3874.64L1320.58,-3780.07L1321.1,-3780.07L1321.1,-3874.64L1350.99,-3874.64L1350.99,-3696.83L1309.76,-3696.83L1295.33,-3807.12L1294.81,-3807.12L1294.81,-3696.83L1264.92,-3696.83L1264.92,-3874.64Z" style="fill:rgb(252,227,0);fill-rule:nonzero;"/>
            <path d="M1372.9,-3874.64L1423.41,-3874.64L1440.93,-3696.83L1404.59,-3696.83L1402.79,-3729.3L1391.45,-3729.3L1389.65,-3696.83L1355.38,-3696.83L1372.9,-3874.64ZM1401.76,-3758.67L1397.38,-3845.26L1396.86,-3845.26L1392.48,-3758.67L1401.76,-3758.67Z" style="fill:rgb(252,227,0);fill-rule:nonzero;"/>
        </g>
        <g transform="matrix(1,0,0,1,5648,5057.61)">
            <path d="M1421.49,-3921.02L1429.22,-3947.76L1461.67,-3947.76C1463,-3947.78 1464.14,-3948.67 1464.52,-3949.89L1468.24,-3962.18L1434.41,-3962.13C1434.41,-3962.13 1433.76,-3962.21 1433.47,-3961.69C1433.38,-3961.52 1432.94,-3960.73 1432.94,-3960.73C1432.94,-3960.73 1436.63,-3973.45 1441.95,-3973.45L1469.39,-3973.45C1470.73,-3973.45 1471.86,-3974.33 1472.25,-3975.54L1476.84,-3991.08L1443.34,-3991.13C1432.48,-3990.34 1424.55,-3981.32 1419.55,-3964.08L1406.24,-3918.83L1418.61,-3918.83C1419.97,-3918.83 1421.13,-3919.76 1421.49,-3921.02Z" style="fill:white;fill-rule:nonzero;"/>
            <path d="M1522.29,-3920.57L1505.44,-3991.07C1504.89,-3991.06 1496.53,-3991.07 1495.47,-3991.07C1493.36,-3991.07 1492.61,-3990.07 1492.15,-3989.16L1461.22,-3918.82L1473.35,-3918.82C1475.75,-3918.82 1476.17,-3919.87 1476.54,-3920.69L1483.62,-3936.67L1502.72,-3936.75C1505,-3936.75 1505.63,-3935.17 1505.63,-3935.17L1509.49,-3918.81L1519.7,-3918.81C1519.68,-3918.83 1522.71,-3918.83 1522.29,-3920.57ZM1501.01,-3946.84L1489.41,-3946.84C1489.41,-3946.84 1488.9,-3946.82 1488.77,-3946.82C1488.25,-3946.82 1487.68,-3945.89 1487.68,-3945.89L1497.71,-3968.83L1502.61,-3948.14C1502.61,-3948.08 1502.86,-3946.84 1501.01,-3946.84Z" style="fill:white;fill-rule:nonzero;"/>
            <path d="M1591.87,-3991.08C1588.82,-3991.08 1587.21,-3991.08 1585.69,-3987.72L1566.06,-3944.53C1566.06,-3944.53 1565.8,-3943.98 1565.73,-3943.81C1565.34,-3942.87 1565.51,-3941.58 1565.51,-3941.58L1553.09,-3991.07L1541.33,-3991.07C1538.15,-3991.07 1535.83,-3991.07 1535.54,-3987.33L1528.51,-3918.82C1530.03,-3918.87 1536.51,-3918.82 1536.51,-3918.82C1541.99,-3918.82 1541.99,-3918.82 1542.35,-3922.52L1546.48,-3963.18L1557.32,-3919.8C1561.8,-3919.79 1557.73,-3919.79 1561.8,-3919.79L1564.04,-3919.79C1568.42,-3919.8 1568.42,-3919.8 1569.78,-3922.71L1587.97,-3962.88L1583.45,-3918.81L1591.86,-3918.81C1596.85,-3918.81 1596.85,-3918.81 1597.31,-3922.56L1604.34,-3991.07C1598.92,-3991.08 1591.87,-3991.08 1591.87,-3991.08Z" style="fill:white;fill-rule:nonzero;"/>
            <path d="M802.14,-4011.65L802.14,-4103.02L841.82,-4103.02C864.92,-4103.02 878.5,-4090.88 878.5,-4071.04C878.5,-4051.46 864.93,-4039.71 841.82,-4039.71L828.25,-4039.71L828.25,-4011.65L802.14,-4011.65ZM828.24,-4059.94L839.6,-4059.94C847.17,-4059.94 852.39,-4063.73 852.39,-4071.03C852.39,-4078.34 847.17,-4082.12 839.6,-4082.12L828.24,-4082.12L828.24,-4059.94Z" style="fill:rgb(252,227,0);fill-rule:nonzero;"/>
            <path d="M886.06,-4057.33C886.06,-4085.26 903.16,-4104.32 931.74,-4104.32C960.32,-4104.32 977.42,-4085.39 977.42,-4057.33C977.42,-4029.27 960.32,-4010.34 931.74,-4010.34C903.16,-4010.34 886.06,-4029.4 886.06,-4057.33ZM951.32,-4057.33C951.32,-4073.38 943.62,-4082.78 931.74,-4082.78C919.86,-4082.78 912.16,-4073.38 912.16,-4057.33C912.16,-4041.28 919.86,-4031.88 931.74,-4031.88C943.62,-4031.88 951.32,-4041.28 951.32,-4057.33ZM922.22,-4110.84L931.62,-4133.03L959.94,-4133.03L941.41,-4110.84L922.22,-4110.84Z" style="fill:rgb(252,227,0);fill-rule:nonzero;"/>
            <path d="M986.3,-4035.14L1011.1,-4040.1C1013.97,-4032.4 1020.37,-4029.53 1027.55,-4029.53C1034.99,-4029.53 1039.3,-4032.53 1039.3,-4037.36C1039.3,-4052.63 988.4,-4040.36 988.4,-4077.95C988.4,-4092.83 1001.58,-4104.32 1024.95,-4104.32C1044.92,-4104.32 1059.15,-4096.88 1063.58,-4080.83L1038.26,-4075.87C1036.43,-4082.27 1031.73,-4085.14 1025.08,-4085.14C1019.21,-4085.14 1015.03,-4082.14 1015.03,-4077.96C1015.03,-4062.56 1065.93,-4075.22 1065.93,-4036.85C1065.93,-4021.71 1052.75,-4010.35 1027.56,-4010.35C1008.23,-4010.34 990.61,-4017.91 986.3,-4035.14Z" style="fill:rgb(252,227,0);fill-rule:nonzero;"/>
            <rect x="1073.36" y="-4057.33" width="46.34" height="18.27" style="fill:rgb(252,227,0);fill-rule:nonzero;"/>
            <path d="M795.15,-3954.88C795.15,-3976.28 807.99,-3990.72 826.51,-3990.72C839.05,-3990.72 849.41,-3984.95 854.48,-3972.1L846.12,-3969.01C842.24,-3978.77 835.57,-3983.05 826.51,-3983.05C813.17,-3983.05 804.11,-3972.4 804.11,-3954.88C804.11,-3937.36 812.87,-3926.71 827.7,-3926.71C834.67,-3926.71 840.94,-3929.7 844.92,-3934.08L844.92,-3948.61L828.19,-3949.41L828.19,-3956.58L853.87,-3956.58L853.87,-3931.29C847.9,-3923.13 838.34,-3919.04 827.69,-3919.04C808,-3919.04 795.15,-3933.47 795.15,-3954.88Z" style="fill:white;fill-rule:nonzero;"/>
            <path d="M868.62,-3920.03L868.62,-3989.72L895.5,-3989.72C909.44,-3989.72 918.4,-3981.86 918.4,-3968.51C918.4,-3958.26 912.82,-3951.29 903.67,-3948.8L919.4,-3920.03L909.25,-3920.03L894.81,-3947.81L877.59,-3947.81L877.59,-3920.03L868.62,-3920.03ZM877.58,-3955.38L895.1,-3955.38C903.86,-3955.38 909.44,-3960.16 909.44,-3968.52C909.44,-3976.78 903.87,-3981.76 895.1,-3981.76L877.58,-3981.76L877.58,-3955.38Z" style="fill:white;fill-rule:nonzero;"/>
            <path d="M978.63,-3920.03L973.05,-3935.96L940.5,-3935.96L934.92,-3920.03L925.76,-3920.03L950.75,-3989.72L963.09,-3989.72L988.18,-3920.03L978.63,-3920.03ZM943.09,-3943.43L970.47,-3943.43L957.03,-3981.96L956.53,-3981.96L943.09,-3943.43Z" style="fill:white;fill-rule:nonzero;"/>
            <path d="M997.55,-3920.03L997.55,-3989.72L1019.85,-3989.72C1039.66,-3989.72 1052.8,-3975.78 1052.8,-3954.88C1052.8,-3933.98 1039.66,-3920.04 1019.85,-3920.04L997.55,-3920.04L997.55,-3920.03ZM1006.51,-3928L1019.85,-3928C1034.38,-3928 1043.84,-3938.15 1043.84,-3954.88C1043.84,-3971.6 1034.38,-3981.76 1019.85,-3981.76L1006.51,-3981.76L1006.51,-3928Z" style="fill:white;fill-rule:nonzero;"/>
            <path d="M1065.44,-3948.01L1065.44,-3989.72L1074.4,-3989.72L1074.4,-3948.01C1074.4,-3932.58 1083.06,-3927 1092.62,-3927C1102.18,-3927 1110.74,-3932.58 1110.74,-3948.01L1110.74,-3989.72L1119.7,-3989.72L1119.7,-3948.01C1119.7,-3928.2 1107.45,-3919.04 1092.62,-3919.04C1077.79,-3919.04 1065.44,-3928.2 1065.44,-3948.01Z" style="fill:white;fill-rule:nonzero;"/>
            <path d="M1181.42,-3920.03L1175.84,-3935.96L1143.29,-3935.96L1137.71,-3920.03L1128.55,-3920.03L1153.54,-3989.72L1165.88,-3989.72L1190.97,-3920.03L1181.42,-3920.03ZM1145.88,-3943.43L1173.26,-3943.43L1159.82,-3981.96L1159.32,-3981.96L1145.88,-3943.43Z" style="fill:white;fill-rule:nonzero;"/>
            <path d="M1255.99,-3939.35C1251.61,-3925.91 1241.85,-3919.84 1230.21,-3919.14L1229.02,-3915.56L1229.62,-3915.56C1235.1,-3915.56 1239.58,-3912.47 1239.58,-3906.7C1239.58,-3901.22 1235.3,-3897.14 1227.34,-3897.14C1222.76,-3897.14 1219.18,-3898.33 1216.29,-3900.52L1219.58,-3905.7C1221.97,-3904.01 1224.66,-3903.11 1227.35,-3903.11C1230.44,-3903.11 1232.63,-3904.5 1232.63,-3906.89C1232.63,-3909.48 1230.54,-3910.57 1227.95,-3910.57C1226.46,-3910.57 1225.46,-3910.37 1224.07,-3909.97L1222.58,-3912.16L1224.97,-3919.13C1208.34,-3920.62 1196.7,-3934.56 1196.7,-3954.87C1196.7,-3976.27 1209.64,-3990.71 1227.86,-3990.71C1240.3,-3990.71 1251.06,-3984.54 1255.54,-3970.4L1247.08,-3967.31C1243.4,-3978.06 1236.83,-3982.74 1227.87,-3982.74C1214.53,-3982.74 1205.67,-3972.29 1205.67,-3954.87C1205.67,-3937.45 1214.53,-3926.99 1227.87,-3926.99C1237.03,-3926.99 1243.7,-3931.47 1247.58,-3942.42L1255.99,-3939.35Z" style="fill:white;fill-rule:nonzero;"/>
            <path d="M1314.73,-3920.03L1309.15,-3935.96L1276.6,-3935.96L1271.02,-3920.03L1261.86,-3920.03L1286.85,-3989.72L1299.19,-3989.72L1324.28,-3920.03L1314.73,-3920.03ZM1284.36,-3996.19L1278.09,-3996.19L1278.09,-3999.08C1278.09,-4007.44 1282.37,-4010.13 1286.15,-4010.13C1292.22,-4010.13 1295.41,-4003.66 1298.79,-4003.66C1300.78,-4003.66 1301.68,-4006.05 1301.68,-4010.13L1307.95,-4010.13L1307.95,-4007.04C1307.95,-3998.38 1303.67,-3996.19 1299.89,-3996.19C1293.72,-3996.19 1290.63,-4002.66 1287.25,-4002.66C1285.56,-4002.66 1284.36,-4001.17 1284.36,-3996.19ZM1279.19,-3943.43L1306.57,-3943.43L1293.13,-3981.96L1292.63,-3981.96L1279.19,-3943.43Z" style="fill:white;fill-rule:nonzero;"/>
            <path d="M1329.96,-3954.88C1329.96,-3976.28 1342.9,-3990.72 1361.12,-3990.72C1379.34,-3990.72 1392.18,-3976.38 1392.18,-3954.88C1392.18,-3933.38 1379.34,-3919.04 1361.12,-3919.04C1342.9,-3919.04 1329.96,-3933.47 1329.96,-3954.88ZM1383.22,-3954.88C1383.22,-3972.3 1374.46,-3982.75 1361.12,-3982.75C1347.78,-3982.75 1338.92,-3972.3 1338.92,-3954.88C1338.92,-3937.46 1347.78,-3927 1361.12,-3927C1374.46,-3927 1383.22,-3937.46 1383.22,-3954.88Z" style="fill:white;fill-rule:nonzero;"/>
        </g>
    </g>
</svg>
