<?xml version="1.0" encoding="UTF-8" standalone="no"?>
<!DOCTYPE svg PUBLIC "-//W3C//DTD SVG 1.1//EN" "http://www.w3.org/Graphics/SVG/1.1/DTD/svg11.dtd">
<svg width="100%" height="100%" viewBox="0 0 2151 1191" version="1.1" xmlns="http://www.w3.org/2000/svg" xmlns:xlink="http://www.w3.org/1999/xlink" xml:space="preserve" xmlns:serif="http://www.serif.com/" style="fill-rule:evenodd;clip-rule:evenodd;stroke-linejoin:round;stroke-miterlimit:2;">
    <g transform="matrix(1,0,0,1,-15469,-10608.8)">
        <g transform="matrix(1,0,0,1,10261,4802)">
            <path d="M5217.03,6308.19L5295.03,6308.19C5346.53,6308.19 5372.53,6334.69 5372.53,6386.19L5372.53,6430.19C5372.53,6481.69 5346.53,6508.19 5295.03,6508.19L5286.53,6508.19L5286.53,6653.19L5217.03,6653.19L5217.03,6308.19ZM5289.03,6451.19C5300.53,6451.19 5303.03,6446.69 5303.03,6430.19L5303.03,6385.69C5303.03,6369.19 5300.53,6365.19 5289.03,6365.19L5286.53,6365.19L5286.53,6451.19L5289.03,6451.19Z" style="fill:rgb(252,227,0);fill-rule:nonzero;"/>
            <path d="M5380.02,6579.19L5380.02,6524.19L5448.02,6524.19L5448.02,6585.69C5448.02,6596.19 5450.52,6600.19 5457.02,6600.19C5463.02,6600.19 5465.02,6596.19 5465.02,6585.69L5465.02,6535.69C5465.02,6525.69 5461.02,6517.69 5451.52,6511.69L5423.02,6492.19C5393.02,6472.19 5380.02,6449.69 5380.02,6414.19L5380.02,6380.19C5380.02,6332.69 5408.52,6303.19 5454.52,6303.19C5502.02,6303.19 5531.02,6332.69 5531.02,6380.19L5531.02,6422.69L5463.02,6422.69L5463.02,6373.19C5463.02,6364.69 5461.02,6361.19 5456.52,6361.19C5451.02,6361.19 5449.52,6364.69 5449.52,6373.19L5449.52,6412.19C5449.52,6422.19 5453.52,6430.19 5463.02,6436.19L5492.02,6455.69C5521.52,6475.69 5534.52,6498.19 5534.52,6533.69L5534.52,6579.19C5534.52,6628.19 5506.52,6658.19 5457.52,6658.19C5409.02,6658.19 5380.02,6628.19 5380.02,6579.19Z" style="fill:rgb(252,227,0);fill-rule:nonzero;"/>
            <rect x="5546.02" y="6308.19" width="69.5" height="345" style="fill:rgb(252,227,0);fill-rule:nonzero;"/>
            <path d="M5631.01,6581.19L5631.01,6380.19C5631.01,6332.69 5659.51,6303.19 5706.01,6303.19C5754.01,6303.19 5783.01,6332.69 5783.01,6380.19L5783.01,6438.19L5715.01,6438.19L5715.01,6374.19C5715.01,6364.69 5713.01,6361.19 5708.01,6361.19C5702.01,6361.19 5700.51,6364.69 5700.51,6374.19L5700.51,6587.19C5700.51,6596.69 5702.01,6600.19 5708.01,6600.19C5713.01,6600.19 5715.01,6596.69 5715.01,6587.19L5715.01,6508.69L5783.01,6508.69L5783.01,6581.19C5783.01,6628.69 5754.01,6658.19 5706.01,6658.19C5659.51,6658.19 5631.01,6628.69 5631.01,6581.19Z" style="fill:rgb(252,227,0);fill-rule:nonzero;"/>
            <path d="M5793.01,6578.19L5793.01,6383.19C5793.01,6333.69 5823.51,6303.19 5871.01,6303.19C5919.01,6303.19 5948.51,6333.69 5948.51,6383.19L5948.51,6578.19C5948.51,6627.69 5919.01,6658.19 5871.01,6658.19C5823.51,6658.19 5793.01,6627.69 5793.01,6578.19ZM5879.01,6585.69L5879.01,6375.69C5879.01,6365.19 5877.01,6361.19 5871.01,6361.19C5864.51,6361.19 5862.51,6365.19 5862.51,6375.69L5862.51,6585.69C5862.51,6596.19 5864.51,6600.19 5871.01,6600.19C5877.01,6600.19 5879.01,6596.19 5879.01,6585.69Z" style="fill:rgb(252,227,0);fill-rule:nonzero;"/>
            <path d="M5964,6308.19L6042,6308.19C6093.5,6308.19 6119.5,6334.69 6119.5,6386.19L6119.5,6430.19C6119.5,6481.69 6093.5,6508.19 6042,6508.19L6033.5,6508.19L6033.5,6653.19L5964,6653.19L5964,6308.19ZM6036,6451.19C6047.5,6451.19 6050,6446.69 6050,6430.19L6050,6385.69C6050,6369.19 6047.5,6365.19 6036,6365.19L6033.5,6365.19L6033.5,6451.19L6036,6451.19Z" style="fill:rgb(252,227,0);fill-rule:nonzero;"/>
            <path d="M6129,6308.19L6263,6308.19L6263,6365.19L6198.5,6365.19L6198.5,6439.19L6254,6439.19L6254,6496.19L6198.5,6496.19L6198.5,6596.19L6263,6596.19L6263,6653.19L6129,6653.19L6129,6308.19Z" style="fill:rgb(252,227,0);fill-rule:nonzero;"/>
            <path d="M6273.99,6308.19L6351.99,6308.19C6403.49,6308.19 6429.49,6334.69 6429.49,6386.19L6429.49,6575.19C6429.49,6626.69 6403.49,6653.19 6351.99,6653.19L6273.99,6653.19L6273.99,6308.19ZM6345.99,6596.19C6357.49,6596.19 6359.99,6592.19 6359.99,6575.69L6359.99,6385.69C6359.99,6369.19 6357.49,6365.19 6345.99,6365.19L6343.49,6365.19L6343.49,6596.19L6345.99,6596.19Z" style="fill:rgb(252,227,0);fill-rule:nonzero;"/>
            <path d="M6467.99,6308.19L6565.99,6308.19L6599.99,6653.19L6529.49,6653.19L6525.99,6590.19L6503.99,6590.19L6500.49,6653.19L6433.99,6653.19L6467.99,6308.19ZM6523.99,6533.19L6515.49,6365.19L6514.49,6365.19L6505.99,6533.19L6523.99,6533.19Z" style="fill:rgb(252,227,0);fill-rule:nonzero;"/>
            <path d="M6605.48,6594.69L6605.48,6382.69C6605.48,6333.69 6635.98,6303.19 6682.98,6303.19C6729.98,6303.19 6759.48,6333.69 6759.48,6382.69L6759.48,6420.69L6691.48,6420.69L6691.48,6375.69C6691.48,6365.19 6689.48,6361.19 6683.48,6361.19C6676.98,6361.19 6674.98,6365.19 6674.98,6375.69L6674.98,6590.69C6674.98,6596.19 6676.48,6600.19 6682.48,6600.19C6690.48,6600.19 6692.48,6594.19 6692.48,6577.19L6692.48,6511.19L6683.98,6511.19L6683.98,6453.69L6760.48,6453.69L6760.48,6653.19L6700.98,6653.19L6700.98,6627.69L6698.98,6627.69C6691.48,6648.19 6676.98,6658.19 6654.48,6658.19C6623.48,6658.19 6605.48,6634.19 6605.48,6594.69Z" style="fill:rgb(252,227,0);fill-rule:nonzero;"/>
            <path d="M6773.98,6578.19L6773.98,6383.19C6773.98,6333.69 6804.48,6303.19 6851.98,6303.19C6899.98,6303.19 6929.48,6333.69 6929.48,6383.19L6929.48,6578.19C6929.48,6627.69 6899.98,6658.19 6851.98,6658.19C6804.48,6658.19 6773.98,6627.69 6773.98,6578.19ZM6859.98,6585.69L6859.98,6375.69C6859.98,6365.19 6857.98,6361.19 6851.98,6361.19C6845.48,6361.19 6843.48,6365.19 6843.48,6375.69L6843.48,6585.69C6843.48,6596.19 6845.48,6600.19 6851.98,6600.19C6857.98,6600.19 6859.98,6596.19 6859.98,6585.69Z" style="fill:rgb(252,227,0);fill-rule:nonzero;"/>
            <path d="M6942.97,6594.69L6942.97,6382.69C6942.97,6333.69 6973.47,6303.19 7020.47,6303.19C7067.47,6303.19 7096.97,6333.69 7096.97,6382.69L7096.97,6420.69L7028.97,6420.69L7028.97,6375.69C7028.97,6365.19 7026.97,6361.19 7020.97,6361.19C7014.47,6361.19 7012.47,6365.19 7012.47,6375.69L7012.47,6590.69C7012.47,6596.19 7013.97,6600.19 7019.97,6600.19C7027.97,6600.19 7029.97,6594.19 7029.97,6577.19L7029.97,6511.19L7021.47,6511.19L7021.47,6453.69L7097.97,6453.69L7097.97,6653.19L7038.47,6653.19L7038.47,6627.69L7036.47,6627.69C7028.97,6648.19 7014.47,6658.19 6991.97,6658.19C6960.97,6658.19 6942.97,6634.19 6942.97,6594.69Z" style="fill:rgb(252,227,0);fill-rule:nonzero;"/>
            <rect x="7113.97" y="6308.19" width="69.5" height="345" style="fill:rgb(252,227,0);fill-rule:nonzero;"/>
            <path d="M7225.97,6308.19L7323.97,6308.19L7357.97,6653.19L7287.47,6653.19L7283.97,6590.19L7261.97,6590.19L7258.47,6653.19L7191.97,6653.19L7225.97,6308.19ZM7281.97,6533.19L7273.47,6365.19L7272.47,6365.19L7263.97,6533.19L7281.97,6533.19Z" style="fill:rgb(252,227,0);fill-rule:nonzero;"/>
        </g>
        <g transform="matrix(1,0,0,1,10261,4802)">
            <path d="M5215.24,6716.97L5322.51,6716.97L5322.51,6762.6L5270.88,6762.6L5270.88,6821.84L5315.31,6821.84L5315.31,6867.47L5270.88,6867.47L5270.88,6947.52L5322.51,6947.52L5322.51,6993.15L5215.24,6993.15L5215.24,6716.97Z" style="fill:white;fill-rule:nonzero;"/>
        </g>
        <g transform="matrix(1,0,0,1,10261,4802)">
            <path d="M5386.54,6716.97L5448.98,6716.97C5490.21,6716.97 5511.02,6738.18 5511.02,6779.41L5511.02,6814.63C5511.02,6855.86 5490.21,6877.07 5448.98,6877.07L5442.18,6877.07L5442.18,6993.15L5386.54,6993.15L5386.54,6716.97ZM5444.18,6831.45C5453.39,6831.45 5455.39,6827.85 5455.39,6814.64L5455.39,6779.02C5455.39,6765.81 5453.39,6762.61 5444.18,6762.61L5442.18,6762.61L5442.18,6831.46L5444.18,6831.46L5444.18,6831.45Z" style="fill:white;fill-rule:nonzero;"/>
        </g>
        <g transform="matrix(1,0,0,1,10261,4802)">
            <path d="M5517.02,6933.92L5517.02,6889.89L5571.46,6889.89L5571.46,6939.12C5571.46,6947.53 5573.46,6950.73 5578.66,6950.73C5583.46,6950.73 5585.06,6947.53 5585.06,6939.12L5585.06,6899.09C5585.06,6891.09 5581.86,6884.68 5574.25,6879.88L5551.43,6864.27C5527.41,6848.26 5517.01,6830.25 5517.01,6801.83L5517.01,6774.61C5517.01,6736.58 5539.82,6712.97 5576.65,6712.97C5614.68,6712.97 5637.89,6736.59 5637.89,6774.61L5637.89,6808.63L5583.45,6808.63L5583.45,6769C5583.45,6762.2 5581.85,6759.39 5578.25,6759.39C5573.85,6759.39 5572.65,6762.19 5572.65,6769L5572.65,6800.22C5572.65,6808.23 5575.85,6814.63 5583.46,6819.43L5606.68,6835.04C5630.3,6851.05 5640.7,6869.06 5640.7,6897.48L5640.7,6933.9C5640.7,6973.13 5618.28,6997.14 5579.06,6997.14C5540.23,6997.16 5517.02,6973.15 5517.02,6933.92Z" style="fill:white;fill-rule:nonzero;"/>
        </g>
        <g transform="matrix(1,0,0,1,10261,4802)">
            <rect x="5649.91" y="6716.97" width="55.64" height="276.19" style="fill:white;fill-rule:nonzero;"/>
        </g>
        <g transform="matrix(1,0,0,1,10261,4802)">
            <path d="M5717.95,6935.52L5717.95,6774.61C5717.95,6736.58 5740.76,6712.97 5777.99,6712.97C5816.42,6712.97 5839.63,6736.59 5839.63,6774.61L5839.63,6821.04L5785.19,6821.04L5785.19,6769.81C5785.19,6762.2 5783.59,6759.4 5779.59,6759.4C5774.79,6759.4 5773.59,6762.2 5773.59,6769.81L5773.59,6940.32C5773.59,6947.93 5774.79,6950.73 5779.59,6950.73C5783.59,6950.73 5785.19,6947.93 5785.19,6940.32L5785.19,6877.48L5839.63,6877.48L5839.63,6935.52C5839.63,6973.55 5816.41,6997.16 5777.99,6997.16C5740.76,6997.16 5717.95,6973.55 5717.95,6935.52Z" style="fill:white;fill-rule:nonzero;"/>
        </g>
        <g transform="matrix(1,0,0,1,10261,4802)">
            <path d="M5847.63,6933.12L5847.63,6777.02C5847.63,6737.39 5872.05,6712.98 5910.07,6712.98C5948.5,6712.98 5972.11,6737.4 5972.11,6777.02L5972.11,6933.12C5972.11,6972.75 5948.49,6997.16 5910.07,6997.16C5872.05,6997.16 5847.63,6972.75 5847.63,6933.12ZM5916.48,6939.12L5916.48,6771.01C5916.48,6762.6 5914.88,6759.4 5910.08,6759.4C5904.88,6759.4 5903.28,6762.6 5903.28,6771.01L5903.28,6939.12C5903.28,6947.53 5904.88,6950.73 5910.08,6950.73C5914.87,6950.73 5916.48,6947.53 5916.48,6939.12Z" style="fill:white;fill-rule:nonzero;"/>
        </g>
        <g transform="matrix(1,0,0,1,10261,4802)">
            <path d="M5984.52,6716.97L6064.17,6716.97L6073.38,6830.25L6074.18,6830.25L6083.79,6716.97L6170.25,6716.97L6170.25,6993.16L6115.41,6993.16L6115.41,6763.81L6114.61,6763.81L6094.2,6993.16L6052.57,6993.16L6032.16,6763.81L6031.36,6763.81L6031.36,6993.16L5984.53,6993.16L5984.53,6716.97L5984.52,6716.97Z" style="fill:white;fill-rule:nonzero;"/>
        </g>
        <g transform="matrix(1,0,0,1,10261,4802)">
            <path d="M6182.65,6933.12L6182.65,6777.02C6182.65,6737.39 6207.07,6712.98 6245.09,6712.98C6283.52,6712.98 6307.13,6737.4 6307.13,6777.02L6307.13,6933.12C6307.13,6972.75 6283.51,6997.16 6245.09,6997.16C6207.06,6997.16 6182.65,6972.75 6182.65,6933.12ZM6251.49,6939.12L6251.49,6771.01C6251.49,6762.6 6249.89,6759.4 6245.09,6759.4C6239.89,6759.4 6238.29,6762.6 6238.29,6771.01L6238.29,6939.12C6238.29,6947.53 6239.89,6950.73 6245.09,6950.73C6249.89,6950.73 6251.49,6947.53 6251.49,6939.12Z" style="fill:white;fill-rule:nonzero;"/>
        </g>
        <g transform="matrix(1,0,0,1,10261,4802)">
            <path d="M6345.95,6762.6L6312.33,6762.6L6312.33,6716.97L6435.21,6716.97L6435.21,6762.6L6401.59,6762.6L6401.59,6993.15L6345.95,6993.15L6345.95,6762.6Z" style="fill:white;fill-rule:nonzero;"/>
        </g>
        <g transform="matrix(1,0,0,1,10261,4802)">
            <path d="M6441.6,6716.97L6503.65,6716.97C6544.88,6716.97 6565.69,6738.18 6565.69,6779.41L6565.69,6797.82C6565.69,6823.04 6558.09,6838.65 6542.47,6846.65L6542.47,6847.45C6558.08,6855.05 6565.69,6870.66 6565.69,6895.88L6565.69,6993.15L6510.05,6993.15L6510.05,6889.08C6510.05,6875.87 6506.05,6873.07 6497.64,6873.07L6497.24,6873.07L6497.24,6993.15L6441.6,6993.15L6441.6,6716.97ZM6498.85,6827.45C6507.66,6827.45 6510.06,6823.85 6510.06,6810.64L6510.06,6779.02C6510.06,6765.81 6507.66,6762.61 6498.85,6762.61L6497.25,6762.61L6497.25,6827.45L6498.85,6827.45Z" style="fill:white;fill-rule:nonzero;"/>
        </g>
        <g transform="matrix(1,0,0,1,10261,4802)">
            <rect x="6577.7" y="6716.97" width="55.64" height="276.19" style="fill:white;fill-rule:nonzero;"/>
        </g>
        <g transform="matrix(1,0,0,1,10261,4802)">
            <path d="M6645.74,6935.52L6645.74,6774.61C6645.74,6736.58 6668.55,6712.97 6705.78,6712.97C6744.21,6712.97 6767.42,6736.59 6767.42,6774.61L6767.42,6821.04L6712.98,6821.04L6712.98,6769.81C6712.98,6762.2 6711.38,6759.4 6707.38,6759.4C6702.58,6759.4 6701.38,6762.2 6701.38,6769.81L6701.38,6940.32C6701.38,6947.93 6702.58,6950.73 6707.38,6950.73C6711.38,6950.73 6712.98,6947.93 6712.98,6940.32L6712.98,6877.48L6767.42,6877.48L6767.42,6935.52C6767.42,6973.55 6744.2,6997.16 6705.78,6997.16C6668.56,6997.16 6645.74,6973.55 6645.74,6935.52Z" style="fill:white;fill-rule:nonzero;"/>
        </g>
        <g transform="matrix(1,0,0,1,10261,4802)">
            <rect x="6777.43" y="6716.97" width="55.64" height="276.19" style="fill:white;fill-rule:nonzero;"/>
        </g>
        <g transform="matrix(1,0,0,1,10261,4802)">
            <path d="M6847.47,6716.97L6909.91,6716.97C6951.14,6716.97 6971.95,6738.18 6971.95,6779.41L6971.95,6930.71C6971.95,6971.94 6951.14,6993.15 6909.91,6993.15L6847.47,6993.15L6847.47,6716.97ZM6905.11,6947.53C6914.32,6947.53 6916.32,6944.33 6916.32,6931.12L6916.32,6779.02C6916.32,6765.81 6914.32,6762.61 6905.11,6762.61L6903.11,6762.61L6903.11,6947.53L6905.11,6947.53Z" style="fill:white;fill-rule:nonzero;"/>
        </g>
        <g transform="matrix(1,0,0,1,10261,4802)">
            <path d="M7002.77,6716.97L7081.22,6716.97L7108.44,6993.16L7052,6993.16L7049.2,6942.73L7031.59,6942.73L7028.79,6993.16L6975.55,6993.16L7002.77,6716.97ZM7047.6,6897.09L7040.8,6762.6L7040,6762.6L7033.2,6897.09L7047.6,6897.09Z" style="fill:white;fill-rule:nonzero;"/>
        </g>
        <g transform="matrix(1,0,0,1,10261,4802)">
            <path d="M7115.24,6716.97L7177.68,6716.97C7218.91,6716.97 7239.72,6738.18 7239.72,6779.41L7239.72,6930.71C7239.72,6971.94 7218.91,6993.15 7177.68,6993.15L7115.24,6993.15L7115.24,6716.97ZM7172.88,6947.53C7182.09,6947.53 7184.09,6944.33 7184.09,6931.12L7184.09,6779.02C7184.09,6765.81 7182.09,6762.61 7172.88,6762.61L7170.88,6762.61L7170.88,6947.53L7172.88,6947.53Z" style="fill:white;fill-rule:nonzero;"/>
        </g>
        <g transform="matrix(1,0,0,1,10261,4802)">
            <path d="M7251.72,6716.97L7359,6716.97L7359,6762.6L7307.37,6762.6L7307.37,6821.84L7351.8,6821.84L7351.8,6867.47L7307.37,6867.47L7307.37,6947.52L7359,6947.52L7359,6993.15L7251.73,6993.15L7251.73,6716.97L7251.72,6716.97Z" style="fill:white;fill-rule:nonzero;"/>
        </g>
        <g transform="matrix(1,0,0,1,10261,4802)">
            <path d="M6423.29,6218.19L6438.28,6166.3L6501.24,6166.29C6503.83,6166.26 6506.04,6164.52 6506.77,6162.16L6513.98,6138.31L6448.34,6138.41C6448.34,6138.41 6447.07,6138.26 6446.51,6139.26C6446.33,6139.58 6445.48,6141.12 6445.48,6141.12C6445.48,6141.12 6452.65,6116.45 6462.96,6116.45L6516.19,6116.45C6518.79,6116.45 6520.98,6114.75 6521.74,6112.4L6530.64,6082.25L6465.65,6082.15C6444.57,6083.68 6429.19,6101.18 6419.49,6134.64L6393.67,6222.43L6417.66,6222.43C6420.33,6222.45 6422.6,6220.64 6423.29,6218.19Z" style="fill:white;fill-rule:nonzero;"/>
            <path d="M6618.86,6219.06L6586.16,6082.27C6585.1,6082.28 6568.88,6082.27 6566.81,6082.27C6562.71,6082.27 6561.26,6084.21 6560.37,6085.97L6500.35,6222.45L6523.88,6222.45C6528.55,6222.45 6529.35,6220.4 6530.07,6218.82L6543.8,6187.81L6580.86,6187.65C6585.28,6187.65 6586.51,6190.71 6586.51,6190.71L6594.01,6222.45L6613.81,6222.45C6613.81,6222.45 6619.68,6222.45 6618.86,6219.06ZM6577.58,6168.1L6555.07,6168.1C6555.07,6168.1 6554.08,6168.14 6553.82,6168.14C6552.82,6168.14 6551.7,6169.95 6551.7,6169.95L6571.16,6125.45L6580.67,6165.59C6580.69,6165.69 6581.16,6168.1 6577.58,6168.1Z" style="fill:white;fill-rule:nonzero;"/>
            <path d="M6753.87,6082.27C6747.96,6082.27 6744.83,6082.27 6741.89,6088.78L6703.81,6172.58C6703.81,6172.58 6703.31,6173.64 6703.17,6173.98C6702.42,6175.8 6702.75,6178.3 6702.75,6178.3L6678.65,6082.27L6655.83,6082.27C6649.66,6082.27 6645.16,6082.27 6644.6,6089.54L6630.97,6222.46C6633.91,6222.36 6646.49,6222.46 6646.49,6222.46C6657.12,6222.46 6657.12,6222.46 6657.81,6215.29L6665.83,6136.4L6686.87,6220.56C6695.56,6220.58 6687.66,6220.58 6695.56,6220.58L6699.9,6220.58C6708.4,6220.56 6708.4,6220.56 6711.04,6214.92L6746.33,6136.97L6737.57,6222.47L6753.88,6222.47C6763.57,6222.47 6763.57,6222.47 6764.45,6215.2L6778.1,6082.28C6767.55,6082.27 6753.87,6082.27 6753.87,6082.27Z" style="fill:white;fill-rule:nonzero;"/>
            <path d="M5221.58,6042.37L5221.58,5865.09L5298.57,5865.09C5343.39,5865.09 5369.73,5888.64 5369.73,5927.14C5369.73,5965.13 5343.39,5987.92 5298.57,5987.92L5272.23,5987.92L5272.23,6042.37L5221.58,6042.37ZM5272.23,5948.65L5294.26,5948.65C5308.95,5948.65 5319.08,5941.31 5319.08,5927.12C5319.08,5912.94 5308.95,5905.59 5294.26,5905.59L5272.23,5905.59L5272.23,5948.65Z" style="fill:rgb(252,227,0);fill-rule:nonzero;"/>
            <path d="M5384.42,5953.72C5384.42,5899.52 5417.6,5862.55 5473.06,5862.55C5528.52,5862.55 5561.7,5899.27 5561.7,5953.72C5561.7,6008.17 5528.52,6044.89 5473.06,6044.89C5417.59,6044.89 5384.42,6007.91 5384.42,5953.72ZM5511.04,5953.72C5511.04,5922.57 5496.1,5904.34 5473.05,5904.34C5450,5904.34 5435.06,5922.57 5435.06,5953.72C5435.06,5984.87 5450,6003.1 5473.05,6003.1C5496.1,6003.1 5511.04,5984.87 5511.04,5953.72ZM5454.57,5849.89L5472.8,5806.84L5527.76,5806.84L5491.8,5849.89L5454.57,5849.89Z" style="fill:rgb(252,227,0);fill-rule:nonzero;"/>
            <path d="M5578.91,5996.77L5627.03,5987.15C5632.6,6002.09 5645.01,6007.66 5658.94,6007.66C5673.38,6007.66 5681.73,6001.84 5681.73,5992.47C5681.73,5962.84 5582.96,5986.65 5582.96,5913.71C5582.96,5884.84 5608.54,5862.55 5653.87,5862.55C5692.62,5862.55 5720.22,5876.99 5728.83,5908.13L5679.7,5917.75C5676.15,5905.34 5667.04,5899.77 5654.12,5899.77C5642.72,5899.77 5634.62,5905.59 5634.62,5913.7C5634.62,5943.58 5733.39,5919.02 5733.39,5993.47C5733.39,6022.85 5707.81,6044.88 5658.93,6044.88C5621.46,6044.89 5587.27,6030.2 5578.91,5996.77Z" style="fill:rgb(252,227,0);fill-rule:nonzero;"/>
            <rect x="5747.83" y="5953.71" width="89.9" height="35.46" style="fill:rgb(252,227,0);fill-rule:nonzero;"/>
            <path d="M5208.03,6152.5C5208.03,6110.97 5232.95,6082.96 5268.88,6082.96C5293.22,6082.96 5313.31,6094.16 5323.16,6119.08L5306.93,6125.07C5299.4,6106.14 5286.45,6097.83 5268.88,6097.83C5243,6097.83 5225.42,6118.5 5225.42,6152.49C5225.42,6186.48 5242.42,6207.15 5271.2,6207.15C5284.72,6207.15 5296.89,6201.36 5304.62,6192.86L5304.62,6164.66L5272.17,6163.11L5272.17,6149.2L5322.01,6149.2L5322.01,6198.26C5310.42,6214.1 5291.88,6222.02 5271.21,6222.02C5232.95,6222.04 5208.03,6194.03 5208.03,6152.5Z" style="fill:white;fill-rule:nonzero;"/>
            <path d="M5350.58,6220.11L5350.58,6084.9L5402.73,6084.9C5429.77,6084.9 5447.16,6100.16 5447.16,6126.04C5447.16,6145.94 5436.34,6159.46 5418.57,6164.29L5449.09,6220.11L5429.39,6220.11L5401.38,6166.22L5367.96,6166.22L5367.96,6220.11L5350.58,6220.11ZM5367.97,6151.54L5401.97,6151.54C5418.97,6151.54 5429.78,6142.27 5429.78,6126.04C5429.78,6110.01 5418.96,6100.35 5401.97,6100.35L5367.97,6100.35L5367.97,6151.54Z" style="fill:white;fill-rule:nonzero;"/>
            <path d="M5564.02,6220.11L5553.2,6189.2L5490.04,6189.2L5479.22,6220.11L5461.45,6220.11L5509.93,6084.9L5533.88,6084.9L5582.56,6220.11L5564.02,6220.11ZM5495.07,6174.72L5548.19,6174.72L5522.11,6099.97L5521.14,6099.97L5495.07,6174.72Z" style="fill:white;fill-rule:nonzero;"/>
            <path d="M5600.73,6220.12L5600.73,6084.9L5644,6084.9C5682.44,6084.9 5707.94,6111.94 5707.94,6152.51C5707.94,6193.08 5682.44,6220.12 5644,6220.12L5600.73,6220.12ZM5618.11,6204.66L5643.99,6204.66C5672.19,6204.66 5690.54,6184.96 5690.54,6152.51C5690.54,6120.06 5672.19,6100.36 5643.99,6100.36L5618.11,6100.36L5618.11,6204.66Z" style="fill:white;fill-rule:nonzero;"/>
            <path d="M5732.46,6165.83L5732.46,6084.9L5749.84,6084.9L5749.84,6165.83C5749.84,6195.77 5766.64,6206.59 5785.19,6206.59C5803.74,6206.59 5820.35,6195.77 5820.35,6165.83L5820.35,6084.9L5837.73,6084.9L5837.73,6165.83C5837.73,6204.27 5813.97,6222.04 5785.19,6222.04C5756.41,6222.04 5732.46,6204.27 5732.46,6165.83Z" style="fill:white;fill-rule:nonzero;"/>
            <path d="M5957.49,6220.11L5946.67,6189.2L5883.51,6189.2L5872.69,6220.11L5854.92,6220.11L5903.4,6084.9L5927.35,6084.9L5976.03,6220.11L5957.49,6220.11ZM5888.54,6174.72L5941.66,6174.72L5915.58,6099.97L5914.61,6099.97L5888.54,6174.72Z" style="fill:white;fill-rule:nonzero;"/>
            <path d="M6102.17,6182.64C6093.67,6208.72 6074.74,6220.5 6052.14,6221.85L6049.82,6228.8L6050.98,6228.8C6061.6,6228.8 6070.3,6234.79 6070.3,6245.99C6070.3,6256.61 6061.99,6264.53 6046.54,6264.53C6037.65,6264.53 6030.7,6262.21 6025.1,6257.96L6031.47,6247.92C6036.11,6251.2 6041.32,6252.94 6046.54,6252.94C6052.53,6252.94 6056.78,6250.24 6056.78,6245.6C6056.78,6240.58 6052.72,6238.45 6047.7,6238.45C6044.8,6238.45 6042.87,6238.84 6040.17,6239.61L6037.27,6235.36L6041.91,6221.84C6009.65,6218.94 5987.05,6191.9 5987.05,6152.5C5987.05,6110.97 6012.16,6082.96 6047.51,6082.96C6071.65,6082.96 6092.52,6094.94 6101.21,6122.36L6084.79,6128.35C6077.64,6107.49 6064.89,6098.41 6047.51,6098.41C6021.63,6098.41 6004.43,6118.69 6004.43,6152.49C6004.43,6186.29 6021.62,6206.57 6047.51,6206.57C6065.28,6206.57 6078.22,6197.88 6085.76,6176.63L6102.17,6182.64Z" style="fill:white;fill-rule:nonzero;"/>
            <path d="M6216.14,6220.11L6205.32,6189.2L6142.16,6189.2L6131.34,6220.11L6113.57,6220.11L6162.05,6084.9L6186,6084.9L6234.68,6220.11L6216.14,6220.11ZM6157.22,6072.34L6145.05,6072.34L6145.05,6066.74C6145.05,6050.51 6153.36,6045.3 6160.7,6045.3C6172.48,6045.3 6178.66,6057.86 6185.23,6057.86C6189.09,6057.86 6190.83,6053.22 6190.83,6045.3L6203,6045.3L6203,6051.29C6203,6068.09 6194.69,6072.34 6187.35,6072.34C6175.37,6072.34 6169.39,6059.78 6162.82,6059.78C6159.54,6059.79 6157.22,6062.68 6157.22,6072.34ZM6147.18,6174.72L6200.3,6174.72L6174.22,6099.97L6173.25,6099.97L6147.18,6174.72Z" style="fill:white;fill-rule:nonzero;"/>
            <path d="M6245.69,6152.5C6245.69,6110.97 6270.8,6082.96 6306.15,6082.96C6341.5,6082.96 6366.42,6110.78 6366.42,6152.5C6366.42,6194.22 6341.5,6222.04 6306.15,6222.04C6270.8,6222.04 6245.69,6194.03 6245.69,6152.5ZM6349.03,6152.5C6349.03,6118.7 6332.03,6098.42 6306.15,6098.42C6280.27,6098.42 6263.07,6118.7 6263.07,6152.5C6263.07,6186.3 6280.26,6206.58 6306.15,6206.58C6332.04,6206.59 6349.03,6186.31 6349.03,6152.5Z" style="fill:white;fill-rule:nonzero;"/>
        </g>
    </g>
</svg>
