<?xml version="1.0" encoding="UTF-8" standalone="no"?>
<!DOCTYPE svg PUBLIC "-//W3C//DTD SVG 1.1//EN" "http://www.w3.org/Graphics/SVG/1.1/DTD/svg11.dtd">
<svg width="100%" height="100%" viewBox="0 0 1608 685" version="1.1" xmlns="http://www.w3.org/2000/svg" xmlns:xlink="http://www.w3.org/1999/xlink" xml:space="preserve" xmlns:serif="http://www.serif.com/" style="fill-rule:evenodd;clip-rule:evenodd;stroke-linejoin:round;stroke-miterlimit:2;">
    <g transform="matrix(1,0,0,1,-80,-533.55)">
        <g transform="matrix(1,0,0,1,80,83)">
            <path d="M630.97,662.56L638.7,635.82L671.15,635.82C672.48,635.8 673.62,634.91 674,633.69L677.72,621.4L643.89,621.45C643.89,621.45 643.24,621.37 642.95,621.89C642.86,622.06 642.42,622.85 642.42,622.85C642.42,622.85 646.11,610.13 651.43,610.13L678.87,610.13C680.21,610.13 681.34,609.25 681.73,608.04L686.32,592.5L652.82,592.45C641.96,593.24 634.03,602.26 629.03,619.5L615.72,664.75L628.09,664.75C629.47,664.75 630.63,663.82 630.99,662.55L630.97,662.56Z" style="fill:white;fill-rule:nonzero;"/>
            <path d="M731.77,663.01L714.92,592.51L704.95,592.51C702.84,592.51 702.09,593.51 701.63,594.42L670.7,664.76L682.83,664.76C685.23,664.76 685.65,663.71 686.02,662.89L693.1,646.91L712.2,646.83C714.48,646.83 715.11,648.41 715.11,648.41L718.97,664.77L729.17,664.77C729.17,664.77 732.19,664.77 731.77,663.02L731.77,663.01ZM710.5,636.74L698.89,636.74C698.89,636.74 698.38,636.76 698.25,636.76C697.73,636.76 697.16,637.69 697.16,637.69L707.19,614.75L712.09,635.44C712.1,635.49 712.34,636.74 710.5,636.74Z" style="fill:white;fill-rule:nonzero;"/>
            <path d="M801.35,592.5C798.3,592.5 796.69,592.5 795.17,595.86L775.54,639.05C775.54,639.05 775.28,639.6 775.21,639.77C774.82,640.71 774.99,642 774.99,642L762.57,592.51L750.81,592.51C747.63,592.51 745.31,592.51 745.02,596.25L737.99,664.76C739.51,664.71 745.99,664.76 745.99,664.76C749.643,664.76 751.59,663.527 751.83,661.06L755.96,620.4L766.8,663.78L771.28,663.78L773.52,663.78C776.44,663.78 778.353,662.807 779.26,660.86L797.45,620.69L792.93,664.76L801.34,664.76C804.667,664.76 806.483,663.513 806.79,661.02L813.82,592.51L801.34,592.51L801.35,592.5Z" style="fill:white;fill-rule:nonzero;"/>
            <path d="M11.62,571.93L11.62,480.56L51.3,480.56C74.4,480.56 87.98,492.7 87.98,512.54C87.98,532.38 74.41,543.87 51.3,543.87L37.73,543.87L37.73,571.93L11.62,571.93ZM37.72,523.64L49.08,523.64C56.65,523.64 61.87,519.85 61.87,512.55C61.87,505.25 56.65,501.46 49.08,501.46L37.72,501.46L37.72,523.65L37.72,523.64Z" style="fill:rgb(252,227,0);fill-rule:nonzero;"/>
            <path d="M95.54,526.25C95.54,498.32 112.64,479.26 141.22,479.26C169.8,479.26 186.9,498.19 186.9,526.25C186.9,554.31 169.8,573.24 141.22,573.24C112.64,573.24 95.54,554.18 95.54,526.25ZM160.8,526.25C160.8,510.2 153.1,500.8 141.22,500.8C129.34,500.8 121.64,510.2 121.64,526.25C121.64,542.3 129.34,551.7 141.22,551.7C153.1,551.7 160.8,542.3 160.8,526.25ZM131.69,472.74L141.09,450.55L169.41,450.55L150.88,472.74L131.69,472.74Z" style="fill:rgb(252,227,0);fill-rule:nonzero;"/>
            <path d="M195.78,548.44L220.58,543.48C223.45,551.18 229.85,554.05 237.03,554.05C244.21,554.05 248.78,551.05 248.78,546.22C248.78,530.95 197.88,543.22 197.88,505.63C197.88,490.75 211.06,479.26 234.43,479.26C254.4,479.26 268.63,486.7 273.06,502.75L247.74,507.71C245.91,501.31 241.21,498.44 234.56,498.44C228.69,498.44 224.51,501.44 224.51,505.62C224.51,521.02 275.41,508.36 275.41,546.73C275.41,561.87 262.23,573.23 237.04,573.23C217.72,573.23 200.1,565.66 195.79,548.43L195.78,548.44Z" style="fill:rgb(252,227,0);fill-rule:nonzero;"/>
            <rect x="282.84" y="526.26" width="46.34" height="18.27" style="fill:rgb(252,227,0);fill-rule:nonzero;"/>
            <path d="M4.63,628.7C4.63,607.3 17.47,592.86 35.99,592.86C48.53,592.86 58.89,598.63 63.96,611.48L55.6,614.57C51.72,604.81 45.05,600.53 35.99,600.53C22.65,600.53 13.59,611.18 13.59,628.7C13.59,646.22 22.35,656.87 37.18,656.87C44.15,656.87 50.42,653.88 54.4,649.5L54.4,634.97L37.67,634.17L37.67,627L63.35,627L63.35,652.29C57.38,660.45 47.82,664.54 37.17,664.54C17.46,664.54 4.62,650.1 4.62,628.7L4.63,628.7Z" style="fill:white;fill-rule:nonzero;"/>
            <path d="M78.11,663.55L78.11,593.86L104.99,593.86C118.93,593.86 127.89,601.72 127.89,615.06C127.89,625.31 122.31,632.28 113.16,634.77L128.89,663.54L118.74,663.54L104.3,635.76L87.08,635.76L87.08,663.54L78.12,663.54L78.11,663.55ZM87.07,628.21L104.59,628.21C113.35,628.21 118.93,623.43 118.93,615.07C118.93,606.71 113.36,601.83 104.59,601.83L87.07,601.83L87.07,628.21Z" style="fill:white;fill-rule:nonzero;"/>
            <path d="M188.11,663.55L182.53,647.62L149.98,647.62L144.4,663.55L135.24,663.55L160.23,593.86L172.57,593.86L197.66,663.55L188.1,663.55L188.11,663.55ZM152.57,640.16L179.95,640.16L166.51,601.63L166.01,601.63L152.57,640.16Z" style="fill:white;fill-rule:nonzero;"/>
            <path d="M207.03,663.55L207.03,593.86L229.33,593.86C249.14,593.86 262.28,607.8 262.28,628.7C262.28,649.6 249.14,663.54 229.33,663.54L207.03,663.54L207.03,663.55ZM215.99,655.59L229.33,655.59C243.86,655.59 253.32,645.44 253.32,628.71C253.32,611.98 243.86,601.83 229.33,601.83L215.99,601.83L215.99,655.59Z" style="fill:white;fill-rule:nonzero;"/>
            <path d="M274.92,635.57L274.92,593.86L283.88,593.86L283.88,635.57C283.88,651 292.54,656.58 302.1,656.58C311.66,656.58 320.22,651 320.22,635.57L320.22,593.86L329.18,593.86L329.18,635.57C329.18,655.38 316.93,664.54 302.1,664.54C287.27,664.54 274.92,655.38 274.92,635.57Z" style="fill:white;fill-rule:nonzero;"/>
            <path d="M390.9,663.55L385.32,647.62L352.77,647.62L347.19,663.55L338.03,663.55L363.02,593.86L375.36,593.86L400.45,663.55L390.89,663.55L390.9,663.55ZM355.36,640.16L382.74,640.16L369.3,601.63L368.8,601.63L355.36,640.16Z" style="fill:white;fill-rule:nonzero;"/>
            <path d="M465.47,644.23C461.09,657.67 451.33,663.74 439.69,664.44L438.5,668.02L439.1,668.02C444.58,668.02 449.06,671.11 449.06,676.88C449.06,682.36 444.78,686.44 436.81,686.44C432.23,686.44 428.65,685.25 425.76,683.06L429.05,677.88C431.44,679.57 434.13,680.47 436.82,680.47C439.91,680.47 442.1,679.08 442.1,676.69C442.1,674.1 440.01,673.01 437.42,673.01C435.93,673.01 434.93,673.21 433.54,673.61L432.05,671.42L434.44,664.45C417.81,662.96 406.17,649.02 406.17,628.71C406.17,607.31 419.11,592.87 437.33,592.87C449.77,592.87 460.53,599.04 465.01,613.18L456.55,616.27C452.87,605.52 446.3,600.84 437.34,600.84C424,600.84 415.14,611.29 415.14,628.71C415.14,646.13 424,656.58 437.34,656.58C446.5,656.58 453.17,652.1 457.05,641.15L465.51,644.24L465.47,644.23Z" style="fill:white;fill-rule:nonzero;"/>
            <path d="M524.21,663.55L518.63,647.62L486.08,647.62L480.5,663.55L471.34,663.55L496.33,593.86L508.67,593.86L533.76,663.55L524.2,663.55L524.21,663.55ZM493.85,587.39L487.58,587.39L487.58,584.5C487.58,576.14 491.86,573.45 495.64,573.45C501.71,573.45 504.9,579.92 508.28,579.92C510.27,579.92 511.17,577.53 511.17,573.45L517.44,573.45L517.44,576.54C517.44,585.2 513.16,587.39 509.38,587.39C503.21,587.39 500.12,580.92 496.74,580.92C495.05,580.92 493.85,582.41 493.85,587.39ZM488.67,640.15L516.05,640.15L502.61,601.62L502.11,601.62L488.67,640.15Z" style="fill:white;fill-rule:nonzero;"/>
            <path d="M539.44,628.7C539.44,607.3 552.38,592.86 570.6,592.86C588.82,592.86 601.66,607.2 601.66,628.7C601.66,650.2 588.82,664.54 570.6,664.54C552.38,664.54 539.44,650.1 539.44,628.7ZM592.7,628.7C592.7,611.28 583.94,600.83 570.6,600.83C557.26,600.83 548.4,611.28 548.4,628.7C548.4,646.12 557.26,656.57 570.6,656.57C583.94,656.57 592.7,646.12 592.7,628.7Z" style="fill:white;fill-rule:nonzero;"/>
        </g>
        <g transform="matrix(1,0,0,1,80,83)">
            <path d="M0,706.4L45.37,706.4L58.33,805.5L58.87,805.5L58.87,706.4L90.19,706.4L90.19,892.72L46.98,892.72L31.86,777.14L31.32,777.14L31.32,892.72L0,892.72L0,706.4Z" style="fill:rgb(252,227,0);fill-rule:nonzero;"/>
            <path d="M99.91,706.4L172.28,706.4L172.28,737.18L137.45,737.18L137.45,777.14L167.42,777.14L167.42,807.92L137.45,807.92L137.45,861.93L172.28,861.93L172.28,892.71L99.91,892.71L99.91,706.39L99.91,706.4Z" style="fill:rgb(252,227,0);fill-rule:nonzero;"/>
            <path d="M177.41,853.83L177.41,706.39L214.94,706.39L214.94,856.8C214.94,862.2 216.02,864.09 219.26,864.09C222.23,864.09 223.04,862.2 223.04,856.8L223.04,706.39L260.04,706.39L260.04,853.83C260.04,879.21 243.57,895.42 218.72,895.42C193.87,895.42 177.4,879.22 177.4,853.83L177.41,853.83Z" style="fill:rgb(252,227,0);fill-rule:nonzero;"/>
            <path d="M268.95,706.4L310.81,706.4C338.62,706.4 352.67,720.71 352.67,748.53L352.67,760.95C352.67,777.96 347.54,788.49 337.01,793.89L337.01,794.43C347.54,799.56 352.67,810.09 352.67,827.1L352.67,892.72L315.13,892.72L315.13,822.51C315.13,813.6 312.43,811.71 306.76,811.71L306.49,811.71L306.49,892.72L268.95,892.72L268.95,706.4ZM307.57,780.93C313.51,780.93 315.13,778.5 315.13,769.59L315.13,748.26C315.13,739.35 313.51,737.19 307.57,737.19L306.49,737.19L306.49,780.94L307.57,780.94L307.57,780.93Z" style="fill:rgb(252,227,0);fill-rule:nonzero;"/>
            <path d="M359.41,852.21L359.41,746.9C359.41,720.17 375.88,703.69 401.53,703.69C427.18,703.69 443.39,720.16 443.39,746.9L443.39,852.21C443.39,878.94 427.46,895.42 401.53,895.42C375.6,895.42 359.41,878.95 359.41,852.21ZM405.86,856.26L405.86,742.84C405.86,737.17 404.78,735.01 401.54,735.01C398.03,735.01 396.95,737.17 396.95,742.84L396.95,856.26C396.95,861.93 398.03,864.09 401.54,864.09C404.78,864.09 405.86,861.93 405.86,856.26Z" style="fill:rgb(252,227,0);fill-rule:nonzero;"/>
            <path d="M451.75,706.4L493.88,706.4C521.69,706.4 535.74,720.71 535.74,748.53L535.74,772.29C535.74,800.1 521.7,814.42 493.88,814.42L489.29,814.42L489.29,892.73L451.75,892.73L451.75,706.4ZM490.64,783.63C496.85,783.63 498.2,781.2 498.2,772.29L498.2,748.26C498.2,739.35 496.85,737.19 490.64,737.19L489.29,737.19L489.29,783.64L490.64,783.64L490.64,783.63Z" style="fill:rgb(252,227,0);fill-rule:nonzero;"/>
            <path d="M539.78,852.75L539.78,823.05L576.5,823.05L576.5,856.26C576.5,861.93 577.85,864.09 581.36,864.09C584.6,864.09 585.68,861.93 585.68,856.26L585.68,829.26C585.68,823.86 583.52,819.54 578.39,816.3L563,805.77C546.8,794.97 539.78,782.82 539.78,763.64L539.78,745.28C539.78,719.63 555.17,703.69 580.01,703.69C604.85,703.69 621.33,719.62 621.33,745.28L621.33,768.23L584.61,768.23L584.61,741.5C584.61,736.91 583.53,735.02 581.1,735.02C578.13,735.02 577.32,736.91 577.32,741.5L577.32,762.56C577.32,767.96 579.48,772.28 584.61,775.52L600.27,786.05C616.2,796.85 623.22,809 623.22,828.18L623.22,852.75C623.22,879.21 608.1,895.42 581.64,895.42C555.18,895.42 539.78,879.22 539.78,852.75Z" style="fill:rgb(252,227,0);fill-rule:nonzero;"/>
            <rect x="629.43" y="706.4" width="37.54" height="186.32" style="fill:rgb(252,227,0);fill-rule:nonzero;"/>
            <path d="M675.33,853.83L675.33,745.28C675.33,719.63 690.72,703.69 715.83,703.69C740.94,703.69 757.41,719.62 757.41,745.28L757.41,776.6L720.69,776.6L720.69,742.04C720.69,736.91 719.61,735.02 716.91,735.02C713.67,735.02 712.86,736.91 712.86,742.04L712.86,857.08C712.86,862.21 713.67,864.1 716.91,864.1C719.61,864.1 720.69,862.21 720.69,857.08L720.69,814.68L757.41,814.68L757.41,853.83C757.41,879.48 741.75,895.42 715.83,895.42C689.91,895.42 675.33,879.49 675.33,853.83Z" style="fill:rgb(252,227,0);fill-rule:nonzero;"/>
            <path d="M762.82,852.21L762.82,746.9C762.82,720.17 779.29,703.69 804.94,703.69C830.59,703.69 846.8,720.16 846.8,746.9L846.8,852.21C846.8,878.94 830.87,895.42 804.94,895.42C779.01,895.42 762.82,878.95 762.82,852.21ZM809.27,856.26L809.27,742.84C809.27,737.17 808.19,735.01 804.95,735.01C801.44,735.01 800.36,737.17 800.36,742.84L800.36,856.26C800.36,861.93 801.44,864.09 804.95,864.09C808.19,864.09 809.27,861.93 809.27,856.26Z" style="fill:rgb(252,227,0);fill-rule:nonzero;"/>
            <path d="M855.16,706.4L897.29,706.4C925.1,706.4 939.15,720.71 939.15,748.53L939.15,772.29C939.15,800.1 925.11,814.42 897.29,814.42L892.7,814.42L892.7,892.73L855.16,892.73L855.16,706.4ZM894.05,783.63C900.26,783.63 901.61,781.2 901.61,772.29L901.61,748.26C901.61,739.35 900.26,737.19 894.05,737.19L892.7,737.19L892.7,783.64L894.05,783.64L894.05,783.63Z" style="fill:rgb(252,227,0);fill-rule:nonzero;"/>
            <path d="M944.27,706.4L1016.64,706.4L1016.64,737.18L981.81,737.18L981.81,777.14L1011.78,777.14L1011.78,807.92L981.81,807.92L981.81,861.93L1016.64,861.93L1016.64,892.71L944.27,892.71L944.27,706.39L944.27,706.4Z" style="fill:rgb(252,227,0);fill-rule:nonzero;"/>
            <path d="M1022.58,706.4L1064.71,706.4C1092.52,706.4 1106.57,720.71 1106.57,748.53L1106.57,850.6C1106.57,878.41 1092.53,892.73 1064.71,892.73L1022.58,892.73L1022.58,706.4ZM1061.47,861.94C1067.68,861.94 1069.03,859.78 1069.03,850.87L1069.03,748.26C1069.03,739.35 1067.68,737.19 1061.47,737.19L1060.12,737.19L1060.12,861.95L1061.47,861.95L1061.47,861.94Z" style="fill:rgb(252,227,0);fill-rule:nonzero;"/>
            <path d="M1127.34,706.4L1180.28,706.4L1198.64,892.72L1160.56,892.72L1158.67,858.7L1146.79,858.7L1144.9,892.72L1108.98,892.72L1127.34,706.4ZM1157.59,827.92L1153,737.19L1152.46,737.19L1147.87,827.92L1157.59,827.92Z" style="fill:rgb(252,227,0);fill-rule:nonzero;"/>
            <path d="M1201.6,861.13L1201.6,746.64C1201.6,720.18 1218.07,703.7 1243.46,703.7C1268.85,703.7 1284.78,720.17 1284.78,746.64L1284.78,767.16L1248.06,767.16L1248.06,742.86C1248.06,737.19 1246.98,735.03 1243.74,735.03C1240.23,735.03 1239.15,737.19 1239.15,742.86L1239.15,858.98C1239.15,861.95 1239.96,864.11 1243.2,864.11C1247.52,864.11 1248.6,860.87 1248.6,851.69L1248.6,816.05L1244.01,816.05L1244.01,785L1285.33,785L1285.33,892.74L1253.2,892.74L1253.2,878.97L1252.12,878.97C1248.07,890.04 1240.24,895.44 1228.09,895.44C1211.35,895.44 1201.63,882.48 1201.63,861.15L1201.6,861.13Z" style="fill:rgb(252,227,0);fill-rule:nonzero;"/>
            <path d="M1292.6,852.21L1292.6,746.9C1292.6,720.17 1309.07,703.69 1334.72,703.69C1360.37,703.69 1376.58,720.16 1376.58,746.9L1376.58,852.21C1376.58,878.94 1360.65,895.42 1334.72,895.42C1308.79,895.42 1292.6,878.95 1292.6,852.21ZM1339.05,856.26L1339.05,742.84C1339.05,737.17 1337.97,735.01 1334.73,735.01C1331.22,735.01 1330.14,737.17 1330.14,742.84L1330.14,856.26C1330.14,861.93 1331.22,864.09 1334.73,864.09C1337.97,864.09 1339.05,861.93 1339.05,856.26Z" style="fill:rgb(252,227,0);fill-rule:nonzero;"/>
            <path d="M1383.87,861.13L1383.87,746.64C1383.87,720.18 1400.34,703.7 1425.73,703.7C1451.12,703.7 1467.05,720.17 1467.05,746.64L1467.05,767.16L1430.33,767.16L1430.33,742.86C1430.33,737.19 1429.25,735.03 1426.01,735.03C1422.5,735.03 1421.42,737.19 1421.42,742.86L1421.42,858.98C1421.42,861.95 1422.23,864.11 1425.47,864.11C1429.79,864.11 1430.87,860.87 1430.87,851.69L1430.87,816.05L1426.28,816.05L1426.28,785L1467.6,785L1467.6,892.74L1435.47,892.74L1435.47,878.97L1434.39,878.97C1430.34,890.04 1422.51,895.44 1410.36,895.44C1393.62,895.44 1383.9,882.48 1383.9,861.15L1383.87,861.13Z" style="fill:rgb(252,227,0);fill-rule:nonzero;"/>
            <rect x="1476.22" y="706.4" width="37.54" height="186.32" style="fill:rgb(252,227,0);fill-rule:nonzero;"/>
            <path d="M1536.69,706.4L1589.63,706.4L1607.99,892.72L1569.91,892.72L1568.02,858.7L1556.14,858.7L1554.25,892.72L1518.33,892.72L1536.69,706.4ZM1566.94,827.92L1562.35,737.19L1561.81,737.19L1557.22,827.92L1566.94,827.92Z" style="fill:rgb(252,227,0);fill-rule:nonzero;"/>
        </g>
        <g transform="matrix(1,0,0,1,80,83)">
            <path d="M0.54,924.66L80.97,924.66L80.97,958.87L42.26,958.87L42.26,1003.29L75.57,1003.29L75.57,1037.5L42.26,1037.5L42.26,1097.52L80.97,1097.52L80.97,1131.73L0.54,1131.73L0.54,924.65L0.54,924.66Z" style="fill:rgb(252,227,0);fill-rule:nonzero;"/>
            <path d="M128.98,924.66L175.8,924.66C206.71,924.66 222.32,940.57 222.32,971.48L222.32,997.89C222.32,1028.8 206.71,1044.71 175.8,1044.71L170.7,1044.71L170.7,1131.74L128.99,1131.74L128.99,924.66L128.98,924.66ZM172.2,1010.49C179.1,1010.49 180.6,1007.79 180.6,997.89L180.6,971.18C180.6,961.28 179.1,958.88 172.2,958.88L170.7,958.88L170.7,1010.5L172.2,1010.5L172.2,1010.49Z" style="fill:rgb(252,227,0);fill-rule:nonzero;"/>
            <path d="M226.81,1087.32L226.81,1054.31L267.63,1054.31L267.63,1091.22C267.63,1097.52 269.13,1099.92 273.03,1099.92C276.63,1099.92 277.83,1097.52 277.83,1091.22L277.83,1061.21C277.83,1055.21 275.43,1050.41 269.73,1046.8L252.62,1035.1C234.61,1023.1 226.81,1009.59 226.81,988.28L226.81,967.87C226.81,939.36 243.92,921.65 271.53,921.65C299.14,921.65 317.45,939.36 317.45,967.87L317.45,993.38L276.63,993.38L276.63,963.67C276.63,958.57 275.43,956.47 272.73,956.47C269.43,956.47 268.53,958.57 268.53,963.67L268.53,987.08C268.53,993.08 270.93,997.88 276.63,1001.49L294.04,1013.19C311.75,1025.19 319.55,1038.7 319.55,1060.01L319.55,1087.32C319.55,1116.73 302.74,1134.74 273.33,1134.74C243.92,1134.74 226.81,1116.73 226.81,1087.32Z" style="fill:rgb(252,227,0);fill-rule:nonzero;"/>
            <rect x="326.45" y="924.66" width="41.71" height="207.08" style="fill:rgb(252,227,0);fill-rule:nonzero;"/>
            <path d="M377.46,1088.53L377.46,967.88C377.46,939.37 394.57,921.66 422.48,921.66C450.39,921.66 468.7,939.37 468.7,967.88L468.7,1002.69L427.89,1002.69L427.89,964.28C427.89,958.58 426.69,956.48 423.69,956.48C420.09,956.48 419.19,958.58 419.19,964.28L419.19,1092.13C419.19,1097.83 420.09,1099.93 423.69,1099.93C426.69,1099.93 427.89,1097.83 427.89,1092.13L427.89,1045.01L468.7,1045.01L468.7,1088.53C468.7,1117.04 451.29,1134.75 422.48,1134.75C393.67,1134.75 377.46,1117.04 377.46,1088.53Z" style="fill:rgb(252,227,0);fill-rule:nonzero;"/>
            <path d="M474.7,1086.72L474.7,969.68C474.7,939.97 493.01,921.66 521.52,921.66C550.03,921.66 568.04,939.97 568.04,969.68L568.04,1086.72C568.04,1116.43 550.33,1134.74 521.52,1134.74C492.71,1134.74 474.7,1116.43 474.7,1086.72ZM526.32,1091.22L526.32,965.17C526.32,958.87 525.12,956.47 521.52,956.47C517.62,956.47 516.42,958.87 516.42,965.17L516.42,1091.22C516.42,1097.52 517.62,1099.92 521.52,1099.92C525.12,1099.92 526.32,1097.52 526.32,1091.22Z" style="fill:rgb(252,227,0);fill-rule:nonzero;"/>
            <path d="M577.31,924.66L637.05,924.66L643.95,1009.59L644.55,1009.59L651.75,924.66L716.57,924.66L716.57,1131.74L675.45,1131.74L675.45,959.78L674.85,959.78L659.54,1131.74L628.33,1131.74L613.02,959.78L612.42,959.78L612.42,1131.74L577.31,1131.74L577.31,924.66Z" style="fill:rgb(252,227,0);fill-rule:nonzero;"/>
            <path d="M725.89,1086.72L725.89,969.68C725.89,939.97 744.2,921.66 772.71,921.66C801.22,921.66 819.23,939.97 819.23,969.68L819.23,1086.72C819.23,1116.43 801.52,1134.74 772.71,1134.74C743.9,1134.74 725.89,1116.43 725.89,1086.72ZM777.51,1091.22L777.51,965.17C777.51,958.87 776.31,956.47 772.71,956.47C768.81,956.47 767.61,958.87 767.61,965.17L767.61,1091.22C767.61,1097.52 768.81,1099.92 772.71,1099.92C776.31,1099.92 777.51,1097.52 777.51,1091.22Z" style="fill:rgb(252,227,0);fill-rule:nonzero;"/>
            <path d="M848.33,958.88L823.12,958.88L823.12,924.67L915.25,924.67L915.25,958.88L890.04,958.88L890.04,1131.74L848.33,1131.74L848.33,958.88Z" style="fill:rgb(252,227,0);fill-rule:nonzero;"/>
            <path d="M920.06,924.66L966.58,924.66C997.49,924.66 1013.1,940.57 1013.1,971.48L1013.1,985.29C1013.1,1004.2 1007.4,1015.9 995.69,1021.9L995.69,1022.5C1007.4,1028.2 1013.1,1039.91 1013.1,1058.81L1013.1,1131.74L971.38,1131.74L971.38,1053.71C971.38,1043.81 968.38,1041.71 962.08,1041.71L961.78,1041.71L961.78,1131.74L920.07,1131.74L920.07,924.66L920.06,924.66ZM962.98,1007.49C969.58,1007.49 971.38,1004.79 971.38,994.89L971.38,971.18C971.38,961.28 969.58,958.88 962.98,958.88L961.78,958.88L961.78,1007.5L962.98,1007.5L962.98,1007.49Z" style="fill:rgb(252,227,0);fill-rule:nonzero;"/>
            <rect x="1022.09" y="924.66" width="41.71" height="207.08" style="fill:rgb(252,227,0);fill-rule:nonzero;"/>
            <path d="M1073.11,1088.53L1073.11,967.88C1073.11,939.37 1090.22,921.66 1118.13,921.66C1146.04,921.66 1164.35,939.37 1164.35,967.88L1164.35,1002.69L1123.54,1002.69L1123.54,964.28C1123.54,958.58 1122.34,956.48 1119.34,956.48C1115.74,956.48 1114.84,958.58 1114.84,964.28L1114.84,1092.13C1114.84,1097.83 1115.74,1099.93 1119.34,1099.93C1122.34,1099.93 1123.54,1097.83 1123.54,1092.13L1123.54,1045.01L1164.35,1045.01L1164.35,1088.53C1164.35,1117.04 1146.94,1134.75 1118.13,1134.75C1089.32,1134.75 1073.11,1117.04 1073.11,1088.53Z" style="fill:rgb(252,227,0);fill-rule:nonzero;"/>
            <rect x="1171.84" y="924.66" width="41.71" height="207.08" style="fill:rgb(252,227,0);fill-rule:nonzero;"/>
            <path d="M1224.36,924.66L1271.18,924.66C1302.09,924.66 1317.7,940.57 1317.7,971.48L1317.7,1084.92C1317.7,1115.83 1302.09,1131.74 1271.18,1131.74L1224.36,1131.74L1224.36,924.66ZM1267.58,1097.52C1274.48,1097.52 1275.98,1095.12 1275.98,1085.22L1275.98,971.18C1275.98,961.28 1274.48,958.88 1267.58,958.88L1266.08,958.88L1266.08,1097.53L1267.58,1097.53L1267.58,1097.52Z" style="fill:rgb(252,227,0);fill-rule:nonzero;"/>
            <path d="M1340.8,924.66L1399.62,924.66L1420.03,1131.74L1377.71,1131.74L1375.61,1093.93L1362.4,1093.93L1360.3,1131.74L1320.39,1131.74L1340.8,924.66ZM1374.41,1059.71L1369.31,958.87L1368.71,958.87L1363.61,1059.71L1374.41,1059.71Z" style="fill:rgb(252,227,0);fill-rule:nonzero;"/>
            <path d="M1425.13,924.66L1471.95,924.66C1502.86,924.66 1518.47,940.57 1518.47,971.48L1518.47,1084.92C1518.47,1115.83 1502.86,1131.74 1471.95,1131.74L1425.13,1131.74L1425.13,924.66ZM1468.35,1097.52C1475.25,1097.52 1476.75,1095.12 1476.75,1085.22L1476.75,971.18C1476.75,961.28 1475.25,958.88 1468.35,958.88L1466.85,958.88L1466.85,1097.53L1468.35,1097.53L1468.35,1097.52Z" style="fill:rgb(252,227,0);fill-rule:nonzero;"/>
            <path d="M1527.46,924.66L1607.89,924.66L1607.89,958.87L1569.18,958.87L1569.18,1003.29L1602.49,1003.29L1602.49,1037.5L1569.18,1037.5L1569.18,1097.52L1607.89,1097.52L1607.89,1131.73L1527.46,1131.73L1527.46,924.65L1527.46,924.66Z" style="fill:rgb(252,227,0);fill-rule:nonzero;"/>
        </g>
    </g>
</svg>
