<?xml version="1.0" encoding="UTF-8" standalone="no"?>
<!DOCTYPE svg PUBLIC "-//W3C//DTD SVG 1.1//EN" "http://www.w3.org/Graphics/SVG/1.1/DTD/svg11.dtd">
<svg width="100%" height="100%" viewBox="0 0 50 50" version="1.1" xmlns="http://www.w3.org/2000/svg" xmlns:xlink="http://www.w3.org/1999/xlink" xml:space="preserve" xmlns:serif="http://www.serif.com/" style="fill-rule:evenodd;clip-rule:evenodd;stroke-linejoin:round;stroke-miterlimit:2;">
    <g transform="matrix(1,0,0,1,-149.5,-296.5)">
        <g transform="matrix(1,0,0,1,25,0)">
            <g transform="matrix(1.06383,0,0,1.06383,68.1171,200.755)">
                <path d="M72.621,136.681C61.488,134.832 53,125.157 53,113.5C53,100.521 63.521,90 76.5,90C89.479,90 100,100.521 100,113.5C100,125.397 91.16,135.228 79.69,136.785L70.152,120.266L70.33,120.225L82.399,117.44L82.717,117.366C83.086,117.909 83.639,118.304 84.278,118.475C84.522,118.54 84.772,118.571 85.02,118.569C85.027,118.569 85.035,118.568 85.042,118.568C85.738,118.519 86.179,118.356 86.454,118.145C87.037,117.781 87.466,117.203 87.646,116.53C87.835,115.826 87.736,115.075 87.372,114.444L85.373,110.982C86.978,109.579 87.422,107.194 86.316,105.278C86.315,105.277 86.315,105.276 86.315,105.275C85.208,103.36 82.92,102.552 80.903,103.24C80.903,103.24 78.93,99.823 78.93,99.823C78.566,99.192 77.966,98.731 77.261,98.542C76.557,98.353 75.806,98.453 75.175,98.817C75.171,98.819 75.168,98.821 75.164,98.823C74.538,99.188 74.081,99.786 73.893,100.487C73.733,101.082 73.779,101.71 74.017,102.272C74.017,102.272 70.181,106.386 70.181,106.386L69.382,107.243L66.366,110.478L65.568,111.334L64.303,112.691L64.301,112.693C64.282,112.713 64.264,112.734 64.247,112.756C64.248,112.756 63.456,113.213 63.456,113.213L62.066,114.015L61.301,114.457C59.128,115.711 58.38,118.485 59.622,120.661C59.626,120.668 59.629,120.674 59.633,120.681C59.633,120.681 59.633,120.681 59.634,120.682C60.665,122.467 62.721,123.29 64.628,122.838C64.628,122.838 68.61,129.735 72.621,136.681ZM77.617,136.974C77.247,136.991 76.874,137 76.5,137C75.982,137 75.468,136.983 74.959,136.95L66.36,122.059L68.344,120.914L77.617,136.974ZM85.419,116.564C85.222,116.678 84.987,116.708 84.767,116.649C84.547,116.59 84.359,116.446 84.245,116.249C82.303,112.885 77.746,104.992 75.804,101.628C75.69,101.431 75.659,101.196 75.718,100.976C75.775,100.763 75.912,100.579 76.101,100.465C76.107,100.461 76.12,100.454 76.12,100.454C76.318,100.34 76.552,100.309 76.772,100.368C76.992,100.427 77.18,100.571 77.294,100.768L85.735,115.389C85.849,115.586 85.88,115.821 85.821,116.041C85.764,116.254 85.627,116.437 85.44,116.552C85.433,116.556 85.419,116.564 85.419,116.564ZM61.269,119.734C60.534,118.459 60.972,116.83 62.246,116.094L64.683,114.687L67.35,119.305C67.35,119.305 64.912,120.712 64.912,120.712C63.643,121.445 62.022,121.016 61.28,119.755L61.269,119.734ZM84.668,106.204L84.679,106.223C85.26,107.228 85.111,108.455 84.396,109.29L81.88,104.932C82.954,104.731 84.085,105.209 84.668,106.204ZM76.152,116.942L69.153,118.557C69.153,118.557 66.194,113.433 66.194,113.433L74.991,103.999C74.991,103.999 81.721,115.657 81.721,115.657C81.721,115.657 81.577,115.69 81.577,115.69C81.566,115.692 81.556,115.694 81.545,115.697C81.547,115.697 76.186,116.934 76.186,116.934C76.181,116.935 76.168,116.938 76.167,116.939C76.162,116.94 76.157,116.941 76.152,116.942Z" style="fill:rgb(93,55,141);"/>
            </g>
        </g>
        <g transform="matrix(1,0,0,1,25,0)">
            <g transform="matrix(0.683256,-0.39448,0.39448,0.683256,73.8449,260.459)">
                <path d="M63.983,113.187C63.28,113.187 62.709,112.616 62.709,111.913C62.709,111.21 63.28,110.639 63.983,110.639L67.983,110.639C68.686,110.639 69.257,111.21 69.257,111.913C69.257,112.616 68.686,113.187 67.983,113.187L63.983,113.187Z" style="fill:white;"/>
            </g>
        </g>
        <g transform="matrix(1,0,0,1,25,0)">
            <g transform="matrix(0.204197,-0.762077,0.762077,0.204197,59.5335,334.657)">
                <path d="M63.983,113.187C63.28,113.187 62.709,112.616 62.709,111.913C62.709,111.21 63.28,110.639 63.983,110.639L67.983,110.639C68.686,110.639 69.257,111.21 69.257,111.913C69.257,112.616 68.686,113.187 67.983,113.187L63.983,113.187Z" style="fill:white;"/>
            </g>
        </g>
        <g transform="matrix(1,0,0,1,25,0)">
            <g transform="matrix(0.762077,0.204197,-0.204197,0.762077,136.431,218.112)">
                <path d="M63.983,113.187C63.28,113.187 62.709,112.616 62.709,111.913C62.709,111.21 63.28,110.639 63.983,110.639L67.983,110.639C68.686,110.639 69.257,111.21 69.257,111.913C69.257,112.616 68.686,113.187 67.983,113.187L63.983,113.187Z" style="fill:white;"/>
            </g>
        </g>
    </g>
</svg>
