<?xml version="1.0" encoding="UTF-8" standalone="no"?>
<!DOCTYPE svg PUBLIC "-//W3C//DTD SVG 1.1//EN" "http://www.w3.org/Graphics/SVG/1.1/DTD/svg11.dtd">
<svg width="100%" height="100%" viewBox="0 0 1571 1138" version="1.1" xmlns="http://www.w3.org/2000/svg" xmlns:xlink="http://www.w3.org/1999/xlink" xml:space="preserve" xmlns:serif="http://www.serif.com/" style="fill-rule:evenodd;clip-rule:evenodd;stroke-linejoin:round;stroke-miterlimit:2;">
    <g transform="matrix(1,0,0,1,-7442,-2381.61)">
        <g transform="matrix(1,0,0,1,6902,4080)">
            <g transform="matrix(1,0,0,1,540,-764.034)">
                <path d="M11.321,-0.039L98.366,-0.039L98.366,-189.329L168.566,-189.329L168.566,-260.704L98.366,-260.704L98.366,-361.068L179.222,-361.068L179.222,-432.443L11.321,-432.443L11.321,-0.039Z" style="fill:rgb(251,226,0);fill-rule:nonzero;"/>
                <rect x="189.955" y="-432.443" width="87.045" height="432.404" style="fill:rgb(251,226,0);fill-rule:nonzero;"/>
                <path d="M299.643,-0.039L372.272,-0.039L372.272,-268.255L373.527,-268.255L408.67,-0.039L508.911,-0.039L508.911,-432.443L436.282,-432.443L436.282,-202.454L435.027,-202.454L404.905,-432.443L299.643,-432.443L299.643,-0.039Z" style="fill:rgb(251,226,0);fill-rule:nonzero;"/>
                <path d="M519.645,-0.039L602.976,-0.039L607.362,-79.014L634.93,-79.014L639.316,-0.039L727.66,-0.039L685.053,-432.443L562.25,-432.443L519.645,-0.039ZM609.868,-150.39L620.519,-361.068L621.772,-361.068L632.424,-150.39L609.868,-150.39Z" style="fill:rgb(251,226,0);fill-rule:nonzero;"/>
                <path d="M738.393,-0.039L811.022,-0.039L811.022,-268.255L812.277,-268.255L847.42,-0.039L947.662,-0.039L947.662,-432.443L875.033,-432.443L875.033,-202.454L873.777,-202.454L843.655,-432.443L738.393,-432.443L738.393,-0.039Z" style="fill:rgb(251,226,0);fill-rule:nonzero;"/>
                <path d="M1157.63,-269.557L1157.63,-342.231C1157.63,-401.77 1121.32,-438.711 1061.14,-438.711C1002.87,-438.711 967.17,-401.77 967.17,-342.264L967.17,-90.296C967.17,-36.393 996.603,-1.293 1045.45,4.975L1036.1,28.166L1046.12,28.166C1051.13,28.166 1054.89,30.054 1054.89,35.719C1054.89,44.536 1050.5,47.048 1036.73,47.048L1017.31,47.048L1017.31,80.189L1063.65,80.189C1088.08,80.189 1107.49,73.936 1107.49,48.299C1107.49,24.43 1094.34,17.581 1065.53,16.336L1069.92,6.237C1124.45,2.468 1157.63,-33.886 1157.63,-90.296L1157.63,-181.18L1072.47,-181.18L1072.47,-82.775C1072.47,-70.866 1069.95,-66.479 1063.66,-66.479C1056.1,-66.479 1054.21,-70.866 1054.21,-82.775L1054.21,-349.786C1054.21,-361.695 1056.1,-366.082 1063.62,-366.082C1069.95,-366.082 1072.47,-361.695 1072.47,-349.786L1072.47,-269.557L1157.63,-269.557Z" style="fill:rgb(251,226,0);fill-rule:nonzero;"/>
                <path d="M1161.47,-0.039L1244.81,-0.039L1249.19,-79.014L1276.76,-79.014L1281.14,-0.039L1369.49,-0.039L1326.88,-432.443L1204.08,-432.443L1161.47,-0.039ZM1251.7,-150.39L1262.35,-361.068L1263.6,-361.068L1274.25,-150.39L1251.7,-150.39Z" style="fill:rgb(251,226,0);fill-rule:nonzero;"/>
                <path d="M1470.44,6.229C1531.86,6.229 1566.93,-31.338 1566.93,-92.725L1566.93,-149.763C1566.93,-194.265 1550.64,-222.47 1513.7,-247.541L1477.37,-271.986C1465.41,-279.508 1460.38,-289.536 1460.38,-302.072L1460.38,-351.035C1460.38,-361.693 1462.27,-366.082 1469.19,-366.082C1474.86,-366.082 1477.37,-361.693 1477.37,-351.035L1477.37,-288.988L1562.54,-288.988L1562.54,-342.237C1562.54,-401.751 1526.22,-438.711 1466.67,-438.711C1409.02,-438.711 1373.33,-401.731 1373.33,-342.186L1373.33,-299.565C1373.33,-255.063 1389.61,-226.857 1427.18,-201.786L1462.9,-177.341C1474.85,-169.82 1479.88,-159.791 1479.88,-147.256L1479.88,-84.577C1479.88,-71.414 1477.37,-66.4 1469.82,-66.4C1461.64,-66.4 1458.49,-71.414 1458.49,-84.577L1458.49,-161.672L1373.33,-161.672L1373.33,-92.757C1373.33,-31.338 1409.65,6.229 1470.44,6.229Z" style="fill:rgb(251,226,0);fill-rule:nonzero;"/>
            </g>
        </g>
        <g transform="matrix(1,0,0,1,6902,4080)">
            <path d="M1755.26,-1287.03L1770.25,-1338.92L1833.21,-1338.93C1835.8,-1338.96 1838.01,-1340.7 1838.74,-1343.06L1845.95,-1366.91L1780.31,-1366.81C1780.31,-1366.81 1779.04,-1366.96 1778.48,-1365.95C1778.3,-1365.63 1777.45,-1364.09 1777.45,-1364.09C1777.45,-1364.09 1784.62,-1388.76 1794.93,-1388.76L1848.16,-1388.76C1850.76,-1388.76 1852.96,-1390.46 1853.71,-1392.81L1862.61,-1422.96L1797.62,-1423.06C1776.55,-1421.53 1761.16,-1404.03 1751.46,-1370.57L1725.64,-1282.77L1749.63,-1282.77C1752.3,-1282.77 1754.57,-1284.58 1755.26,-1287.03Z" style="fill:white;fill-rule:nonzero;"/>
            <path d="M1950.83,-1286.16L1918.13,-1422.95C1917.07,-1422.94 1900.85,-1422.95 1898.78,-1422.95C1894.68,-1422.95 1893.23,-1421.01 1892.34,-1419.25L1832.32,-1282.77L1855.85,-1282.77C1860.52,-1282.77 1861.32,-1284.82 1862.04,-1286.4L1875.77,-1317.41L1912.83,-1317.57C1917.25,-1317.57 1918.48,-1314.51 1918.48,-1314.51L1925.98,-1282.77L1945.78,-1282.77C1945.78,-1282.77 1951.65,-1282.77 1950.83,-1286.16ZM1909.55,-1337.13L1887.04,-1337.13C1887.04,-1337.13 1886.05,-1337.09 1885.79,-1337.09C1884.79,-1337.09 1883.67,-1335.28 1883.67,-1335.28L1903.13,-1379.78L1912.64,-1339.64C1912.66,-1339.54 1913.13,-1337.13 1909.55,-1337.13Z" style="fill:white;fill-rule:nonzero;"/>
            <path d="M2085.84,-1422.96C2079.93,-1422.96 2076.8,-1422.96 2073.86,-1416.45L2035.77,-1332.65C2035.77,-1332.65 2035.27,-1331.59 2035.13,-1331.25C2034.38,-1329.43 2034.71,-1326.93 2034.71,-1326.93L2010.61,-1422.96L1987.79,-1422.96C1981.62,-1422.96 1977.12,-1422.96 1976.56,-1415.69L1962.93,-1282.77C1965.87,-1282.87 1978.45,-1282.77 1978.45,-1282.77C1989.09,-1282.77 1989.09,-1282.77 1989.77,-1289.94L1997.79,-1368.83L2018.83,-1284.67C2027.52,-1284.65 2019.62,-1284.65 2027.52,-1284.65L2031.86,-1284.65C2040.36,-1284.67 2040.36,-1284.67 2043,-1290.31L2078.29,-1368.26L2069.53,-1282.76L2085.84,-1282.76C2095.53,-1282.76 2095.53,-1282.76 2096.41,-1290.03L2110.06,-1422.95C2099.52,-1422.96 2085.84,-1422.96 2085.84,-1422.96Z" style="fill:white;fill-rule:nonzero;"/>
            <path d="M553.55,-1462.86L553.55,-1640.14L630.54,-1640.14C675.36,-1640.14 701.7,-1616.59 701.7,-1578.09C701.7,-1540.1 675.36,-1517.31 630.54,-1517.31L604.2,-1517.31L604.2,-1462.86L553.55,-1462.86ZM604.2,-1556.57L626.23,-1556.57C640.92,-1556.57 651.05,-1563.91 651.05,-1578.1C651.05,-1592.28 640.92,-1599.63 626.23,-1599.63L604.2,-1599.63L604.2,-1556.57Z" style="fill:rgb(251,226,0);fill-rule:nonzero;"/>
            <path d="M716.39,-1551.5C716.39,-1605.7 749.57,-1642.67 805.03,-1642.67C860.49,-1642.67 893.67,-1605.95 893.67,-1551.5C893.67,-1497.05 860.49,-1460.33 805.03,-1460.33C749.56,-1460.33 716.39,-1497.31 716.39,-1551.5ZM843.01,-1551.5C843.01,-1582.65 828.07,-1600.88 805.02,-1600.88C781.97,-1600.88 767.03,-1582.65 767.03,-1551.5C767.03,-1520.35 781.97,-1502.12 805.02,-1502.12C828.07,-1502.12 843.01,-1520.36 843.01,-1551.5ZM786.54,-1655.34L804.77,-1698.39L859.73,-1698.39L823.77,-1655.34L786.54,-1655.34Z" style="fill:rgb(251,226,0);fill-rule:nonzero;"/>
            <path d="M910.88,-1508.45L959,-1518.07C964.57,-1503.13 976.98,-1497.56 990.91,-1497.56C1005.35,-1497.56 1013.7,-1503.38 1013.7,-1512.76C1013.7,-1542.39 914.93,-1518.58 914.93,-1591.52C914.93,-1620.39 940.51,-1642.68 985.84,-1642.68C1024.59,-1642.68 1052.19,-1628.24 1060.8,-1597.1L1011.67,-1587.48C1008.12,-1599.89 999.01,-1605.46 986.09,-1605.46C974.69,-1605.46 966.59,-1599.64 966.59,-1591.53C966.59,-1561.65 1065.36,-1586.21 1065.36,-1511.76C1065.36,-1482.38 1039.78,-1460.35 990.9,-1460.35C953.43,-1460.33 919.24,-1475.02 910.88,-1508.45Z" style="fill:rgb(251,226,0);fill-rule:nonzero;"/>
            <rect x="1079.8" y="-1551.5" width="89.9" height="35.45" style="fill:rgb(251,226,0);fill-rule:nonzero;"/>
            <path d="M540,-1352.72C540,-1394.25 564.92,-1422.26 600.85,-1422.26C625.19,-1422.26 645.28,-1411.06 655.13,-1386.14L638.9,-1380.15C631.37,-1399.08 618.42,-1407.39 600.85,-1407.39C574.97,-1407.39 557.39,-1386.72 557.39,-1352.73C557.39,-1318.73 574.39,-1298.07 603.17,-1298.07C616.69,-1298.07 628.86,-1303.86 636.59,-1312.36L636.59,-1340.56L604.14,-1342.11L604.14,-1356L653.98,-1356L653.98,-1306.94C642.39,-1291.1 623.85,-1283.18 603.18,-1283.18C564.92,-1283.18 540,-1311.19 540,-1352.72Z" style="fill:white;fill-rule:nonzero;"/>
            <path d="M682.55,-1285.11L682.55,-1420.32L734.7,-1420.32C761.74,-1420.32 779.13,-1405.06 779.13,-1379.18C779.13,-1359.28 768.31,-1345.76 750.54,-1340.93L781.06,-1285.11L761.36,-1285.11L733.35,-1339L699.93,-1339L699.93,-1285.11L682.55,-1285.11ZM699.94,-1353.69L733.94,-1353.69C750.94,-1353.69 761.75,-1362.96 761.75,-1379.19C761.75,-1395.22 750.93,-1404.88 733.94,-1404.88L699.94,-1404.88L699.94,-1353.69Z" style="fill:white;fill-rule:nonzero;"/>
            <path d="M895.99,-1285.11L885.17,-1316.02L822.01,-1316.02L811.19,-1285.11L793.42,-1285.11L841.9,-1420.32L865.85,-1420.32L914.53,-1285.11L895.99,-1285.11ZM827.04,-1330.51L880.16,-1330.51L854.08,-1405.26L853.11,-1405.26L827.04,-1330.51Z" style="fill:white;fill-rule:nonzero;"/>
            <path d="M932.69,-1285.1L932.69,-1420.32L975.96,-1420.32C1014.4,-1420.32 1039.9,-1393.28 1039.9,-1352.71C1039.9,-1312.15 1014.4,-1285.1 975.96,-1285.1L932.69,-1285.1ZM950.08,-1300.57L975.96,-1300.57C1004.16,-1300.57 1022.51,-1320.27 1022.51,-1352.72C1022.51,-1385.17 1004.16,-1404.87 975.96,-1404.87L950.08,-1404.87L950.08,-1300.57Z" style="fill:white;fill-rule:nonzero;"/>
            <path d="M1064.43,-1339.39L1064.43,-1420.32L1081.81,-1420.32L1081.81,-1339.39C1081.81,-1309.45 1098.61,-1298.63 1117.16,-1298.63C1135.7,-1298.63 1152.32,-1309.45 1152.32,-1339.39L1152.32,-1420.32L1169.7,-1420.32L1169.7,-1339.39C1169.7,-1300.95 1145.94,-1283.18 1117.16,-1283.18C1088.38,-1283.18 1064.43,-1300.95 1064.43,-1339.39Z" style="fill:white;fill-rule:nonzero;"/>
            <path d="M1289.46,-1285.11L1278.64,-1316.02L1215.48,-1316.02L1204.66,-1285.11L1186.89,-1285.11L1235.37,-1420.32L1259.32,-1420.32L1308,-1285.11L1289.46,-1285.11ZM1220.5,-1330.51L1273.62,-1330.51L1247.54,-1405.26L1246.57,-1405.26L1220.5,-1330.51Z" style="fill:white;fill-rule:nonzero;"/>
            <path d="M1434.14,-1322.59C1425.64,-1296.51 1406.71,-1284.73 1384.11,-1283.38L1381.79,-1276.43L1382.95,-1276.43C1393.57,-1276.43 1402.27,-1270.44 1402.27,-1259.24C1402.27,-1248.62 1393.96,-1240.7 1378.51,-1240.7C1369.62,-1240.7 1362.67,-1243.02 1357.07,-1247.27L1363.44,-1257.31C1368.08,-1254.03 1373.29,-1252.29 1378.51,-1252.29C1384.5,-1252.29 1388.75,-1254.99 1388.75,-1259.63C1388.75,-1264.65 1384.69,-1266.78 1379.67,-1266.78C1376.77,-1266.78 1374.84,-1266.39 1372.14,-1265.62L1369.24,-1269.87L1373.88,-1283.39C1341.62,-1286.29 1319.02,-1313.33 1319.02,-1352.73C1319.02,-1394.26 1344.13,-1422.27 1379.48,-1422.27C1403.62,-1422.27 1424.49,-1410.29 1433.18,-1382.87L1416.76,-1376.88C1409.61,-1397.74 1396.86,-1406.82 1379.48,-1406.82C1353.6,-1406.82 1336.4,-1386.54 1336.4,-1352.74C1336.4,-1318.94 1353.59,-1298.66 1379.48,-1298.66C1397.25,-1298.66 1410.19,-1307.35 1417.73,-1328.6L1434.14,-1322.59Z" style="fill:white;fill-rule:nonzero;"/>
            <path d="M1548.11,-1285.11L1537.29,-1316.02L1474.13,-1316.02L1463.31,-1285.11L1445.54,-1285.11L1494.02,-1420.32L1517.97,-1420.32L1566.65,-1285.11L1548.11,-1285.11ZM1489.19,-1432.88L1477.02,-1432.88L1477.02,-1438.48C1477.02,-1454.71 1485.33,-1459.92 1492.67,-1459.92C1504.45,-1459.92 1510.63,-1447.36 1517.2,-1447.36C1521.06,-1447.36 1522.8,-1452 1522.8,-1459.92L1534.97,-1459.92L1534.97,-1453.93C1534.97,-1437.13 1526.66,-1432.88 1519.32,-1432.88C1507.34,-1432.88 1501.36,-1445.44 1494.79,-1445.44C1491.51,-1445.44 1489.19,-1442.54 1489.19,-1432.88ZM1479.15,-1330.51L1532.27,-1330.51L1506.19,-1405.26L1505.22,-1405.26L1479.15,-1330.51Z" style="fill:white;fill-rule:nonzero;"/>
            <path d="M1577.66,-1352.72C1577.66,-1394.25 1602.77,-1422.26 1638.12,-1422.26C1673.47,-1422.26 1698.39,-1394.44 1698.39,-1352.72C1698.39,-1311 1673.47,-1283.18 1638.12,-1283.18C1602.77,-1283.18 1577.66,-1311.19 1577.66,-1352.72ZM1681,-1352.72C1681,-1386.52 1664,-1406.8 1638.12,-1406.8C1612.24,-1406.8 1595.04,-1386.52 1595.04,-1352.72C1595.04,-1318.92 1612.23,-1298.64 1638.12,-1298.64C1664.01,-1298.64 1681,-1318.92 1681,-1352.72Z" style="fill:white;fill-rule:nonzero;"/>
        </g>
        <g transform="matrix(1,0,0,1,6902,4080)">
            <g transform="matrix(1,0,0,1,540.001,-585.937)">
                <rect x="9.13" y="-82.921" width="10.647" height="82.914" style="fill:white;fill-rule:nonzero;"/>
                <path d="M47.854,-0.007L47.854,-33.179C47.854,-43.723 55.084,-52.134 65.87,-52.134C75.115,-52.134 80.448,-46.447 80.448,-34.956L80.448,-0.007L91.095,-0.007L91.095,-35.548C91.095,-53.317 82.578,-61.597 68.714,-61.597C60.418,-61.597 52.951,-57.575 48.684,-50.357L47.854,-50.357L46.671,-60.412L36.614,-60.412C37.207,-49.634 37.207,-38.974 37.207,-28.196L37.207,-0.007L47.854,-0.007Z" style="fill:white;fill-rule:nonzero;"/>
                <path d="M135.527,-0.007L157.32,-60.412L146.187,-60.412L129.368,-10.418L128.776,-10.418L111.839,-60.412L100.469,-60.412L122.262,-0.007L135.527,-0.007Z" style="fill:white;fill-rule:nonzero;"/>
                <path d="M219.635,-31.748C219.635,-50.592 208.75,-61.597 192.868,-61.597C174.853,-61.597 163.969,-47.865 163.969,-30.211C163.969,-12.554 174.972,1.177 192.987,1.177C204.839,1.177 213.72,-4.027 217.979,-14.333L208.513,-17.771C204.957,-10.657 199.861,-7.693 192.987,-7.693C182.794,-7.693 175.92,-15.044 174.853,-26.545L219.28,-26.545C219.516,-28.082 219.635,-29.974 219.635,-31.748ZM192.868,-52.726C201.994,-52.726 208.513,-46.324 209.461,-35.06L174.972,-35.06C176.394,-45.968 183.031,-52.726 192.868,-52.726Z" style="fill:white;fill-rule:nonzero;"/>
                <path d="M255.065,1.177C268.457,1.177 277.329,-5.563 277.329,-15.87C277.329,-40.52 241.67,-30.684 241.67,-45.142C241.67,-49.645 245.463,-53.319 253.05,-53.319C259.095,-53.319 264.666,-50.711 266.919,-44.075L275.91,-47.275C272.952,-56.985 263.837,-61.597 253.05,-61.597C239.659,-61.597 231.378,-54.738 231.378,-45.142C231.378,-20.255 267.037,-30.091 267.037,-15.87C267.037,-10.774 262.888,-7.101 255.065,-7.101C248.545,-7.101 241.315,-10.063 238.949,-17.529L229.956,-14.33C233.389,-3.08 244.278,1.177 255.065,1.177Z" style="fill:white;fill-rule:nonzero;"/>
                <path d="M314.173,1.177C319.03,1.177 323.058,0.231 327.679,-2.844L324.243,-10.182C321.163,-8.286 318.675,-7.693 315.832,-7.693C311.448,-7.693 308.131,-10.419 308.131,-16.344L308.131,-51.542L325.665,-51.542L325.665,-60.412L308.131,-60.412L308.131,-76.998L300.915,-76.998L298.312,-60.412L285.637,-60.412L285.637,-51.542L297.484,-51.542L297.484,-15.989C297.484,-4.736 304.345,1.177 314.173,1.177Z" style="fill:white;fill-rule:nonzero;"/>
                <path d="M345.456,-68.72C349.954,-68.72 353.387,-72.034 353.387,-76.413C353.387,-80.792 349.954,-84.106 345.456,-84.106C340.959,-84.106 337.408,-80.792 337.408,-76.413C337.408,-72.034 340.959,-68.72 345.456,-68.72ZM350.78,-0.007L350.78,-60.412L340.133,-60.412L340.133,-0.007L350.78,-0.007Z" style="fill:white;fill-rule:nonzero;"/>
                <path d="M378.028,-0.007L378.028,-34.482C378.028,-44.67 384.547,-52.134 393.793,-52.134C401.853,-52.134 406.476,-46.566 406.476,-35.904L406.476,-0.007L417.123,-0.007L417.123,-34.482C417.123,-44.67 423.642,-52.134 432.888,-52.134C440.948,-52.134 445.57,-46.566 445.57,-35.904L445.57,-0.007L456.218,-0.007L456.218,-37.325C456.218,-53.908 448.765,-61.597 435.969,-61.597C427.198,-61.597 420.086,-57.338 416.177,-49.765L415.348,-49.765C412.036,-57.693 406.12,-61.597 396.875,-61.597C389.526,-61.597 382.532,-57.93 378.739,-50.949L377.91,-50.949L376.845,-60.412L366.788,-60.412C367.381,-49.634 367.381,-38.974 367.381,-28.196L367.381,-0.007L378.028,-0.007Z" style="fill:white;fill-rule:nonzero;"/>
                <path d="M524.93,-31.748C524.93,-50.592 514.045,-61.597 498.164,-61.597C480.149,-61.597 469.264,-47.865 469.264,-30.211C469.264,-12.554 480.267,1.177 498.282,1.177C510.134,1.177 519.015,-4.027 523.274,-14.333L513.808,-17.771C510.253,-10.657 505.156,-7.693 498.282,-7.693C488.09,-7.693 481.215,-15.044 480.149,-26.545L524.575,-26.545C524.812,-28.082 524.93,-29.974 524.93,-31.748ZM498.164,-52.726C507.29,-52.726 513.808,-46.324 514.757,-35.06L480.267,-35.06C481.689,-45.968 488.327,-52.726 498.164,-52.726Z" style="fill:white;fill-rule:nonzero;"/>
                <path d="M549.216,-0.007L549.216,-33.179C549.216,-43.723 556.446,-52.134 567.232,-52.134C576.477,-52.134 581.81,-46.447 581.81,-34.956L581.81,-0.007L592.458,-0.007L592.458,-35.548C592.458,-53.317 583.94,-61.597 570.076,-61.597C561.78,-61.597 554.313,-57.575 550.046,-50.357L549.216,-50.357L548.033,-60.412L537.976,-60.412C538.569,-49.634 538.569,-38.974 538.569,-28.196L538.569,-0.007L549.216,-0.007Z" style="fill:white;fill-rule:nonzero;"/>
                <path d="M631.552,1.177C636.41,1.177 640.438,0.231 645.058,-2.844L641.622,-10.182C638.542,-8.286 636.054,-7.693 633.211,-7.693C628.828,-7.693 625.51,-10.419 625.51,-16.344L625.51,-51.542L643.044,-51.542L643.044,-60.412L625.51,-60.412L625.51,-76.998L618.294,-76.998L615.691,-60.412L603.016,-60.412L603.016,-51.542L614.863,-51.542L614.863,-15.989C614.863,-4.736 621.725,1.177 631.552,1.177Z" style="fill:white;fill-rule:nonzero;"/>
                <path d="M682.028,1.177C700.042,1.177 711.045,-12.552 711.045,-30.21C711.045,-47.867 700.042,-61.597 682.028,-61.597C664.013,-61.597 653.01,-47.867 653.01,-30.21C653.01,-12.552 664.013,1.177 682.028,1.177ZM682.028,-8.285C671.006,-8.285 663.658,-16.937 663.658,-30.21C663.658,-43.483 671.006,-52.134 682.028,-52.134C693.05,-52.134 700.398,-43.483 700.398,-30.21C700.398,-16.937 693.05,-8.285 682.028,-8.285Z" style="fill:white;fill-rule:nonzero;"/>
                <path d="M746.831,1.177C760.223,1.177 769.095,-5.563 769.095,-15.87C769.095,-40.52 733.436,-30.684 733.436,-45.142C733.436,-49.645 737.229,-53.319 744.816,-53.319C750.861,-53.319 756.432,-50.711 758.685,-44.075L767.676,-47.275C764.718,-56.985 755.603,-61.597 744.816,-61.597C731.425,-61.597 723.144,-54.738 723.144,-45.142C723.144,-20.255 758.803,-30.091 758.803,-15.87C758.803,-10.774 754.654,-7.101 746.831,-7.101C740.311,-7.101 733.081,-10.063 730.715,-17.529L721.722,-14.33C725.155,-3.08 736.044,1.177 746.831,1.177Z" style="fill:white;fill-rule:nonzero;"/>
                <path d="M864.463,-31.748C864.463,-50.592 853.578,-61.597 837.697,-61.597C819.682,-61.597 808.797,-47.865 808.797,-30.211C808.797,-12.554 819.8,1.177 837.815,1.177C849.667,1.177 858.548,-4.027 862.807,-14.333L853.341,-17.771C849.786,-10.657 844.689,-7.693 837.815,-7.693C827.623,-7.693 820.748,-15.044 819.682,-26.545L864.108,-26.545C864.345,-28.082 864.463,-29.974 864.463,-31.748ZM837.697,-52.726C846.823,-52.726 853.341,-46.324 854.29,-35.06L819.8,-35.06C821.222,-45.968 827.86,-52.726 837.697,-52.726Z" style="fill:white;fill-rule:nonzero;"/>
                <path d="M942.662,-0.007C960.554,-0.007 969.545,-8.405 969.545,-22.272C969.545,-32.821 964.34,-39.218 955.105,-42.175L955.105,-42.766C961.377,-45.368 965.991,-51.411 965.991,-61.012C965.991,-76.179 955.344,-82.921 939.818,-82.921L907.956,-82.921L907.956,-0.007L942.662,-0.007ZM918.604,-73.695L939.462,-73.695C949.892,-73.695 955.344,-68.717 955.344,-60.064C955.344,-51.411 949.892,-46.551 939.462,-46.551L918.604,-46.551L918.604,-73.695ZM918.604,-37.562L942.07,-37.562C952.854,-37.562 958.898,-32.465 958.898,-23.338C958.898,-14.211 952.854,-9.233 942.069,-9.233L918.604,-9.233L918.604,-37.562Z" style="fill:white;fill-rule:nonzero;"/>
                <path d="M1031.86,-40.439C1031.86,-53.909 1022.63,-61.597 1007.35,-61.597C994.899,-61.597 984.601,-55.683 981.88,-44.456L991.107,-41.148C993.596,-48.709 998.929,-52.726 1007.35,-52.726C1015.29,-52.726 1021.57,-48.828 1021.57,-40.085L1021.57,-37.013L1006.63,-36.186C989.57,-35.24 981.289,-28.262 981.289,-16.61C981.289,-5.919 989.096,1.177 1000.94,1.177C1010.66,1.177 1017.77,-3.317 1021.57,-10.903L1022.4,-10.903L1023.58,-0.007L1032.45,-0.007C1031.86,-10.811 1031.86,-21.496 1031.86,-32.283L1031.86,-40.439ZM1002.72,-7.93C995.848,-7.93 991.581,-11.378 991.581,-16.967C991.581,-24.101 997.981,-26.955 1008.29,-27.669L1021.57,-28.499C1021.21,-16.61 1013.15,-7.93 1002.72,-7.93Z" style="fill:white;fill-rule:nonzero;"/>
                <path d="M1058.75,-0.007L1058.75,-33.179C1058.75,-43.723 1065.98,-52.134 1076.77,-52.134C1086.01,-52.134 1091.35,-46.447 1091.35,-34.956L1091.35,-0.007L1101.99,-0.007L1101.99,-35.548C1101.99,-53.317 1093.48,-61.597 1079.61,-61.597C1071.32,-61.597 1063.85,-57.575 1059.58,-50.357L1058.75,-50.357L1057.57,-60.412L1047.51,-60.412C1048.11,-49.634 1048.11,-38.974 1048.11,-28.196L1048.11,-0.007L1058.75,-0.007Z" style="fill:white;fill-rule:nonzero;"/>
                <path d="M1128.65,-0.007L1128.65,-30.328L1155.9,-0.007L1170.11,-0.007L1141.21,-31.749L1169.52,-60.412L1155.66,-60.412L1128.65,-31.631L1128.65,-82.921L1118,-82.921L1118,-0.007L1128.65,-0.007Z" style="fill:white;fill-rule:nonzero;"/>
                <path d="M1186.12,-68.72C1190.61,-68.72 1194.05,-72.034 1194.05,-76.413C1194.05,-80.792 1190.61,-84.106 1186.12,-84.106C1181.62,-84.106 1178.07,-80.792 1178.07,-76.413C1178.07,-72.034 1181.62,-68.72 1186.12,-68.72ZM1191.44,-0.007L1191.44,-60.412L1180.79,-60.412L1180.79,-0.007L1191.44,-0.007Z" style="fill:white;fill-rule:nonzero;"/>
                <path d="M1218.69,-0.007L1218.69,-33.179C1218.69,-43.723 1225.92,-52.134 1236.7,-52.134C1245.95,-52.134 1251.28,-46.447 1251.28,-34.956L1251.28,-0.007L1261.93,-0.007L1261.93,-35.548C1261.93,-53.317 1253.41,-61.597 1239.55,-61.597C1231.25,-61.597 1223.78,-57.575 1219.52,-50.357L1218.69,-50.357L1217.5,-60.412L1207.45,-60.412C1208.04,-49.634 1208.04,-38.974 1208.04,-28.196L1208.04,-0.007L1218.69,-0.007Z" style="fill:white;fill-rule:nonzero;"/>
                <path d="M1304.94,24.871C1322.12,24.871 1331.82,15.171 1331.82,0.468L1331.82,-29.38C1331.82,-39.798 1331.82,-49.631 1332.42,-60.412L1322.36,-60.412L1321.18,-50.356L1320.35,-50.356C1316.2,-57.457 1309.56,-61.597 1300.44,-61.597C1285.03,-61.597 1274.97,-49.526 1274.97,-31.394C1274.97,-13.262 1285.03,-1.192 1300.44,-1.192C1309.68,-1.192 1316.2,-5.332 1320.35,-12.432L1321.18,-12.432L1321.18,0.112C1321.18,10.547 1314.89,16.001 1304.94,16.001C1295.69,16.001 1289.53,12.325 1287.04,4.974L1277.34,8.531C1281.01,18.958 1291.31,24.871 1304.94,24.871ZM1303.4,-10.655C1292.5,-10.655 1285.62,-19.188 1285.62,-31.394C1285.62,-43.601 1292.5,-52.134 1303.4,-52.134C1314.3,-52.134 1321.18,-43.719 1321.18,-31.513C1321.18,-19.306 1314.3,-10.655 1303.4,-10.655Z" style="fill:white;fill-rule:nonzero;"/>
            </g>
        </g>
    </g>
</svg>
