<?xml version="1.0" encoding="UTF-8" standalone="no"?>
<!DOCTYPE svg PUBLIC "-//W3C//DTD SVG 1.1//EN" "http://www.w3.org/Graphics/SVG/1.1/DTD/svg11.dtd">
<svg width="100%" height="100%" viewBox="0 0 1571 988" version="1.1" xmlns="http://www.w3.org/2000/svg" xmlns:xlink="http://www.w3.org/1999/xlink" xml:space="preserve" xmlns:serif="http://www.serif.com/" style="fill-rule:evenodd;clip-rule:evenodd;stroke-linejoin:round;stroke-miterlimit:2;">
    <g transform="matrix(1,0,0,1,5.7,-381.8)">
        <path d="M1209.5,793.2L1224.5,741.3L1287.5,741.3C1290.1,741.3 1292.3,739.5 1293,737.2L1300.2,713.3L1234.6,713.4C1234.6,713.4 1233.3,713.2 1232.8,714.3C1232.6,714.6 1231.8,716.2 1231.8,716.2C1231.8,716.2 1239,691.5 1249.3,691.5L1302.5,691.5C1305.1,691.5 1307.3,689.8 1308.1,687.5L1317,657.4L1252,657.3C1230.9,658.8 1215.5,676.3 1205.8,709.8L1180,797.6L1204,797.6C1206.6,797.5 1208.8,795.7 1209.5,793.2Z" style="fill:white;fill-rule:nonzero;"/>
        <path d="M1405.1,794.1L1372.4,657.3L1353.1,657.3C1349,657.3 1347.5,659.2 1346.7,661L1286.7,797.5L1310.2,797.5C1314.9,797.5 1315.7,795.5 1316.4,793.9L1330.1,762.9L1367.2,762.7C1371.6,762.7 1372.8,765.8 1372.8,765.8L1380.3,797.5L1400.1,797.5C1400.1,797.5 1405.9,797.5 1405.1,794.1ZM1363.8,743.2L1340.1,743.2C1339.1,743.2 1338,745 1338,745L1357.5,700.5L1367,740.6C1366.9,740.7 1367.4,743.2 1363.8,743.2Z" style="fill:white;fill-rule:nonzero;"/>
        <path d="M1540.1,657.3C1534.2,657.3 1531.1,657.3 1528.1,663.8L1490,747.6C1490,747.6 1489.5,748.7 1489.4,749C1488.7,750.8 1489,753.3 1489,753.3L1464.9,657.3L1442.1,657.3C1435.9,657.3 1431.4,657.3 1430.9,664.6L1417.3,797.5C1420.2,797.4 1432.8,797.5 1432.8,797.5C1443.4,797.5 1443.4,797.5 1444.1,790.3L1452.1,711.4L1473.1,795.6L1481.8,795.6L1486.1,795.6C1494.6,795.6 1494.6,795.6 1497.2,789.9L1532.5,712L1523.7,797.5L1540,797.5C1549.7,797.5 1549.7,797.5 1550.6,790.2L1564.2,657.3L1540.1,657.3Z" style="fill:white;fill-rule:nonzero;"/>
        <path d="M7.8,617.4L7.8,440.1L84.8,440.1C129.6,440.1 156,463.7 156,502.1C156,540.1 129.7,562.9 84.8,562.9L58.5,562.9L58.5,617.3L7.8,617.3L7.8,617.4ZM58.5,523.7L80.5,523.7C95.2,523.7 105.3,516.4 105.3,502.2C105.3,488 95.2,480.7 80.5,480.7L58.5,480.7L58.5,523.7Z" style="fill:rgb(251,226,0);fill-rule:nonzero;"/>
        <path d="M170.7,528.8C170.7,474.6 203.9,437.6 259.3,437.6C314.7,437.6 347.9,474.3 347.9,528.8C347.9,583.2 314.7,620 259.3,620C203.9,620 170.7,583 170.7,528.8ZM297.3,528.8C297.3,497.7 282.4,479.4 259.3,479.4C236.2,479.4 221.3,497.6 221.3,528.8C221.3,560 236.2,578.2 259.3,578.2C282.4,578.2 297.3,559.9 297.3,528.8ZM240.8,424.9L259,381.8L314,381.8L278,424.9L240.8,424.9Z" style="fill:rgb(251,226,0);fill-rule:nonzero;"/>
        <path d="M365.2,571.8L413.3,562.2C418.9,577.1 431.3,582.7 445.2,582.7C459.6,582.7 468,576.9 468,567.5C468,537.9 369.2,561.7 369.2,488.7C369.2,459.8 394.8,437.5 440.1,437.5C478.8,437.5 506.5,451.9 515.1,483.1L466,492.7C462.5,480.3 453.3,474.7 440.4,474.7C429,474.7 420.9,480.5 420.9,488.6C420.9,518.5 519.7,493.9 519.7,568.4C519.7,597.8 494.1,619.8 445.2,619.8C407.7,619.9 373.5,605.3 365.2,571.8Z" style="fill:rgb(251,226,0);fill-rule:nonzero;"/>
        <rect x="534.1" y="528.7" width="89.9" height="35.5" style="fill:rgb(251,226,0);fill-rule:nonzero;"/>
        <path d="M-5.7,727.6C-5.7,686.1 19.2,658.1 55.1,658.1C79.4,658.1 99.5,669.3 109.4,694.2L93.2,700.2C85.7,681.3 72.7,673 55.1,673C29.2,673 11.6,693.7 11.6,727.7C11.6,761.7 28.6,782.4 57.4,782.4C70.9,782.4 83.1,776.6 90.8,768.1L90.8,739.9L58.3,738.4L58.3,724.5L108.1,724.5L108.1,773.6C96.5,789.4 78,797.4 57.3,797.4C19.2,797.1 -5.7,769.1 -5.7,727.6Z" style="fill:white;fill-rule:nonzero;"/>
        <path d="M136.8,795.2L136.8,660L189,660C216,660 233.4,675.3 233.4,701.1C233.4,721 222.6,734.5 204.8,739.3L235.3,795.1L215.6,795.1L187.6,741.2L154.2,741.2L154.2,795.1L136.8,795.1L136.8,795.2ZM154.2,726.6L188.2,726.6C205.2,726.6 216,717.3 216,701.1C216,685.1 205.2,675.4 188.2,675.4L154.2,675.4L154.2,726.6Z" style="fill:white;fill-rule:nonzero;"/>
        <path d="M350.3,795.2L339.5,764.3L276.3,764.3L265.5,795.2L247.7,795.2L296.2,660L320.2,660L368.9,795.2L350.3,795.2ZM281.3,749.8L334.4,749.8L308.4,675L307.4,675L281.3,749.8Z" style="fill:white;fill-rule:nonzero;"/>
        <path d="M387,795.2L387,660L430.3,660C468.7,660 494.2,687 494.2,727.6C494.2,768.2 468.7,795.2 430.3,795.2L387,795.2ZM404.4,779.7L430.3,779.7C458.5,779.7 476.9,760 476.9,727.5C476.9,695 458.5,675.3 430.3,675.3L404.4,675.3L404.4,779.7Z" style="fill:white;fill-rule:nonzero;"/>
        <path d="M518.7,740.9L518.7,660L536.1,660L536.1,740.9C536.1,770.8 552.9,781.7 571.4,781.7C589.9,781.7 606.6,770.9 606.6,740.9L606.6,660L624,660L624,740.9C624,779.3 600.2,797.1 571.5,797.1C542.7,797.1 518.7,779.3 518.7,740.9Z" style="fill:white;fill-rule:nonzero;"/>
        <path d="M743.7,795.2L732.9,764.3L669.7,764.3L658.9,795.2L641.1,795.2L689.7,660L713.7,660L762.4,795.2L743.7,795.2ZM674.8,749.8L727.9,749.8L701.8,675L700.8,675L674.8,749.8Z" style="fill:white;fill-rule:nonzero;"/>
        <path d="M888.4,757.7C879.9,783.8 861,795.6 838.4,796.9L836.1,803.9L837.3,803.9C847.9,803.9 856.6,809.9 856.6,821.1C856.6,831.7 848.3,839.6 832.8,839.6C823.9,839.6 817,837.3 811.4,833L817.8,823C822.4,826.3 827.7,828 832.9,828C838.9,828 843.1,825.3 843.1,820.7C843.1,815.7 839,813.6 834,813.6C831.1,813.6 829.2,814 826.5,814.8L823.6,810.6L828.2,797.1C795.9,794.2 773.3,767.2 773.3,727.8C773.3,686.3 798.4,658.3 833.8,658.3C857.9,658.3 878.8,670.3 887.5,697.7L871.1,703.7C864,682.8 851.2,673.8 833.8,673.8C807.9,673.8 790.7,694.1 790.7,727.9C790.7,761.7 807.9,782 833.8,782C851.6,782 864.5,773.3 872,752.1L888.4,757.7Z" style="fill:white;fill-rule:nonzero;"/>
        <path d="M1002.4,795.2L991.6,764.3L928.4,764.3L917.6,795.2L899.8,795.2L948.3,660L972.3,660L1021,795.2L1002.4,795.2ZM943.5,647.4L931.3,647.4L931.3,641.8C931.3,625.6 939.6,620.4 946.9,620.4C958.7,620.4 964.9,633 971.4,633C975.3,633 977,628.4 977,620.4L989.2,620.4L989.2,626.4C989.2,643.2 980.9,647.5 973.6,647.5C961.6,647.5 955.6,634.9 949.1,634.9C945.8,634.8 943.5,637.7 943.5,647.4ZM933.4,749.8L986.5,749.8L960.5,675L959.5,675L933.4,749.8Z" style="fill:white;fill-rule:nonzero;"/>
        <path d="M1031.9,727.6C1031.9,686.1 1057,658.1 1092.4,658.1C1127.8,658.1 1152.7,685.9 1152.7,727.6C1152.7,769.3 1127.8,797.1 1092.4,797.1C1057,797.1 1031.9,769.1 1031.9,727.6ZM1135.3,727.6C1135.3,693.8 1118.3,673.5 1092.4,673.5C1066.5,673.5 1049.3,693.8 1049.3,727.6C1049.3,761.4 1066.5,781.7 1092.4,781.7C1118.3,781.6 1135.3,761.4 1135.3,727.6Z" style="fill:white;fill-rule:nonzero;"/>
        <path d="M1.5,1297.2C1.5,1271.8 15.1,1254.7 36,1254.7C48.2,1254.7 57.1,1260.3 62.7,1269.9L63.8,1269.9L63.8,1225.9L78.2,1225.9L78.2,1294.3C78.2,1308.9 78.2,1323.2 79,1337.8L65.4,1337.8L63.8,1324.2L62.7,1324.2C57.1,1333.8 48.1,1339.4 36,1339.4C15.1,1339.4 1.5,1322.5 1.5,1297.2ZM63.9,1297.2C63.9,1279.3 54.5,1267.5 39.9,1267.5C25.3,1267.5 15.9,1279.3 15.9,1297.2C15.9,1315.1 25.3,1326.6 39.9,1326.6C54.4,1326.6 63.9,1315.1 63.9,1297.2Z" style="fill:white;fill-rule:nonzero;"/>
        <path d="M171.3,1302L111.3,1302C112.7,1317.5 122,1327.4 135.8,1327.4C145.1,1327.4 152,1323.4 156.8,1313.8L169.6,1318.4C163.8,1332.3 151.8,1339.4 135.9,1339.4C111.6,1339.4 96.7,1320.8 96.7,1297C96.7,1273.2 111.4,1254.6 135.7,1254.6C157.1,1254.6 171.8,1269.5 171.8,1294.9C171.8,1297.4 171.6,1299.9 171.3,1302ZM111.5,1290.5L158,1290.5C156.7,1275.3 147.9,1266.7 135.6,1266.7C122.4,1266.7 113.4,1275.8 111.5,1290.5Z" style="fill:white;fill-rule:nonzero;"/>
        <path d="M230.5,1337.9L230.5,1225.9L271.3,1225.9C296.1,1225.9 310.5,1238.7 310.5,1260.8C310.5,1282.7 296.1,1295.5 271.3,1295.5L244.9,1295.5L244.9,1337.9L230.5,1337.9ZM244.9,1282.7L270.6,1282.7C286.6,1282.7 296,1274.9 296,1260.8C296,1246.7 286.6,1238.7 270.6,1238.7L244.9,1238.7L244.9,1282.7Z" style="fill:white;fill-rule:nonzero;"/>
        <path d="M396.3,1302L336.3,1302C337.7,1317.5 347,1327.4 360.8,1327.4C370.1,1327.4 377,1323.4 381.8,1313.8L394.6,1318.4C388.8,1332.3 376.8,1339.4 360.9,1339.4C336.6,1339.4 321.7,1320.8 321.7,1297C321.7,1273.2 336.4,1254.6 360.7,1254.6C382.1,1254.6 396.8,1269.5 396.8,1294.9C396.8,1297.4 396.6,1299.9 396.3,1302ZM336.5,1290.5L383,1290.5C381.7,1275.3 372.9,1266.7 360.6,1266.7C347.4,1266.7 338.4,1275.8 336.5,1290.5Z" style="fill:white;fill-rule:nonzero;"/>
        <path d="M473.6,1369.8L473.6,1324.2L472.5,1324.2C466.9,1333.8 458.1,1339.4 445.8,1339.4C424.8,1339.4 411.3,1322.4 411.3,1297C411.3,1271.6 424.9,1254.6 445.8,1254.6C458.1,1254.6 466.9,1260.2 472.5,1269.8L473.6,1269.8L475.2,1256.2L488.8,1256.2C488,1270.8 488,1285.1 488,1299.7L488,1369.7L473.6,1369.7L473.6,1369.8ZM473.6,1297.2C473.6,1279.3 464.2,1267.5 449.6,1267.5C435,1267.5 425.6,1279.3 425.6,1297.2C425.6,1315.1 435,1326.6 449.6,1326.6C464.1,1326.6 473.6,1315.1 473.6,1297.2Z" style="fill:white;fill-rule:nonzero;"/>
        <path d="M509.5,1304.2L509.5,1256.2L523.9,1256.2L523.9,1303.4C523.9,1318.9 531.1,1326.6 543.6,1326.6C558.2,1326.6 567.9,1315.2 567.9,1301L567.9,1256.2L582.3,1256.2L582.3,1294.3C582.3,1308.9 582.3,1323.2 583.1,1337.8L569.5,1337.8L567.9,1324.2L566.8,1324.2C561,1334 551,1339.4 539.8,1339.4C521.1,1339.4 509.5,1328.2 509.5,1304.2Z" style="fill:white;fill-rule:nonzero;"/>
        <path d="M675.4,1302L615.4,1302C616.8,1317.5 626.1,1327.4 639.9,1327.4C649.2,1327.4 656.1,1323.4 660.9,1313.8L673.7,1318.4C667.9,1332.3 655.9,1339.4 640,1339.4C615.7,1339.4 600.8,1320.8 600.8,1297C600.8,1273.2 615.5,1254.6 639.8,1254.6C661.2,1254.6 675.9,1269.5 675.9,1294.9C675.9,1297.4 675.7,1299.9 675.4,1302ZM615.6,1290.5L662.1,1290.5C660.8,1275.3 652,1266.7 639.7,1266.7C626.5,1266.7 617.5,1275.8 615.6,1290.5Z" style="fill:white;fill-rule:nonzero;"/>
        <path d="M694.3,1337.8L694.3,1299.7C694.3,1285.1 694.3,1270.8 693.5,1256.2L707.1,1256.2L708.7,1269.8L709.8,1269.8C715.6,1260 725.6,1254.6 736.8,1254.6C755.5,1254.6 767,1265.8 767,1289.8L767,1337.8L752.6,1337.8L752.6,1290.6C752.6,1275.1 745.4,1267.4 732.9,1267.4C718.3,1267.4 708.6,1278.8 708.6,1293L708.6,1337.8L694.3,1337.8Z" style="fill:white;fill-rule:nonzero;"/>
        <path d="M784.6,1297C784.6,1273.2 799.5,1254.6 823.8,1254.6C848.1,1254.6 863,1273.2 863,1297C863,1320.8 848.1,1339.4 823.8,1339.4C799.5,1339.4 784.6,1320.9 784.6,1297ZM848.6,1297C848.6,1279.1 838.7,1267.4 823.8,1267.4C808.9,1267.4 799,1279.1 799,1297C799,1314.9 808.9,1326.6 823.8,1326.6C838.7,1326.6 848.6,1315 848.6,1297Z" style="fill:white;fill-rule:nonzero;"/>
        <path d="M877.4,1318.5L889.6,1314.2C892.8,1324.3 902.6,1328.3 911.4,1328.3C922,1328.3 927.6,1323.3 927.6,1316.5C927.6,1297.3 879.5,1310.6 879.5,1277C879.5,1264 890.7,1254.8 908.8,1254.8C923.4,1254.8 935.7,1261 939.7,1274.2L927.5,1278.5C924.5,1269.5 916.9,1266 908.8,1266C898.6,1266 893.4,1271 893.4,1277C893.4,1296.5 941.5,1283.2 941.5,1316.5C941.5,1330.4 929.5,1339.5 911.4,1339.5C896.7,1339.4 882,1333.7 877.4,1318.5Z" style="fill:white;fill-rule:nonzero;"/>
        <path d="M1075.3,1337.8L1066.3,1312.2L1014,1312.2L1005,1337.8L990.3,1337.8L1030.4,1225.9L1050.2,1225.9L1090.5,1337.8L1075.3,1337.8ZM1018.3,1300.2L1062.3,1300.2L1040.7,1238.3L1039.9,1238.3L1018.3,1300.2Z" style="fill:white;fill-rule:nonzero;"/>
        <path d="M1104.6,1337.8L1104.6,1299.7C1104.6,1285.1 1104.6,1270.8 1103.8,1256.2L1117.4,1256.2L1119,1269.8L1120.1,1269.8C1125.9,1260 1135.9,1254.6 1147.1,1254.6C1165.8,1254.6 1177.3,1265.8 1177.3,1289.8L1177.3,1337.8L1163,1337.8L1163,1290.6C1163,1275.1 1155.8,1267.4 1143.3,1267.4C1128.7,1267.4 1119,1278.8 1119,1293L1119,1337.8L1104.6,1337.8Z" style="fill:white;fill-rule:nonzero;"/>
        <path d="M1195.3,1234.7C1195.3,1228.8 1200.1,1224.3 1206.2,1224.3C1212.3,1224.3 1216.9,1228.8 1216.9,1234.7C1216.9,1240.6 1212.3,1245.1 1206.2,1245.1C1200.1,1245.1 1195.3,1240.6 1195.3,1234.7ZM1199,1337.8L1199,1256.2L1213.4,1256.2L1213.4,1337.8L1199,1337.8Z" style="fill:white;fill-rule:nonzero;"/>
        <path d="M1235.7,1337.8L1235.7,1299.7C1235.7,1285.1 1235.7,1270.8 1234.9,1256.2L1248.5,1256.2L1249.9,1269L1251,1269C1256.1,1259.6 1265.6,1254.6 1275.5,1254.6C1288,1254.6 1296,1259.9 1300.4,1270.6L1301.5,1270.6C1306.8,1260.4 1316.4,1254.6 1328.2,1254.6C1345.5,1254.6 1355.5,1265 1355.5,1287.4L1355.5,1337.8L1341.1,1337.8L1341.1,1289.3C1341.1,1274.9 1334.9,1267.4 1324,1267.4C1311.5,1267.4 1302.7,1277.5 1302.7,1291.2L1302.7,1337.7L1288.3,1337.7L1288.3,1289.2C1288.3,1274.8 1282.1,1267.3 1271.2,1267.3C1258.7,1267.3 1249.9,1277.4 1249.9,1291.1L1249.9,1337.6L1235.7,1337.6L1235.7,1337.8Z" style="fill:white;fill-rule:nonzero;"/>
        <path d="M1442.2,1294.3C1442.2,1308.9 1442.2,1323.2 1443,1337.8L1431,1337.8L1429.4,1323.1L1428.3,1323.1C1423.2,1333.3 1413.6,1339.4 1400.5,1339.4C1384.5,1339.4 1374,1329.8 1374,1315.4C1374,1299.7 1385.2,1290.3 1408.2,1289L1428.4,1287.9L1428.4,1283.7C1428.4,1271.9 1419.9,1266.6 1409.2,1266.6C1397.8,1266.6 1390.6,1272 1387.3,1282.3L1374.8,1277.8C1378.5,1262.6 1392.4,1254.6 1409.2,1254.6C1429.8,1254.6 1442.3,1265 1442.3,1283.2L1442.3,1294.3L1442.2,1294.3ZM1428.3,1299.4L1410.4,1300.5C1396.5,1301.5 1387.9,1305.3 1387.9,1314.9C1387.9,1322.4 1393.7,1327.1 1402.9,1327.1C1416.9,1327.1 1427.8,1315.4 1428.3,1299.4Z" style="fill:white;fill-rule:nonzero;"/>
        <path d="M1460.4,1234.7C1460.4,1228.8 1465.2,1224.3 1471.3,1224.3C1477.4,1224.3 1482,1228.8 1482,1234.7C1482,1240.6 1477.4,1245.1 1471.3,1245.1C1465.2,1245.1 1460.4,1240.6 1460.4,1234.7ZM1464.1,1337.8L1464.1,1256.2L1478.5,1256.2L1478.5,1337.8L1464.1,1337.8Z" style="fill:white;fill-rule:nonzero;"/>
        <path d="M1496.9,1318.5L1509.1,1314.2C1512.3,1324.3 1522.1,1328.3 1530.9,1328.3C1541.5,1328.3 1547.1,1323.3 1547.1,1316.5C1547.1,1297.3 1499,1310.6 1499,1277C1499,1264 1510.2,1254.8 1528.3,1254.8C1542.9,1254.8 1555.2,1261 1559.2,1274.2L1547,1278.5C1544,1269.5 1536.4,1266 1528.3,1266C1518.1,1266 1512.9,1271 1512.9,1277C1512.9,1296.5 1561,1283.2 1561,1316.5C1561,1330.4 1549,1339.5 1530.9,1339.5C1516.2,1339.4 1501.5,1333.7 1496.9,1318.5Z" style="fill:white;fill-rule:nonzero;"/>
        <path d="M-2.5,1114L-2.5,958.7C-2.5,922 19.5,899.2 55.4,899.2C92.5,899.2 114.9,922 114.9,958.7L114.9,1003.5L62.3,1003.5L62.3,954.1C62.3,946.8 60.8,944.1 56.9,944.1C52.3,944.1 51.1,946.8 51.1,954.1L51.1,1118.6C51.1,1125.9 52.3,1128.6 56.9,1128.6C60.8,1128.6 62.3,1125.9 62.3,1118.6L62.3,1058L114.8,1058L114.8,1114C114.8,1150.7 92.4,1173.5 55.3,1173.5C19.5,1173.4 -2.5,1150.7 -2.5,1114Z" style="fill:rgb(251,226,0);fill-rule:nonzero;"/>
        <path d="M124.5,903.1L178.2,903.1L178.2,1125.6L224.2,1125.6L224.2,1169.6L124.6,1169.6L124.6,903.1L124.5,903.1Z" style="fill:rgb(251,226,0);fill-rule:nonzero;"/>
        <path d="M258.2,839.7L312.3,839.7L268.7,888.8L226.2,888.8L258.2,839.7ZM230,903.1L283.7,903.1L283.7,1169.6L230,1169.6L230,903.1Z" style="fill:rgb(251,226,0);fill-rule:nonzero;"/>
        <path d="M297.5,903.1L362.4,903.1L380.9,1044.8L381.7,1044.8L381.7,903.1L426.5,903.1L426.5,1169.6L364.7,1169.6L343.1,1004.3L342.3,1004.3L342.3,1169.6L297.5,1169.6L297.5,903.1Z" style="fill:rgb(251,226,0);fill-rule:nonzero;"/>
        <rect x="440.4" y="903.1" width="53.7" height="266.5" style="fill:rgb(251,226,0);fill-rule:nonzero;"/>
        <path d="M506.1,1114L506.1,958.7C506.1,922 528.1,899.2 564,899.2C601.1,899.2 623.5,922 623.5,958.7L623.5,1003.5L571,1003.5L571,954.1C571,946.8 569.5,944.1 565.6,944.1C561,944.1 559.8,946.8 559.8,954.1L559.8,1118.6C559.8,1125.9 561,1128.6 565.6,1128.6C569.5,1128.6 571,1125.9 571,1118.6L571,1058L623.5,1058L623.5,1114C623.5,1150.7 601.1,1173.5 564,1173.5C528.1,1173.4 506.1,1150.7 506.1,1114Z" style="fill:rgb(251,226,0);fill-rule:nonzero;"/>
        <path d="M652.1,903.1L727.8,903.1L754.1,1169.6L699.6,1169.6L696.9,1120.9L679.9,1120.9L677.2,1169.6L625.8,1169.6L652.1,903.1ZM695.4,1076.9L688.8,947.1L688,947.1L681.4,1076.9L695.4,1076.9Z" style="fill:rgb(251,226,0);fill-rule:nonzero;"/>
        <path d="M813.9,903.1L890.8,903.1L899.7,1012.4L900.5,1012.4L909.8,903.1L993.2,903.1L993.2,1169.6L940.3,1169.6L940.3,948.3L939.5,948.3L919.8,1169.6L879.6,1169.6L859.9,948.3L859.1,948.3L859.1,1169.6L813.9,1169.6L813.9,903.1Z" style="fill:rgb(251,226,0);fill-rule:nonzero;"/>
        <path d="M1007,903.1L1110.5,903.1L1110.5,947.1L1060.7,947.1L1060.7,1004.3L1103.6,1004.3L1103.6,1048.3L1060.7,1048.3L1060.7,1125.5L1110.5,1125.5L1110.5,1169.5L1007,1169.5L1007,903.1ZM1059.9,839.7L1114,839.7L1070.4,888.8L1027.9,888.8L1059.9,839.7Z" style="fill:rgb(251,226,0);fill-rule:nonzero;"/>
        <path d="M1119,903.1L1179.3,903.1C1219.1,903.1 1239.2,923.6 1239.2,963.4L1239.2,1109.4C1239.2,1149.2 1219.1,1169.7 1179.3,1169.7L1119,1169.7L1119,903.1ZM1174.6,1125.6C1183.5,1125.6 1185.4,1122.5 1185.4,1109.8L1185.4,963C1185.4,950.3 1183.5,947.2 1174.6,947.2L1172.7,947.2L1172.7,1125.6L1174.6,1125.6Z" style="fill:rgb(251,226,0);fill-rule:nonzero;"/>
        <rect x="1250.7" y="903.1" width="53.7" height="266.5" style="fill:rgb(251,226,0);fill-rule:nonzero;"/>
        <path d="M1316.4,1114L1316.4,958.7C1316.4,922 1338.4,899.2 1374.3,899.2C1411.4,899.2 1433.8,922 1433.8,958.7L1433.8,1003.5L1381.3,1003.5L1381.3,954.1C1381.3,946.8 1379.8,944.1 1375.9,944.1C1371.3,944.1 1370.1,946.8 1370.1,954.1L1370.1,1118.6C1370.1,1125.9 1371.3,1128.6 1375.9,1128.6C1379.8,1128.6 1381.3,1125.9 1381.3,1118.6L1381.3,1058L1433.8,1058L1433.8,1114C1433.8,1150.7 1411.4,1173.5 1374.3,1173.5C1338.4,1173.4 1316.4,1150.7 1316.4,1114Z" style="fill:rgb(251,226,0);fill-rule:nonzero;"/>
        <path d="M1462.4,903.1L1538.1,903.1L1564.4,1169.6L1509.9,1169.6L1507.2,1120.9L1490.2,1120.9L1487.5,1169.6L1436.1,1169.6L1462.4,903.1ZM1505.6,1076.9L1499,947.1L1498.2,947.1L1491.6,1076.9L1505.6,1076.9Z" style="fill:rgb(251,226,0);fill-rule:nonzero;"/>
    </g>
</svg>
