<?xml version="1.0" encoding="UTF-8" standalone="no"?>
<!DOCTYPE svg PUBLIC "-//W3C//DTD SVG 1.1//EN" "http://www.w3.org/Graphics/SVG/1.1/DTD/svg11.dtd">
<svg width="100%" height="100%" viewBox="0 0 50 50" version="1.1" xmlns="http://www.w3.org/2000/svg" xmlns:xlink="http://www.w3.org/1999/xlink" xml:space="preserve" xmlns:serif="http://www.serif.com/" style="fill-rule:evenodd;clip-rule:evenodd;stroke-linejoin:round;stroke-miterlimit:2;">
    <g transform="matrix(1,0,0,1,-81.17,-457.014)">
        <g transform="matrix(1,0,0,2.3871,25,-303.774)">
            <g transform="matrix(1.06383,0,0,0.445658,-0.212975,278.599)">
                <path d="M59.215,129.422C55.356,125.235 53,119.644 53,113.502L53,113.5C53,100.521 63.521,90 76.5,90C87.659,90 97.001,97.777 99.401,108.207L88.025,110.105C87.776,110.147 87.554,110.289 87.412,110.497L87.41,110.501C85.856,109.351 83.495,107.675 82.444,107.29C82.163,107.197 81.869,107.149 81.573,107.146C82.092,106.027 82.68,104.941 83.333,103.894C84.219,102.419 84.708,101.606 84.042,100.916C80.329,97.098 73.416,98.523 68.538,99.927C66.137,100.621 64.838,101.549 64.569,102.764C64.423,103.551 64.695,104.359 65.285,104.898C66.894,106.466 68.077,108.42 68.72,110.573L68.621,110.543C67.326,110.164 65.948,110.916 65.566,112.209L65.532,112.335C65.387,112.809 65.391,113.317 65.544,113.788C64.399,113.931 63.441,114.74 63.109,115.845L63.088,115.913C62.856,116.691 62.96,117.531 63.373,118.23C62.769,118.566 62.319,119.127 62.121,119.79L62.065,119.978C61.912,120.483 61.914,121.021 62.068,121.526C61.299,121.756 60.695,122.36 60.464,123.129L60.246,123.855C60.063,124.463 60.13,125.12 60.433,125.679C60.504,125.808 60.586,125.93 60.679,126.045C60.091,127.216 59.603,128.342 59.215,129.422ZM99.745,110.026C99.913,111.16 100,112.32 100,113.5L100,113.502C100,117.002 99.235,120.323 97.862,123.308L92.027,124.613L89.284,111.771L99.745,110.026ZM96.736,125.456C95.493,127.556 93.932,129.446 92.119,131.06C91.617,129.316 90.824,127.441 89.741,125.439C89.919,125.323 90.084,125.204 90.235,125.083L90.413,125.913C90.504,126.339 90.883,126.645 91.318,126.645C91.385,126.645 91.453,126.638 91.519,126.623L96.736,125.456ZM90.534,132.352C86.618,135.272 81.762,137 76.502,137L76.498,137C70.402,137 64.848,134.679 60.672,130.872C61.059,129.649 61.597,128.346 62.286,126.966L63.08,127.203C63.688,127.387 64.345,127.32 64.904,127.017C65.464,126.717 65.881,126.205 66.062,125.596L66.279,124.87C66.355,124.606 66.385,124.332 66.367,124.059L66.7,124.159C66.949,124.233 67.208,124.271 67.468,124.271C68.647,124.271 69.693,123.492 70.031,122.362L70.087,122.174C70.259,121.601 70.232,120.987 70.012,120.431C70.146,120.383 70.277,120.326 70.403,120.259C71.087,119.892 71.596,119.267 71.816,118.523L71.835,118.459C72.059,117.717 71.977,116.916 71.608,116.235C71.522,116.078 71.421,115.928 71.308,115.789C71.835,115.48 72.225,114.984 72.402,114.4L72.415,114.356C72.796,114.463 73.183,114.547 73.574,114.607C74.504,114.751 75.444,114.823 76.385,114.823C77.411,114.813 78.436,114.74 79.454,114.604C79.516,114.597 79.573,114.59 79.633,114.583C79.883,115.019 80.178,115.428 80.512,115.802C81.852,117.272 83.116,118.809 84.298,120.409C85.527,122.046 86.656,123.756 87.679,125.528C88.824,127.535 89.966,129.949 90.534,132.352ZM64.861,116.445L64.881,116.378C65.016,115.926 65.434,115.614 65.906,115.614C66.01,115.614 66.114,115.629 66.214,115.659L69.344,116.596C69.796,116.731 70.107,117.149 70.107,117.621C70.107,117.726 70.092,117.83 70.061,117.93L70.043,117.994C69.907,118.446 69.489,118.757 69.017,118.757C68.913,118.757 68.81,118.742 68.71,118.712L65.58,117.776C65.019,117.607 64.695,117.007 64.861,116.445ZM67.31,112.848L67.344,112.722C67.421,112.468 67.656,112.293 67.922,112.292C67.979,112.292 68.036,112.3 68.091,112.317L70.018,112.892C70.205,113.154 70.433,113.383 70.694,113.571C70.694,113.619 70.688,113.666 70.676,113.712L70.629,113.867C70.533,114.181 70.198,114.361 69.883,114.268L69.682,114.208L69.68,114.207L67.7,113.616C67.548,113.571 67.421,113.467 67.347,113.327C67.27,113.18 67.256,113.006 67.31,112.848ZM64.392,121.536C64.043,121.431 63.803,121.109 63.803,120.745C63.803,120.665 63.815,120.585 63.838,120.508L63.894,120.32C63.998,119.972 64.321,119.732 64.685,119.732C64.765,119.732 64.845,119.743 64.921,119.766L65.789,120.026L65.798,120.029L67.761,120.616C68.194,120.747 68.444,121.21 68.315,121.644L68.258,121.831C68.128,122.265 67.665,122.514 67.231,122.385L64.392,121.536ZM66.552,103.549C66.55,103.547 66.335,103.331 66.377,103.161C66.395,103.085 66.625,102.406 69.051,101.705C73.307,100.48 79.238,99.199 82.365,101.877C82.212,102.167 81.961,102.584 81.747,102.941C80.882,104.309 80.14,105.751 79.53,107.25C76.602,107.577 71.515,108.6 70.747,109.119C70.591,109.227 70.45,109.356 70.327,109.5C69.552,107.271 68.275,105.249 66.596,103.591C66.586,103.582 66.562,103.559 66.552,103.549ZM62.02,124.386L62.237,123.66C62.323,123.374 62.629,123.209 62.915,123.294L63.452,123.455C63.47,123.461 63.488,123.467 63.507,123.471L64.14,123.661C64.426,123.747 64.591,124.053 64.506,124.339L64.289,125.065C64.22,125.295 64.007,125.453 63.767,125.453C63.714,125.453 63.662,125.445 63.611,125.43L62.385,125.063C62.099,124.977 61.934,124.672 62.02,124.386ZM89.78,122.953C89.503,123.288 89.179,123.582 88.819,123.826C87.884,122.268 86.87,120.759 85.783,119.303C84.084,117.018 82.615,115.36 82.086,114.779C82.492,114.676 82.779,114.307 82.779,113.887C82.779,113.635 82.676,113.393 82.493,113.22C81.825,112.578 80.898,112.601 80.08,112.674C79.823,112.697 79.542,112.73 79.236,112.766C77.453,113.03 75.641,113.034 73.856,112.778C73.206,112.703 72.574,112.512 71.991,112.215C71.772,112.107 71.592,111.936 71.471,111.724C71.37,111.345 71.483,110.939 71.766,110.667C74.548,109.879 77.393,109.333 80.268,109.036L80.277,109.035C80.784,108.956 81.3,108.954 81.807,109.028C82.757,109.376 85.87,111.629 87.655,113.001L89.78,122.953Z" style="fill:rgb(93,55,141);"/>
            </g>
        </g>
    </g>
</svg>
