<?xml version="1.0" encoding="UTF-8" standalone="no"?>
<!DOCTYPE svg PUBLIC "-//W3C//DTD SVG 1.1//EN" "http://www.w3.org/Graphics/SVG/1.1/DTD/svg11.dtd">
<svg width="100%" height="100%" viewBox="0 0 50 50" version="1.1" xmlns="http://www.w3.org/2000/svg" xmlns:xlink="http://www.w3.org/1999/xlink" xml:space="preserve" xmlns:serif="http://www.serif.com/" style="fill-rule:evenodd;clip-rule:evenodd;stroke-linejoin:round;stroke-miterlimit:2;">
    <g transform="matrix(1,0,0,1,-152,-457.014)">
        <g transform="matrix(1,0,0,2.3871,25,-303.774)">
            <g transform="matrix(1.06383,0,0,0.445658,70.6171,278.599)">
                <path d="M76.5,90C89.479,90 100,100.521 100,113.5L100,113.502C100,126.48 89.479,137 76.502,137L76.498,137C63.52,137 53,126.48 53,113.502L53,113.5C53,100.521 63.521,90 76.5,90C76.5,90 76.5,90 76.5,90Z" style="fill:rgb(93,55,141);"/>
            </g>
        </g>
        <g transform="matrix(1,0,0,2.3871,25,-303.774)">
            <g transform="matrix(0.443183,0,0,0.185658,129.841,320.737)">
                <path d="M22,15C17.053,15 13,19.053 13,24C13,25.953 13.779,27.648 14.844,29.125C9.573,32.12 6,38.05 6,45C6,46.097 6.903,47 8,47L36,47C37.097,47 38,46.097 38,45C38,38.05 34.427,32.12 29.156,29.125C30.221,27.648 31,25.953 31,24C31,19.053 26.947,15 22,15ZM78,15C73.053,15 69,19.053 69,24C69,25.953 69.779,27.648 70.844,29.125C65.573,32.12 62,38.05 62,45C62,46.097 62.903,47 64,47L84,47C84.009,47 84.019,47 84.028,47C85.126,47 86.028,46.097 86.028,45C86.028,43.903 85.126,43 84.028,43C84.019,43 84.009,43 84,43L66.281,43C66.977,37.481 70.265,33.077 74.594,31.594C75.401,31.318 75.947,30.554 75.947,29.701C75.947,29.049 75.628,28.436 75.094,28.063C73.823,27.15 73,25.679 73,24C73,21.215 75.215,19 78,19C80.785,19 83,21.215 83,24C83,25.679 82.177,27.15 80.906,28.063C80.372,28.436 80.053,29.049 80.053,29.701C80.053,30.554 80.599,31.318 81.406,31.594C86.264,33.258 90,38.514 90,45C90,45.009 90,45.019 90,45.028C90,46.126 90.903,47.028 92,47.028C93.097,47.028 94,46.126 94,45.028C94,45.019 94,45.009 94,45C94,38.05 90.427,32.12 85.156,29.125C86.221,27.648 87,25.953 87,24C87,19.053 82.947,15 78,15ZM22,19C24.785,19 27,21.215 27,24C27,25.679 26.177,27.15 24.906,28.063C24.372,28.436 24.053,29.049 24.053,29.701C24.053,30.554 24.599,31.318 25.406,31.594C29.735,33.077 33.023,37.481 33.719,43L10.281,43C10.977,37.481 14.265,33.077 18.594,31.594C19.401,31.318 19.947,30.554 19.947,29.701C19.947,29.049 19.628,28.436 19.094,28.063C17.823,27.15 17,25.679 17,24C17,21.215 19.215,19 22,19ZM40.813,30C39.785,30.09 38.986,30.961 38.986,31.993C38.986,32.725 39.388,33.4 40.031,33.75L48,38.188L48,48C48,48.009 48,48.019 48,48.028C48,49.126 48.903,50.028 50,50.028C51.097,50.028 52,49.126 52,48.028C52,48.019 52,48.009 52,48L52,38.188L59.969,33.75C60.604,33.398 61,32.727 61,32C61,30.903 60.097,30 59,30C58.661,30 58.328,30.086 58.031,30.25L50,34.719L41.969,30.25C41.617,30.052 41.214,29.965 40.813,30ZM50,53C45.053,53 41,57.053 41,62C41,63.953 41.779,65.648 42.844,67.125C37.573,70.12 34,76.05 34,83C34,84.097 34.903,85 36,85L64,85C65.097,85 66,84.097 66,83C66,76.05 62.427,70.12 57.156,67.125C58.221,65.648 59,63.953 59,62C59,57.053 54.947,53 50,53ZM50,57C52.785,57 55,59.215 55,62C55,63.679 54.177,65.15 52.906,66.063C52.372,66.436 52.053,67.049 52.053,67.701C52.053,68.554 52.599,69.318 53.406,69.594C57.735,71.077 61.023,75.481 61.719,81L38.281,81C38.977,75.481 42.265,71.077 46.594,69.594C47.401,69.318 47.947,68.554 47.947,67.701C47.947,67.049 47.628,66.436 47.094,66.063C45.823,65.15 45,63.679 45,62C45,59.215 47.215,57 50,57Z" style="fill:white;fill-rule:nonzero;"/>
            </g>
        </g>
    </g>
</svg>
