<?xml version="1.0" encoding="UTF-8" standalone="no"?>
<!DOCTYPE svg PUBLIC "-//W3C//DTD SVG 1.1//EN" "http://www.w3.org/Graphics/SVG/1.1/DTD/svg11.dtd">
<svg width="100%" height="100%" viewBox="0 0 50 50" version="1.1" xmlns="http://www.w3.org/2000/svg" xmlns:xlink="http://www.w3.org/1999/xlink" xml:space="preserve" xmlns:serif="http://www.serif.com/" style="fill-rule:evenodd;clip-rule:evenodd;stroke-linejoin:round;stroke-miterlimit:2;">
    <g transform="matrix(1,0,0,1,-18.5,-296.5)">
        <g transform="matrix(1,0,0,1,25,0)">
            <g transform="matrix(1.06383,0,0,1.06383,-62.8829,200.755)">
                <path d="M58.009,128.004C54.871,124.01 53,118.973 53,113.5C53,100.521 63.521,90 76.5,90C89.479,90 100,100.521 100,113.5C100,126.479 89.479,137 76.5,137C69.725,137 63.62,134.133 59.332,129.547L70.078,117.402L71.84,115.35L75.253,119.163C75.482,119.421 75.826,119.536 76.199,119.479C76.543,119.421 76.83,119.192 76.973,118.848L79.583,112.453L83.31,113.686C83.798,113.83 84.314,113.629 84.543,113.17L86.092,110.159C86.293,110.188 86.465,110.217 86.665,110.217C88.558,110.217 90.106,108.668 90.106,106.776C90.106,104.883 88.587,103.335 86.694,103.335C84.801,103.335 83.253,104.883 83.253,106.776C83.253,107.751 83.654,108.611 84.285,109.242L83.138,111.478L79.353,110.245C78.837,110.073 78.292,110.331 78.091,110.819L75.711,116.583L72.614,113.142C72.414,112.912 72.156,112.855 71.84,112.797C71.553,112.797 71.267,112.941 71.066,113.142L68.477,116.173L58.009,128.004ZM86.694,108.209C85.92,108.209 85.289,107.579 85.289,106.804C85.289,106.03 85.92,105.399 86.694,105.399C87.468,105.399 88.099,106.03 88.099,106.804C88.099,107.579 87.468,108.209 86.694,108.209Z" style="fill:rgb(93,55,141);"/>
            </g>
        </g>
    </g>
</svg>
