<?xml version="1.0" encoding="UTF-8" standalone="no"?>
<!DOCTYPE svg PUBLIC "-//W3C//DTD SVG 1.1//EN" "http://www.w3.org/Graphics/SVG/1.1/DTD/svg11.dtd">
<svg width="100%" height="100%" viewBox="0 0 50 50" version="1.1" xmlns="http://www.w3.org/2000/svg" xmlns:xlink="http://www.w3.org/1999/xlink" xml:space="preserve" xmlns:serif="http://www.serif.com/" style="fill-rule:evenodd;clip-rule:evenodd;stroke-linejoin:round;stroke-miterlimit:2;">
    <g transform="matrix(1,0,0,1,-18.5,-296.5)">
        <g transform="matrix(1,0,0,1,25,0)">
            <g transform="matrix(1.06383,0,0,1.06383,-62.8829,200.755)">
                <path d="M72.582,136.675C61.468,134.81 53,125.144 53,113.5C53,100.521 63.521,90 76.5,90C89.479,90 100,100.521 100,113.5C100,126.479 89.479,137 76.5,137C75.978,137 75.461,136.983 74.948,136.95L68.235,109.464C68.538,109.172 68.895,108.879 69.302,108.604C71.1,107.389 73.195,106.943 75.592,107.697C78.564,108.633 80.751,108.614 82.748,107.493L84.796,114.535C83.885,115.945 81.147,116.97 78.657,116.229C76.334,115.538 73.964,115.65 72.112,116.94C71.606,117.292 71.482,117.988 71.835,118.494C72.187,119 72.883,119.124 73.389,118.772C74.592,117.933 76.287,117.853 78.02,118.369C81.745,119.477 85.881,117.743 87.019,115.096C87.121,114.858 87.137,114.592 87.065,114.344L84.457,105.375C84.232,104.6 83.283,104.313 82.665,104.834C80.92,106.306 79.243,106.506 76.262,105.568C73.159,104.592 70.377,105.184 68.052,106.754C67.139,107.371 66.496,107.995 66.137,108.441C65.919,108.712 65.84,109.068 65.922,109.406L72.582,136.675ZM68.214,109.485C68.074,109.621 68.168,109.529 68.214,109.485Z" style="fill:rgb(229,56,136);"/>
            </g>
        </g>
    </g>
</svg>
