<?xml version="1.0" encoding="UTF-8" standalone="no"?>
<!DOCTYPE svg PUBLIC "-//W3C//DTD SVG 1.1//EN" "http://www.w3.org/Graphics/SVG/1.1/DTD/svg11.dtd">
<svg width="100%" height="100%" viewBox="0 0 1571 656" version="1.1" xmlns="http://www.w3.org/2000/svg" xmlns:xlink="http://www.w3.org/1999/xlink" xml:space="preserve" xmlns:serif="http://www.serif.com/" style="fill-rule:evenodd;clip-rule:evenodd;stroke-linejoin:round;stroke-miterlimit:2;">
    <g transform="matrix(1,0,0,1,-2567.35,-2438.91)">
        <g transform="matrix(1,0,0,1,6902,4080)">
            <g transform="matrix(1,0,0,1,-4325.02,-988.124)">
                <text x="0px" y="0px" style="font-family:'KanedaGothic-Black', 'Kaneda Gothic', fantasy;font-weight:900;font-size:257.333px;fill:rgb(251,226,0);">MARKE<tspan x="468.345px " y="0px ">T</tspan>ING E NEGÓCIOS</text>
            </g>
        </g>
        <g transform="matrix(1,0,0,1,6902,4080)">
            <path d="M-3119.39,-1229.73L-3104.4,-1281.62L-3041.44,-1281.63C-3038.85,-1281.66 -3036.64,-1283.4 -3035.91,-1285.76L-3028.7,-1309.61L-3094.34,-1309.51C-3094.34,-1309.51 -3095.61,-1309.66 -3096.17,-1308.65C-3096.35,-1308.33 -3097.2,-1306.79 -3097.2,-1306.79C-3097.2,-1306.79 -3090.03,-1331.46 -3079.72,-1331.46L-3026.49,-1331.46C-3023.89,-1331.46 -3021.69,-1333.16 -3020.94,-1335.51L-3012.04,-1365.66L-3077.03,-1365.76C-3098.1,-1364.23 -3113.49,-1346.73 -3123.19,-1313.27L-3149.01,-1225.47L-3125.02,-1225.47C-3122.35,-1225.47 -3120.09,-1227.28 -3119.39,-1229.73Z" style="fill:white;fill-rule:nonzero;"/>
            <path d="M-2923.82,-1228.86L-2956.52,-1365.65C-2957.58,-1365.64 -2973.8,-1365.65 -2975.87,-1365.65C-2979.97,-1365.65 -2981.42,-1363.71 -2982.31,-1361.95L-3042.33,-1225.47L-3018.8,-1225.47C-3014.13,-1225.47 -3013.33,-1227.52 -3012.61,-1229.1L-2998.88,-1260.11L-2961.82,-1260.27C-2957.4,-1260.27 -2956.17,-1257.21 -2956.17,-1257.21L-2948.67,-1225.47L-2928.87,-1225.47C-2928.87,-1225.47 -2923,-1225.47 -2923.82,-1228.86ZM-2965.1,-1279.83L-2987.61,-1279.83C-2987.61,-1279.83 -2988.6,-1279.79 -2988.86,-1279.79C-2989.86,-1279.79 -2990.98,-1277.98 -2990.98,-1277.98L-2971.52,-1322.48L-2962.01,-1282.34C-2962,-1282.24 -2961.53,-1279.83 -2965.1,-1279.83Z" style="fill:white;fill-rule:nonzero;"/>
            <path d="M-2788.82,-1365.66C-2794.73,-1365.66 -2797.86,-1365.66 -2800.8,-1359.15L-2838.89,-1275.35C-2838.89,-1275.35 -2839.39,-1274.29 -2839.53,-1273.95C-2840.28,-1272.13 -2839.95,-1269.63 -2839.95,-1269.63L-2864.05,-1365.66L-2886.87,-1365.66C-2893.04,-1365.66 -2897.54,-1365.66 -2898.1,-1358.39L-2911.73,-1225.47C-2908.79,-1225.57 -2896.21,-1225.47 -2896.21,-1225.47C-2885.57,-1225.47 -2885.57,-1225.47 -2884.89,-1232.64L-2876.87,-1311.53L-2855.83,-1227.37C-2847.14,-1227.35 -2855.04,-1227.35 -2847.14,-1227.35L-2842.8,-1227.35C-2834.3,-1227.37 -2834.3,-1227.37 -2831.66,-1233.01L-2796.37,-1310.96L-2805.13,-1225.46L-2788.82,-1225.46C-2779.13,-1225.46 -2779.13,-1225.46 -2778.25,-1232.73L-2764.6,-1365.65C-2775.13,-1365.66 -2788.82,-1365.66 -2788.82,-1365.66Z" style="fill:white;fill-rule:nonzero;"/>
            <path d="M-4321.11,-1405.56L-4321.11,-1582.84L-4244.12,-1582.84C-4199.3,-1582.84 -4172.96,-1559.29 -4172.96,-1520.79C-4172.96,-1482.8 -4199.3,-1460.01 -4244.12,-1460.01L-4270.46,-1460.01L-4270.46,-1405.56L-4321.11,-1405.56ZM-4270.46,-1499.27L-4248.43,-1499.27C-4233.74,-1499.27 -4223.61,-1506.61 -4223.61,-1520.8C-4223.61,-1534.98 -4233.74,-1542.33 -4248.43,-1542.33L-4270.46,-1542.33L-4270.46,-1499.27Z" style="fill:rgb(251,226,0);fill-rule:nonzero;"/>
            <path d="M-4158.27,-1494.2C-4158.27,-1548.4 -4125.09,-1585.37 -4069.63,-1585.37C-4014.17,-1585.37 -3980.99,-1548.65 -3980.99,-1494.2C-3980.99,-1439.75 -4014.17,-1403.03 -4069.63,-1403.03C-4125.09,-1403.03 -4158.27,-1440.01 -4158.27,-1494.2ZM-4031.64,-1494.2C-4031.64,-1525.35 -4046.58,-1543.58 -4069.63,-1543.58C-4092.68,-1543.58 -4107.62,-1525.35 -4107.62,-1494.2C-4107.62,-1463.05 -4092.68,-1444.82 -4069.63,-1444.82C-4046.59,-1444.82 -4031.64,-1463.05 -4031.64,-1494.2ZM-4088.12,-1598.04L-4069.89,-1641.09L-4014.93,-1641.09L-4050.89,-1598.04L-4088.12,-1598.04Z" style="fill:rgb(251,226,0);fill-rule:nonzero;"/>
            <path d="M-3963.77,-1451.15L-3915.65,-1460.77C-3910.08,-1445.83 -3897.67,-1440.26 -3883.74,-1440.26C-3869.3,-1440.26 -3860.95,-1446.08 -3860.95,-1455.46C-3860.95,-1485.09 -3959.72,-1461.28 -3959.72,-1534.22C-3959.72,-1563.09 -3934.14,-1585.38 -3888.81,-1585.38C-3850.06,-1585.38 -3822.46,-1570.94 -3813.85,-1539.8L-3862.98,-1530.18C-3866.53,-1542.59 -3875.64,-1548.16 -3888.56,-1548.16C-3899.96,-1548.16 -3908.06,-1542.34 -3908.06,-1534.23C-3908.06,-1504.35 -3809.29,-1528.91 -3809.29,-1454.46C-3809.29,-1425.08 -3834.87,-1403.05 -3883.75,-1403.05C-3921.23,-1403.03 -3955.42,-1417.72 -3963.77,-1451.15Z" style="fill:rgb(251,226,0);fill-rule:nonzero;"/>
            <rect x="-3794.86" y="-1494.2" width="89.9" height="35.45" style="fill:rgb(251,226,0);fill-rule:nonzero;"/>
            <path d="M-4334.65,-1295.42C-4334.65,-1336.95 -4309.73,-1364.96 -4273.8,-1364.96C-4249.46,-1364.96 -4229.37,-1353.76 -4219.52,-1328.84L-4235.75,-1322.85C-4243.28,-1341.78 -4256.23,-1350.09 -4273.8,-1350.09C-4299.68,-1350.09 -4317.26,-1329.42 -4317.26,-1295.43C-4317.26,-1261.44 -4300.26,-1240.77 -4271.48,-1240.77C-4257.96,-1240.77 -4245.79,-1246.56 -4238.06,-1255.06L-4238.06,-1283.26L-4270.51,-1284.81L-4270.51,-1298.72L-4220.67,-1298.72L-4220.67,-1249.66C-4232.26,-1233.82 -4250.8,-1225.9 -4271.47,-1225.9C-4309.74,-1225.88 -4334.65,-1253.89 -4334.65,-1295.42Z" style="fill:white;fill-rule:nonzero;"/>
            <path d="M-4192.1,-1227.81L-4192.1,-1363.02L-4139.95,-1363.02C-4112.91,-1363.02 -4095.52,-1347.76 -4095.52,-1321.88C-4095.52,-1301.98 -4106.34,-1288.46 -4124.11,-1283.63L-4093.59,-1227.81L-4113.29,-1227.81L-4141.3,-1281.7L-4174.72,-1281.7L-4174.72,-1227.81L-4192.1,-1227.81ZM-4174.72,-1296.38L-4140.72,-1296.38C-4123.72,-1296.38 -4112.91,-1305.65 -4112.91,-1321.88C-4112.91,-1337.91 -4123.73,-1347.57 -4140.72,-1347.57L-4174.72,-1347.57L-4174.72,-1296.38Z" style="fill:white;fill-rule:nonzero;"/>
            <path d="M-3978.66,-1227.81L-3989.48,-1258.72L-4052.64,-1258.72L-4063.46,-1227.81L-4081.23,-1227.81L-4032.75,-1363.02L-4008.8,-1363.02L-3960.12,-1227.81L-3978.66,-1227.81ZM-4047.62,-1273.21L-3994.5,-1273.21L-4020.58,-1347.96L-4021.55,-1347.96L-4047.62,-1273.21Z" style="fill:white;fill-rule:nonzero;"/>
            <path d="M-3941.96,-1227.8L-3941.96,-1363.02L-3898.69,-1363.02C-3860.25,-1363.02 -3834.75,-1335.98 -3834.75,-1295.41C-3834.75,-1254.84 -3860.25,-1227.8 -3898.69,-1227.8L-3941.96,-1227.8ZM-3924.58,-1243.27L-3898.7,-1243.27C-3870.5,-1243.27 -3852.15,-1262.97 -3852.15,-1295.42C-3852.15,-1327.87 -3870.5,-1347.57 -3898.7,-1347.57L-3924.58,-1347.57L-3924.58,-1243.27Z" style="fill:white;fill-rule:nonzero;"/>
            <path d="M-3810.23,-1282.09L-3810.23,-1363.02L-3792.85,-1363.02L-3792.85,-1282.09C-3792.85,-1252.15 -3776.05,-1241.33 -3757.5,-1241.33C-3738.96,-1241.33 -3722.34,-1252.15 -3722.34,-1282.09L-3722.34,-1363.02L-3704.96,-1363.02L-3704.96,-1282.09C-3704.96,-1243.65 -3728.72,-1225.88 -3757.5,-1225.88C-3786.27,-1225.88 -3810.23,-1243.65 -3810.23,-1282.09Z" style="fill:white;fill-rule:nonzero;"/>
            <path d="M-3585.19,-1227.81L-3596.01,-1258.72L-3659.17,-1258.72L-3669.99,-1227.81L-3687.76,-1227.81L-3639.28,-1363.02L-3615.33,-1363.02L-3566.65,-1227.81L-3585.19,-1227.81ZM-3654.15,-1273.21L-3601.03,-1273.21L-3627.11,-1347.96L-3628.08,-1347.96L-3654.15,-1273.21Z" style="fill:white;fill-rule:nonzero;"/>
            <path d="M-3440.51,-1265.29C-3449.01,-1239.21 -3467.94,-1227.43 -3490.54,-1226.08L-3492.86,-1219.13L-3491.7,-1219.13C-3481.08,-1219.13 -3472.38,-1213.14 -3472.38,-1201.94C-3472.38,-1191.32 -3480.69,-1183.4 -3496.14,-1183.4C-3505.03,-1183.4 -3511.98,-1185.72 -3517.58,-1189.97L-3511.21,-1200.01C-3506.57,-1196.73 -3501.36,-1194.99 -3496.14,-1194.99C-3490.15,-1194.99 -3485.9,-1197.69 -3485.9,-1202.33C-3485.9,-1207.35 -3489.96,-1209.48 -3494.98,-1209.48C-3497.88,-1209.48 -3499.81,-1209.09 -3502.51,-1208.32L-3505.41,-1212.57L-3500.77,-1226.09C-3533.03,-1228.99 -3555.63,-1256.03 -3555.63,-1295.43C-3555.63,-1336.96 -3530.52,-1364.97 -3495.17,-1364.97C-3471.03,-1364.97 -3450.16,-1352.99 -3441.47,-1325.57L-3457.89,-1319.58C-3465.04,-1340.44 -3477.79,-1349.52 -3495.17,-1349.52C-3521.05,-1349.52 -3538.25,-1329.24 -3538.25,-1295.44C-3538.25,-1261.64 -3521.06,-1241.36 -3495.17,-1241.36C-3477.4,-1241.36 -3464.46,-1250.05 -3456.92,-1271.3L-3440.51,-1265.29Z" style="fill:white;fill-rule:nonzero;"/>
            <path d="M-3326.55,-1227.81L-3337.37,-1258.72L-3400.53,-1258.72L-3411.35,-1227.81L-3429.12,-1227.81L-3380.64,-1363.02L-3356.69,-1363.02L-3308.01,-1227.81L-3326.55,-1227.81ZM-3385.46,-1375.58L-3397.63,-1375.58L-3397.63,-1381.18C-3397.63,-1397.41 -3389.32,-1402.62 -3381.98,-1402.62C-3370.2,-1402.62 -3364.02,-1390.06 -3357.45,-1390.06C-3353.59,-1390.06 -3351.85,-1394.7 -3351.85,-1402.62L-3339.68,-1402.62L-3339.68,-1396.63C-3339.68,-1379.83 -3347.99,-1375.58 -3355.33,-1375.58C-3367.31,-1375.58 -3373.29,-1388.14 -3379.86,-1388.14C-3383.14,-1388.14 -3385.46,-1385.24 -3385.46,-1375.58ZM-3395.51,-1273.21L-3342.39,-1273.21L-3368.47,-1347.96L-3369.44,-1347.96L-3395.51,-1273.21Z" style="fill:white;fill-rule:nonzero;"/>
            <path d="M-3296.99,-1295.42C-3296.99,-1336.95 -3271.88,-1364.96 -3236.53,-1364.96C-3201.18,-1364.96 -3176.26,-1337.14 -3176.26,-1295.42C-3176.26,-1253.7 -3201.18,-1225.88 -3236.53,-1225.88C-3271.88,-1225.88 -3296.99,-1253.89 -3296.99,-1295.42ZM-3193.65,-1295.42C-3193.65,-1329.22 -3210.65,-1349.5 -3236.53,-1349.5C-3262.41,-1349.5 -3279.61,-1329.22 -3279.61,-1295.42C-3279.61,-1261.62 -3262.42,-1241.34 -3236.53,-1241.34C-3210.65,-1241.33 -3193.65,-1261.62 -3193.65,-1295.42Z" style="fill:white;fill-rule:nonzero;"/>
        </g>
    </g>
</svg>
