<?xml version="1.0" encoding="UTF-8" standalone="no"?>
<!DOCTYPE svg PUBLIC "-//W3C//DTD SVG 1.1//EN" "http://www.w3.org/Graphics/SVG/1.1/DTD/svg11.dtd">
<svg width="100%" height="100%" viewBox="0 0 1446 556" version="1.1" xmlns="http://www.w3.org/2000/svg" xmlns:xlink="http://www.w3.org/1999/xlink" xml:space="preserve" xmlns:serif="http://www.serif.com/" style="fill-rule:evenodd;clip-rule:evenodd;stroke-linejoin:round;stroke-miterlimit:2;">
    <g transform="matrix(1,0,0,1,-562,-894.34)">
        <g transform="matrix(1,0,0,1,562,422)">
            <path d="M4.64,730.73L55.92,730.73L61.85,803.66L62.37,803.66L68.55,730.73L124.21,730.73L124.21,908.54L88.91,908.54L88.91,760.88L88.39,760.88L75.25,908.54L48.45,908.54L35.31,760.88L34.79,760.88L34.79,908.54L4.64,908.54L4.64,730.73Z" style="fill:rgb(252,227,0);fill-rule:nonzero;"/>
            <path d="M133.49,730.73L202.55,730.73L202.55,760.11L169.31,760.11L169.31,798.25L197.91,798.25L197.91,827.63L169.31,827.63L169.31,879.17L202.55,879.17L202.55,908.55L133.49,908.55L133.49,730.73Z" style="fill:rgb(252,227,0);fill-rule:nonzero;"/>
            <path d="M208.22,730.73L248.42,730.73C274.96,730.73 288.36,744.39 288.36,770.93L288.36,868.34C288.36,894.88 274.96,908.54 248.42,908.54L208.22,908.54L208.22,730.73ZM245.33,879.16C251.26,879.16 252.55,877.1 252.55,868.59L252.55,770.67C252.55,762.17 251.26,760.1 245.33,760.1L244.04,760.1L244.04,879.16L245.33,879.16Z" style="fill:rgb(252,227,0);fill-rule:nonzero;"/>
            <rect x="296.09" y="730.73" width="35.82" height="177.81" style="fill:rgb(252,227,0);fill-rule:nonzero;"/>
            <path d="M339.89,871.44L339.89,767.85C339.89,743.37 354.58,728.16 378.54,728.16C402.5,728.16 418.23,743.36 418.23,767.85L418.23,797.74L383.18,797.74L383.18,764.75C383.18,759.85 382.15,758.05 379.57,758.05C376.48,758.05 375.7,759.85 375.7,764.75L375.7,874.53C375.7,879.43 376.47,881.23 379.57,881.23C382.15,881.23 383.18,879.43 383.18,874.53L383.18,834.07L418.23,834.07L418.23,871.44C418.23,895.92 403.28,911.13 378.54,911.13C353.8,911.13 339.89,895.93 339.89,871.44Z" style="fill:rgb(252,227,0);fill-rule:nonzero;"/>
            <rect x="424.67" y="730.73" width="35.82" height="177.81" style="fill:rgb(252,227,0);fill-rule:nonzero;"/>
            <path d="M469.77,730.73L513.06,730.73L525.43,825.3L525.95,825.3L525.95,730.73L555.84,730.73L555.84,908.54L514.61,908.54L500.18,798.25L499.66,798.25L499.66,908.54L469.77,908.54L469.77,730.73Z" style="fill:rgb(252,227,0);fill-rule:nonzero;"/>
            <path d="M577.74,730.73L628.25,730.73L645.77,908.54L609.43,908.54L607.63,876.07L596.29,876.07L594.49,908.54L560.22,908.54L577.74,730.73ZM606.6,846.69L602.22,760.1L601.7,760.1L597.32,846.69L606.6,846.69Z" style="fill:rgb(252,227,0);fill-rule:nonzero;"/>
            <path d="M685.71,730.73L725.91,730.73C752.45,730.73 765.85,744.39 765.85,770.93L765.85,868.34C765.85,894.88 752.45,908.54 725.91,908.54L685.71,908.54L685.71,730.73ZM722.82,879.16C728.75,879.16 730.04,877.1 730.04,868.59L730.04,770.67C730.04,762.17 728.75,760.1 722.82,760.1L721.53,760.1L721.53,879.16L722.82,879.16Z" style="fill:rgb(252,227,0);fill-rule:nonzero;"/>
            <path d="M773.58,730.73L842.64,730.73L842.64,760.11L809.4,760.11L809.4,798.25L838,798.25L838,827.63L809.4,827.63L809.4,879.17L842.64,879.17L842.64,908.55L773.58,908.55L773.58,730.73Z" style="fill:rgb(252,227,0);fill-rule:nonzero;"/>
            <path d="M896.5,730.73L947.01,730.73L964.53,908.54L928.19,908.54L926.39,876.07L915.05,876.07L913.25,908.54L878.98,908.54L896.5,730.73ZM925.36,846.69L920.98,760.1L920.46,760.1L916.08,846.69L925.36,846.69Z" style="fill:rgb(252,227,0);fill-rule:nonzero;"/>
            <path d="M968.91,730.73L1012.2,730.73L1024.57,825.3L1025.09,825.3L1025.09,730.73L1054.98,730.73L1054.98,908.54L1013.75,908.54L999.32,798.25L998.8,798.25L998.8,908.54L968.91,908.54L968.91,730.73Z" style="fill:rgb(252,227,0);fill-rule:nonzero;"/>
            <rect x="1064.25" y="730.73" width="35.82" height="177.81" style="fill:rgb(252,227,0);fill-rule:nonzero;"/>
            <path d="M1109.35,730.73L1160.63,730.73L1166.56,803.66L1167.08,803.66L1173.26,730.73L1228.92,730.73L1228.92,908.54L1193.62,908.54L1193.62,760.88L1193.1,760.88L1179.96,908.54L1153.16,908.54L1140.02,760.88L1139.5,760.88L1139.5,908.54L1109.35,908.54L1109.35,730.73Z" style="fill:rgb(252,227,0);fill-rule:nonzero;"/>
            <path d="M1250.82,730.73L1301.33,730.73L1318.85,908.54L1282.51,908.54L1280.71,876.07L1269.37,876.07L1267.57,908.54L1233.3,908.54L1250.82,730.73ZM1279.68,846.69L1275.3,760.1L1274.78,760.1L1270.4,846.69L1279.68,846.69Z" style="fill:rgb(252,227,0);fill-rule:nonzero;"/>
            <rect x="1323.23" y="730.73" width="35.82" height="177.81" style="fill:rgb(252,227,0);fill-rule:nonzero;"/>
            <path d="M1365.49,870.41L1365.49,842.06L1400.54,842.06L1400.54,873.76C1400.54,879.17 1401.83,881.23 1405.18,881.23C1408.27,881.23 1409.3,879.17 1409.3,873.76L1409.3,847.99C1409.3,842.84 1407.24,838.71 1402.34,835.62L1387.65,825.57C1372.19,815.26 1365.49,803.67 1365.49,785.37L1365.49,767.85C1365.49,743.37 1380.18,728.16 1403.89,728.16C1427.6,728.16 1443.32,743.36 1443.32,767.85L1443.32,789.75L1408.27,789.75L1408.27,764.24C1408.27,759.86 1407.24,758.06 1404.92,758.06C1402.09,758.06 1401.31,759.86 1401.31,764.24L1401.31,784.34C1401.31,789.49 1403.37,793.62 1408.27,796.71L1423.22,806.76C1438.42,817.07 1445.12,828.66 1445.12,846.96L1445.12,870.41C1445.12,895.66 1430.69,911.13 1405.43,911.13C1380.17,911.13 1365.49,895.67 1365.49,870.41Z" style="fill:rgb(252,227,0);fill-rule:nonzero;"/>
        </g>
        <g transform="matrix(1,0,0,1,562,422)">
            <path d="M626.34,684.35L634.07,657.61L666.52,657.61C667.85,657.59 668.99,656.7 669.37,655.48L673.09,643.19L639.26,643.24C639.26,643.24 638.61,643.16 638.32,643.68C638.23,643.85 637.79,644.64 637.79,644.64C637.79,644.64 641.48,631.92 646.8,631.92L674.24,631.92C675.58,631.92 676.71,631.04 677.1,629.83L681.69,614.29L648.19,614.24C637.33,615.03 629.4,624.05 624.4,641.29L611.09,686.54L623.46,686.54C624.84,686.54 626,685.61 626.36,684.34L626.34,684.35Z" style="fill:white;fill-rule:nonzero;"/>
            <path d="M727.13,684.8L710.28,614.3L700.31,614.3C698.2,614.3 697.45,615.3 696.99,616.21L666.06,686.55L678.19,686.55C680.59,686.55 681.01,685.5 681.38,684.68L688.46,668.7L707.56,668.62C709.84,668.62 710.47,670.2 710.47,670.2L714.33,686.56L724.53,686.56C724.53,686.56 727.55,686.56 727.13,684.81L727.13,684.8ZM705.86,658.53L694.25,658.53C694.25,658.53 693.74,658.55 693.61,658.55C693.09,658.55 692.52,659.48 692.52,659.48L702.55,636.54L707.45,657.23C707.46,657.28 707.7,658.53 705.86,658.53Z" style="fill:white;fill-rule:nonzero;"/>
            <path d="M796.71,614.29C793.66,614.29 792.05,614.29 790.53,617.65L770.9,660.84C770.9,660.84 770.64,661.39 770.57,661.56C770.18,662.5 770.35,663.79 770.35,663.79L757.93,614.3L746.17,614.3C742.99,614.3 740.67,614.3 740.38,618.04L733.35,686.55C734.87,686.5 741.35,686.55 741.35,686.55C745.003,686.55 746.95,685.317 747.19,682.85L751.32,642.19L762.16,685.57L766.64,685.57L768.88,685.57C771.8,685.57 773.713,684.597 774.62,682.65L792.81,642.48L788.29,686.55L796.7,686.55C800.027,686.55 801.843,685.303 802.15,682.81L809.18,614.3L796.7,614.3L796.71,614.29Z" style="fill:white;fill-rule:nonzero;"/>
            <path d="M6.98,593.73L6.98,502.36L46.66,502.36C69.76,502.36 83.34,514.5 83.34,534.34C83.34,554.18 69.77,565.67 46.66,565.67L33.09,565.67L33.09,593.73L6.98,593.73ZM33.08,545.44L44.44,545.44C52.01,545.44 57.23,541.65 57.23,534.35C57.23,527.05 52.01,523.26 44.44,523.26L33.08,523.26L33.08,545.45L33.08,545.44Z" style="fill:rgb(252,227,0);fill-rule:nonzero;"/>
            <path d="M90.91,548.04C90.91,520.11 108.01,501.05 136.59,501.05C165.17,501.05 182.27,519.98 182.27,548.04C182.27,576.1 165.17,595.03 136.59,595.03C108.01,595.03 90.91,575.97 90.91,548.04ZM156.17,548.04C156.17,531.99 148.47,522.59 136.59,522.59C124.71,522.59 117.01,531.99 117.01,548.04C117.01,564.09 124.71,573.49 136.59,573.49C148.47,573.49 156.17,564.09 156.17,548.04ZM127.06,494.53L136.46,472.34L164.78,472.34L146.25,494.53L127.06,494.53Z" style="fill:rgb(252,227,0);fill-rule:nonzero;"/>
            <path d="M191.15,570.23L215.95,565.27C218.82,572.97 225.22,575.84 232.4,575.84C239.58,575.84 244.15,572.84 244.15,568.01C244.15,552.74 193.25,565.01 193.25,527.42C193.25,512.54 206.43,501.05 229.8,501.05C249.77,501.05 264,508.49 268.43,524.54L243.11,529.5C241.28,523.1 236.58,520.23 229.93,520.23C224.06,520.23 219.88,523.23 219.88,527.41C219.88,542.81 270.78,530.15 270.78,568.52C270.78,583.66 257.6,595.02 232.41,595.02C213.09,595.02 195.47,587.45 191.16,570.22L191.15,570.23Z" style="fill:rgb(252,227,0);fill-rule:nonzero;"/>
            <rect x="278.21" y="548.05" width="46.34" height="18.27" style="fill:rgb(252,227,0);fill-rule:nonzero;"/>
            <path d="M0,650.49C0,629.09 12.84,614.65 31.36,614.65C43.9,614.65 54.26,620.42 59.33,633.27L50.97,636.36C47.09,626.6 40.42,622.32 31.36,622.32C18.02,622.32 8.96,632.97 8.96,650.49C8.96,668.01 17.72,678.66 32.55,678.66C39.52,678.66 45.79,675.67 49.77,671.29L49.77,656.76L33.04,655.96L33.04,648.79L58.72,648.79L58.72,674.08C52.75,682.24 43.19,686.33 32.54,686.33C12.84,686.33 0,671.9 0,650.49Z" style="fill:white;fill-rule:nonzero;"/>
            <path d="M73.47,685.34L73.47,615.65L100.35,615.65C114.29,615.65 123.25,623.51 123.25,636.85C123.25,647.1 117.67,654.07 108.52,656.56L124.25,685.33L114.1,685.33L99.66,657.55L82.44,657.55L82.44,685.33L73.48,685.33L73.47,685.34ZM82.43,650L99.95,650C108.71,650 114.29,645.22 114.29,636.86C114.29,628.5 108.72,623.62 99.95,623.62L82.43,623.62L82.43,650Z" style="fill:white;fill-rule:nonzero;"/>
            <path d="M183.48,685.34L177.9,669.41L145.35,669.41L139.77,685.34L130.61,685.34L155.6,615.65L167.94,615.65L193.03,685.34L183.47,685.34L183.48,685.34ZM147.94,661.95L175.32,661.95L161.88,623.42L161.38,623.42L147.94,661.95Z" style="fill:white;fill-rule:nonzero;"/>
            <path d="M202.39,685.34L202.39,615.65L224.69,615.65C244.5,615.65 257.64,629.59 257.64,650.49C257.64,671.39 244.5,685.33 224.69,685.33L202.39,685.33L202.39,685.34ZM211.35,677.38L224.69,677.38C239.22,677.38 248.68,667.23 248.68,650.5C248.68,633.77 239.22,623.62 224.69,623.62L211.35,623.62L211.35,677.38Z" style="fill:white;fill-rule:nonzero;"/>
            <path d="M270.29,657.36L270.29,615.65L279.25,615.65L279.25,657.36C279.25,672.79 287.91,678.37 297.47,678.37C307.03,678.37 315.59,672.79 315.59,657.36L315.59,615.65L324.55,615.65L324.55,657.36C324.55,677.17 312.3,686.33 297.47,686.33C282.64,686.33 270.29,677.17 270.29,657.36Z" style="fill:white;fill-rule:nonzero;"/>
            <path d="M386.27,685.34L380.69,669.41L348.14,669.41L342.56,685.34L333.4,685.34L358.39,615.65L370.73,615.65L395.82,685.34L386.26,685.34L386.27,685.34ZM350.73,661.95L378.11,661.95L364.67,623.42L364.17,623.42L350.73,661.95Z" style="fill:white;fill-rule:nonzero;"/>
            <path d="M460.83,666.02C456.45,679.46 446.69,685.53 435.05,686.23L433.86,689.81L434.46,689.81C439.94,689.81 444.42,692.9 444.42,698.67C444.42,704.15 440.14,708.23 432.17,708.23C427.59,708.23 424.01,707.04 421.12,704.85L424.41,699.67C426.8,701.36 429.49,702.26 432.18,702.26C435.27,702.26 437.46,700.87 437.46,698.48C437.46,695.89 435.37,694.8 432.78,694.8C431.29,694.8 430.29,695 428.9,695.4L427.41,693.21L429.8,686.24C413.17,684.75 401.53,670.81 401.53,650.5C401.53,629.1 414.47,614.66 432.69,614.66C445.13,614.66 455.89,620.83 460.37,634.97L451.91,638.06C448.23,627.31 441.66,622.63 432.7,622.63C419.36,622.63 410.5,633.08 410.5,650.5C410.5,667.92 419.36,678.37 432.7,678.37C441.86,678.37 448.53,673.89 452.41,662.94L460.87,666.03L460.83,666.02Z" style="fill:white;fill-rule:nonzero;"/>
            <path d="M519.57,685.34L513.99,669.41L481.44,669.41L475.86,685.34L466.7,685.34L491.69,615.65L504.03,615.65L529.12,685.34L519.56,685.34L519.57,685.34ZM489.21,609.18L482.94,609.18L482.94,606.29C482.94,597.93 487.22,595.24 491,595.24C497.07,595.24 500.26,601.71 503.64,601.71C505.63,601.71 506.53,599.32 506.53,595.24L512.8,595.24L512.8,598.33C512.8,606.99 508.52,609.18 504.74,609.18C498.57,609.18 495.48,602.71 492.1,602.71C490.41,602.71 489.21,604.2 489.21,609.18ZM484.03,661.94L511.41,661.94L497.97,623.41L497.47,623.41L484.03,661.94Z" style="fill:white;fill-rule:nonzero;"/>
            <path d="M534.81,650.49C534.81,629.09 547.75,614.65 565.97,614.65C584.19,614.65 597.03,628.99 597.03,650.49C597.03,671.99 584.19,686.33 565.97,686.33C547.75,686.33 534.81,671.89 534.81,650.49ZM588.07,650.49C588.07,633.07 579.31,622.62 565.97,622.62C552.63,622.62 543.77,633.07 543.77,650.49C543.77,667.91 552.63,678.36 565.97,678.36C579.31,678.36 588.07,667.91 588.07,650.49Z" style="fill:white;fill-rule:nonzero;"/>
        </g>
        <g transform="matrix(1,0,0,1,562,422)">
            <path d="M4.45,1012.77L11.66,1010.19C14.51,1017.66 21.71,1020.78 28.65,1020.78C37.81,1020.78 42.35,1016.42 42.35,1010.64C42.35,994.89 5.78,1003.79 5.78,979.68C5.78,970.07 13.88,963.49 26.87,963.49C37.28,963.49 45.64,968.03 48.93,977.37L41.72,979.95C39.14,973.01 33.09,970.25 26.86,970.25C18.32,970.25 13.69,974.43 13.69,979.68C13.69,995.16 50.26,986.26 50.26,1010.64C50.26,1020.96 41.9,1027.54 28.64,1027.54C17.52,1027.54 8,1022.74 4.44,1012.77L4.45,1012.77Z" style="fill:white;fill-rule:nonzero;"/>
            <path d="M58.45,969.26C58.45,965.97 61.12,963.48 64.5,963.48C67.88,963.48 70.46,965.97 70.46,969.26C70.46,972.55 67.88,975.04 64.5,975.04C61.12,975.04 58.45,972.55 58.45,969.26ZM60.5,1026.64L60.5,981.27L68.51,981.27L68.51,1026.64L60.5,1026.64Z" style="fill:white;fill-rule:nonzero;"/>
            <rect x="80.96" y="964.37" width="8.01" height="62.28" style="fill:white;fill-rule:nonzero;"/>
            <path d="M113.08,1026.65L96.71,981.28L105.25,981.28L117.97,1018.82L118.41,1018.82L131.04,981.28L139.4,981.28L123.03,1026.65L113.07,1026.65L113.08,1026.65Z" style="fill:white;fill-rule:nonzero;"/>
            <path d="M185.94,1006.72L152.58,1006.72C153.38,1015.35 158.54,1020.87 166.19,1020.87C171.35,1020.87 175.18,1018.65 177.84,1013.31L184.96,1015.89C181.76,1023.63 175.08,1027.54 166.19,1027.54C152.67,1027.54 144.39,1017.22 144.39,1003.96C144.39,990.7 152.58,980.38 166.1,980.38C178.02,980.38 186.21,988.65 186.21,1002.8C186.21,1004.13 186.12,1005.56 185.94,1006.71L185.94,1006.72ZM152.67,1000.31L178.56,1000.31C177.85,991.86 172.96,987.05 166.1,987.05C158.72,987.05 153.73,992.12 152.67,1000.31Z" style="fill:white;fill-rule:nonzero;"/>
            <path d="M193.95,1015.88L200.71,1013.48C202.49,1019.09 207.92,1021.31 212.81,1021.31C218.68,1021.31 221.8,1018.55 221.8,1014.73C221.8,1004.05 195.02,1011.44 195.02,992.75C195.02,985.54 201.25,980.38 211.3,980.38C219.4,980.38 226.25,983.85 228.47,991.15L221.71,993.55C220.02,988.57 215.84,986.61 211.3,986.61C205.61,986.61 202.76,989.37 202.76,992.75C202.76,1003.6 229.54,996.22 229.54,1014.73C229.54,1022.47 222.87,1027.54 212.81,1027.54C204.71,1027.54 196.53,1024.34 193.95,1015.89L193.95,1015.88Z" style="fill:white;fill-rule:nonzero;"/>
            <path d="M260.14,1026.65C250.71,1026.65 244.66,1021.67 244.66,1011.35L244.66,987.95L235.76,987.95L235.76,981.28L245.28,981.28L247.24,968.82L252.67,968.82L252.67,981.28L266.02,981.28L266.02,987.95L252.67,987.95L252.67,1011.08C252.67,1017.04 255.52,1019.53 260.59,1019.53L266.02,1019.53L266.02,1026.65L260.14,1026.65Z" style="fill:white;fill-rule:nonzero;"/>
            <path d="M302.94,980.47L302.94,988.03C301.52,987.94 300.8,987.94 299.56,987.94C292.44,987.94 284.7,992.3 284.7,1005.82L284.7,1026.64L276.69,1026.64L276.69,1005.47C276.69,997.37 276.69,989.37 276.25,981.27L283.81,981.27L284.88,990.17L285.41,990.17C288.08,983.76 293.06,980.38 299.38,980.38C300.63,980.38 301.43,980.38 302.94,980.47Z" style="fill:white;fill-rule:nonzero;"/>
            <path d="M350.27,1006.72L316.91,1006.72C317.71,1015.35 322.87,1020.87 330.52,1020.87C335.68,1020.87 339.51,1018.65 342.17,1013.31L349.29,1015.89C346.09,1023.63 339.41,1027.54 330.52,1027.54C317,1027.54 308.72,1017.22 308.72,1003.96C308.72,990.7 316.91,980.38 330.43,980.38C342.35,980.38 350.54,988.65 350.54,1002.8C350.54,1004.13 350.45,1005.56 350.27,1006.71L350.27,1006.72ZM317,1000.31L342.89,1000.31C342.18,991.86 337.29,987.05 330.43,987.05C323.05,987.05 318.06,992.12 317,1000.31Z" style="fill:white;fill-rule:nonzero;"/>
            <path d="M358.27,1015.88L365.03,1013.48C366.81,1019.09 372.24,1021.31 377.13,1021.31C383,1021.31 386.12,1018.55 386.12,1014.73C386.12,1004.05 359.34,1011.44 359.34,992.75C359.34,985.54 365.57,980.38 375.62,980.38C383.72,980.38 390.57,983.85 392.79,991.15L386.03,993.55C384.34,988.57 380.16,986.61 375.62,986.61C369.93,986.61 367.08,989.37 367.08,992.75C367.08,1003.6 393.86,996.22 393.86,1014.73C393.86,1022.47 387.19,1027.54 377.13,1027.54C369.03,1027.54 360.85,1024.34 358.27,1015.89L358.27,1015.88Z" style="fill:white;fill-rule:nonzero;"/>
            <path d="M465.21,1006.72L431.85,1006.72C432.65,1015.35 437.81,1020.87 445.46,1020.87C450.62,1020.87 454.45,1018.65 457.11,1013.31L464.23,1015.89C461.03,1023.63 454.35,1027.54 445.46,1027.54C431.94,1027.54 423.66,1017.22 423.66,1003.96C423.66,990.7 431.85,980.38 445.37,980.38C457.29,980.38 465.48,988.65 465.48,1002.8C465.48,1004.13 465.39,1005.56 465.21,1006.71L465.21,1006.72ZM431.94,1000.31L457.83,1000.31C457.12,991.86 452.23,987.05 445.37,987.05C437.99,987.05 433,992.12 431.94,1000.31Z" style="fill:white;fill-rule:nonzero;"/>
            <path d="M498.13,1026.65L498.13,964.37L539.5,964.37L539.5,971.49L506.14,971.49L506.14,991.06L535.94,991.06L535.94,998.18L506.14,998.18L506.14,1019.53L539.5,1019.53L539.5,1026.65L498.13,1026.65Z" style="fill:white;fill-rule:nonzero;"/>
            <path d="M546.44,1026.65L561.65,1003.52L547.33,981.28L556.49,981.28L567.26,999.16L567.7,999.16L578.46,981.28L587.36,981.28L573.04,1003.61L588.25,1026.65L579,1026.65L567.52,1008.23L567.08,1008.23L555.43,1026.65L546.44,1026.65Z" style="fill:white;fill-rule:nonzero;"/>
            <path d="M592.97,1003.96C592.97,990.7 601.24,980.38 614.77,980.38C628.3,980.38 636.57,990.7 636.57,1003.96C636.57,1017.22 628.3,1027.54 614.77,1027.54C601.24,1027.54 592.97,1017.22 592.97,1003.96ZM628.56,1003.96C628.56,994 623.04,987.5 614.77,987.5C606.5,987.5 600.98,993.99 600.98,1003.96C600.98,1013.93 606.5,1020.42 614.77,1020.42C623.04,1020.42 628.56,1013.93 628.56,1003.96ZM611.21,975.05L616.64,963.48L627.67,963.48L618.6,975.05L611.21,975.05Z" style="fill:white;fill-rule:nonzero;"/>
            <path d="M666.99,1026.65C657.56,1026.65 651.51,1021.67 651.51,1011.35L651.51,987.95L642.61,987.95L642.61,981.28L652.13,981.28L654.09,968.82L659.52,968.82L659.52,981.28L672.87,981.28L672.87,987.95L659.52,987.95L659.52,1011.08C659.52,1017.04 662.37,1019.53 667.44,1019.53L672.87,1019.53L672.87,1026.65L666.99,1026.65Z" style="fill:white;fill-rule:nonzero;"/>
            <path d="M681.5,969.26C681.5,965.97 684.17,963.48 687.55,963.48C690.93,963.48 693.51,965.97 693.51,969.26C693.51,972.55 690.93,975.04 687.55,975.04C684.17,975.04 681.5,972.55 681.5,969.26ZM683.55,1026.64L683.55,981.27L691.56,981.27L691.56,1026.64L683.55,1026.64Z" style="fill:white;fill-rule:nonzero;"/>
            <path d="M701.78,1003.96C701.78,990.7 710.05,980.38 723.58,980.38C732.57,980.38 739.86,984.74 742.8,994.08L735.15,996.84C732.84,990.35 728.83,987.5 723.58,987.5C715.31,987.5 709.79,993.99 709.79,1003.96C709.79,1013.93 715.31,1020.42 723.58,1020.42C728.83,1020.42 733.1,1017.57 735.59,1011.08L743.24,1013.84C740.22,1023.09 732.3,1027.54 723.58,1027.54C710.06,1027.54 701.78,1017.22 701.78,1003.96Z" style="fill:white;fill-rule:nonzero;"/>
            <path d="M750.45,1003.96C750.45,990.7 758.72,980.38 772.25,980.38C785.78,980.38 794.05,990.7 794.05,1003.96C794.05,1017.22 785.78,1027.54 772.25,1027.54C758.72,1027.54 750.45,1017.22 750.45,1003.96ZM786.04,1003.96C786.04,994 780.52,987.5 772.25,987.5C763.98,987.5 758.46,993.99 758.46,1003.96C758.46,1013.93 763.98,1020.42 772.25,1020.42C780.52,1020.42 786.04,1013.93 786.04,1003.96Z" style="fill:white;fill-rule:nonzero;"/>
            <path d="M802.05,1015.88L808.81,1013.48C810.59,1019.09 816.02,1021.31 820.91,1021.31C826.78,1021.31 829.9,1018.55 829.9,1014.73C829.9,1004.05 803.12,1011.44 803.12,992.75C803.12,985.54 809.35,980.38 819.4,980.38C827.5,980.38 834.35,983.85 836.57,991.15L829.81,993.55C828.12,988.57 823.94,986.61 819.4,986.61C813.71,986.61 810.86,989.37 810.86,992.75C810.86,1003.6 837.64,996.22 837.64,1014.73C837.64,1022.47 830.97,1027.54 820.91,1027.54C812.81,1027.54 804.63,1024.34 802.05,1015.89L802.05,1015.88Z" style="fill:white;fill-rule:nonzero;"/>
        </g>
    </g>
</svg>
